Rosario-Bold.ufo
<glyph name="exclam" format="1">
  <advance width="329"/>
  <unicode hex="0021"/>
  <outline>
    <contour>
      <point x="248" y="690" type="line" smooth="yes"/>
      <point x="248" y="715"/>
      <point x="230" y="725"/>
      <point x="209" y="725" type="curve" smooth="yes"/>
      <point x="138" y="725" type="line" smooth="yes"/>
      <point x="117" y="725"/>
      <point x="100" y="716"/>
      <point x="100" y="695" type="curve" smooth="yes"/>
      <point x="100" y="694"/>
      <point x="100" y="693"/>
      <point x="129" y="219" type="curve"/>
      <point x="219" y="219" type="line"/>
    </contour>
    <contour>
      <point x="249" y="103"/>
      <point x="215" y="136"/>
      <point x="174" y="136" type="curve" smooth="yes"/>
      <point x="134" y="136"/>
      <point x="100" y="102"/>
      <point x="100" y="62" type="curve" smooth="yes"/>
      <point x="100" y="21"/>
      <point x="134" y="-12"/>
      <point x="174" y="-12" type="curve" smooth="yes"/>
      <point x="215" y="-12"/>
      <point x="249" y="21"/>
      <point x="249" y="62" type="curve" smooth="yes"/>
    </contour>
  </outline>
</glyph>
<glyph name="quotedbl" format="1">
  <advance width="367"/>
  <unicode hex="0022"/>
  <outline>
    <contour>
      <point x="304" y="559" type="line"/>
      <point x="304" y="732" type="line"/>
      <point x="210" y="732" type="line"/>
      <point x="210" y="559" type="line"/>
      <point x="246" y="449" type="line"/>
      <point x="268" y="449" type="line"/>
    </contour>
    <contour>
      <point x="157" y="559" type="line"/>
      <point x="157" y="732" type="line"/>
      <point x="63" y="732" type="line"/>
      <point x="63" y="559" type="line"/>
      <point x="63" y="558"/>
      <point x="98" y="457"/>
      <point x="100" y="449" type="curve"/>
      <point x="121" y="449" type="line"/>
    </contour>
  </outline>
</glyph>
<glyph name="numbersign" format="1">
  <advance width="640"/>
  <unicode hex="0023"/>
  <outline>
    <contour>
      <point x="582" y="425" type="line"/>
      <point x="582" y="514" type="line"/>
      <point x="480" y="514" type="line"/>
      <point x="509" y="732" type="line"/>
      <point x="420" y="732" type="line"/>
      <point x="391" y="514" type="line"/>
      <point x="297" y="514" type="line"/>
      <point x="326" y="732" type="line"/>
      <point x="237" y="732" type="line"/>
      <point x="208" y="514" type="line"/>
      <point x="86" y="514" type="line"/>
      <point x="86" y="425" type="line"/>
      <point x="196" y="425" type="line"/>
      <point x="178" y="297" type="line"/>
      <point x="60" y="297" type="line"/>
      <point x="60" y="208" type="line"/>
      <point x="166" y="208" type="line"/>
      <point x="138" y="0" type="line"/>
      <point x="227" y="0" type="line"/>
      <point x="255" y="208" type="line"/>
      <point x="349" y="208" type="line"/>
      <point x="321" y="0" type="line"/>
      <point x="410" y="0" type="line"/>
      <point x="438" y="208" type="line"/>
      <point x="556" y="208" type="line"/>
      <point x="556" y="297" type="line"/>
      <point x="450" y="297" type="line"/>
      <point x="468" y="425" type="line"/>
    </contour>
    <contour>
      <point x="379" y="425" type="line"/>
      <point x="361" y="297" type="line"/>
      <point x="267" y="297" type="line"/>
      <point x="285" y="425" type="line"/>
    </contour>
  </outline>
</glyph>
<glyph name="dollar" format="1">
  <advance width="430"/>
  <unicode hex="0024"/>
  <outline>
    <contour>
      <point x="393" y="327"/>
      <point x="174" y="284"/>
      <point x="174" y="376" type="curve" smooth="yes"/>
      <point x="174" y="414"/>
      <point x="209" y="429"/>
      <point x="242" y="429" type="curve" smooth="yes"/>
      <point x="276" y="429"/>
      <point x="314" y="416"/>
      <point x="341" y="395" type="curve"/>
      <point x="383" y="479" type="line"/>
      <point x="351" y="495"/>
      <point x="308" y="504"/>
      <point x="273" y="508" type="curve"/>
      <point x="304" y="624" type="line"/>
      <point x="232" y="624" type="line"/>
      <point x="222" y="510" type="line"/>
      <point x="132" y="505"/>
      <point x="44" y="454"/>
      <point x="44" y="354" type="curve" smooth="yes"/>
      <point x="44" y="190"/>
      <point x="263" y="235"/>
      <point x="263" y="135" type="curve" smooth="yes"/>
      <point x="263" y="91"/>
      <point x="228" y="71"/>
      <point x="188" y="71" type="curve" smooth="yes"/>
      <point x="147" y="71"/>
      <point x="109" y="91"/>
      <point x="75" y="111" type="curve"/>
      <point x="32" y="29" type="line"/>
      <point x="71" y="7"/>
      <point x="124" y="-8"/>
      <point x="169" y="-12" type="curve"/>
      <point x="137" y="-125" type="line"/>
      <point x="210" y="-125" type="line"/>
      <point x="220" y="-13" type="line"/>
      <point x="312" y="-4"/>
      <point x="393" y="56"/>
      <point x="393" y="155" type="curve" smooth="yes"/>
    </contour>
  </outline>
</glyph>
<glyph name="percent" format="1">
  <advance width="863"/>
  <unicode hex="0025"/>
  <outline>
    <contour>
      <point x="842" y="314"/>
      <point x="788" y="405"/>
      <point x="665" y="405" type="curve" smooth="yes"/>
      <point x="542" y="405"/>
      <point x="488" y="314"/>
      <point x="488" y="201" type="curve" smooth="yes"/>
      <point x="488" y="88"/>
      <point x="542" y="-4"/>
      <point x="665" y="-4" type="curve" smooth="yes"/>
      <point x="788" y="-4"/>
      <point x="842" y="88"/>
      <point x="842" y="201" type="curve" smooth="yes"/>
    </contour>
    <contour>
      <point x="640" y="699" type="line"/>
      <point x="284" y="699" type="line"/>
      <point x="261" y="709"/>
      <point x="235" y="713"/>
      <point x="210" y="713" type="curve" smooth="yes"/>
      <point x="87" y="713"/>
      <point x="33" y="622"/>
      <point x="33" y="509" type="curve" smooth="yes"/>
      <point x="33" y="396"/>
      <point x="87" y="304"/>
      <point x="210" y="304" type="curve" smooth="yes"/>
      <point x="332" y="304"/>
      <point x="387" y="396"/>
      <point x="387" y="509" type="curve" smooth="yes"/>
      <point x="387" y="556"/>
      <point x="377" y="605"/>
      <point x="350" y="645" type="curve"/>
      <point x="549" y="645" type="line"/>
      <point x="227" y="-12" type="line"/>
      <point x="294" y="-12" type="line"/>
    </contour>
    <contour>
      <point x="733" y="156"/>
      <point x="727" y="75"/>
      <point x="665" y="75" type="curve" smooth="yes"/>
      <point x="603" y="75"/>
      <point x="597" y="156"/>
      <point x="597" y="201" type="curve" smooth="yes"/>
      <point x="597" y="247"/>
      <point x="603" y="326"/>
      <point x="665" y="326" type="curve" smooth="yes"/>
      <point x="727" y="326"/>
      <point x="733" y="247"/>
      <point x="733" y="201" type="curve" smooth="yes"/>
    </contour>
    <contour>
      <point x="278" y="464"/>
      <point x="271" y="383"/>
      <point x="210" y="383" type="curve" smooth="yes"/>
      <point x="148" y="383"/>
      <point x="142" y="464"/>
      <point x="142" y="509" type="curve" smooth="yes"/>
      <point x="142" y="554"/>
      <point x="148" y="634"/>
      <point x="210" y="634" type="curve" smooth="yes"/>
      <point x="271" y="634"/>
      <point x="278" y="554"/>
      <point x="278" y="509" type="curve" smooth="yes"/>
    </contour>
  </outline>
</glyph>
<glyph name="ampersand" format="1">
  <advance width="679"/>
  <unicode hex="0026"/>
  <outline>
    <contour>
      <point x="679" y="0" type="line"/>
      <point x="679" y="105" type="line"/>
      <point x="652" y="105" type="line"/>
      <point x="577" y="105"/>
      <point x="574" y="108"/>
      <point x="517" y="171" type="curve"/>
      <point x="511" y="178" type="line"/>
      <point x="540" y="235"/>
      <point x="558" y="298"/>
      <point x="558" y="362" type="curve"/>
      <point x="480" y="381" type="line"/>
      <point x="480" y="335"/>
      <point x="467" y="290"/>
      <point x="448" y="249" type="curve"/>
      <point x="408" y="295"/>
      <point x="369" y="342"/>
      <point x="328" y="386" type="curve"/>
      <point x="384" y="425"/>
      <point x="444" y="476"/>
      <point x="444" y="550" type="curve" smooth="yes"/>
      <point x="444" y="644"/>
      <point x="368" y="690"/>
      <point x="282" y="690" type="curve" smooth="yes"/>
      <point x="188" y="690"/>
      <point x="107" y="621"/>
      <point x="107" y="524" type="curve" smooth="yes"/>
      <point x="107" y="473"/>
      <point x="132" y="428"/>
      <point x="161" y="388" type="curve"/>
      <point x="89" y="341"/>
      <point x="31" y="276"/>
      <point x="31" y="185" type="curve" smooth="yes"/>
      <point x="31" y="62"/>
      <point x="128" y="-12"/>
      <point x="245" y="-12" type="curve" smooth="yes"/>
      <point x="322" y="-12"/>
      <point x="390" y="24"/>
      <point x="443" y="79" type="curve"/>
      <point x="492" y="31"/>
      <point x="533" y="0"/>
      <point x="605" y="0" type="curve" smooth="yes"/>
    </contour>
    <contour>
      <point x="338" y="502"/>
      <point x="297" y="473"/>
      <point x="264" y="452" type="curve"/>
      <point x="238" y="478"/>
      <point x="212" y="507"/>
      <point x="212" y="545" type="curve" smooth="yes"/>
      <point x="212" y="581"/>
      <point x="243" y="610"/>
      <point x="278" y="610" type="curve" smooth="yes"/>
      <point x="316" y="610"/>
      <point x="338" y="583"/>
      <point x="338" y="546" type="curve" smooth="yes"/>
    </contour>
    <contour>
      <point x="374" y="149" type="line"/>
      <point x="341" y="121"/>
      <point x="301" y="103"/>
      <point x="258" y="103" type="curve" smooth="yes"/>
      <point x="197" y="103"/>
      <point x="148" y="140"/>
      <point x="148" y="204" type="curve" smooth="yes"/>
      <point x="148" y="252"/>
      <point x="186" y="289"/>
      <point x="222" y="315" type="curve"/>
    </contour>
  </outline>
</glyph>
<glyph name="quotesingle" format="1">
  <advance width="226"/>
  <unicode hex="0027"/>
  <outline>
    <contour>
      <point x="157" y="559" type="line"/>
      <point x="157" y="732" type="line"/>
      <point x="63" y="732" type="line"/>
      <point x="63" y="559" type="line"/>
      <point x="63" y="558"/>
      <point x="98" y="457"/>
      <point x="100" y="449" type="curve"/>
      <point x="121" y="449" type="line"/>
    </contour>
  </outline>
</glyph>
<glyph name="parenleft" format="1">
  <advance width="306"/>
  <unicode hex="0028"/>
  <outline>
    <contour>
      <point x="321" y="-130" type="line"/>
      <point x="209" y="3"/>
      <point x="155" y="125"/>
      <point x="155" y="298" type="curve" smooth="yes"/>
      <point x="155" y="471"/>
      <point x="209" y="593"/>
      <point x="321" y="727" type="curve"/>
      <point x="226" y="743" type="line"/>
      <point x="114" y="619"/>
      <point x="35" y="468"/>
      <point x="35" y="298" type="curve" smooth="yes"/>
      <point x="35" y="128"/>
      <point x="114" y="-22"/>
      <point x="226" y="-146" type="curve"/>
    </contour>
  </outline>
</glyph>
<glyph name="parenright" format="1">
  <advance width="306"/>
  <unicode hex="0029"/>
  <outline>
    <contour>
      <point x="298" y="468"/>
      <point x="219" y="619"/>
      <point x="107" y="743" type="curve"/>
      <point x="12" y="727" type="line"/>
      <point x="124" y="593"/>
      <point x="178" y="471"/>
      <point x="178" y="298" type="curve" smooth="yes"/>
      <point x="178" y="125"/>
      <point x="124" y="3"/>
      <point x="12" y="-130" type="curve"/>
      <point x="107" y="-146" type="line"/>
      <point x="219" y="-22"/>
      <point x="298" y="128"/>
      <point x="298" y="298" type="curve" smooth="yes"/>
    </contour>
  </outline>
</glyph>
<glyph name="asterisk" format="1">
  <advance width="510"/>
  <unicode hex="002A"/>
  <outline>
    <contour>
      <point x="458" y="555" type="line"/>
      <point x="417" y="663" type="line"/>
      <point x="283" y="585" type="line"/>
      <point x="308" y="741" type="line"/>
      <point x="197" y="741" type="line"/>
      <point x="226" y="585" type="line"/>
      <point x="86" y="659" type="line"/>
      <point x="56" y="552" type="line"/>
      <point x="209" y="531" type="line"/>
      <point x="98" y="420" type="line"/>
      <point x="184" y="356" type="line"/>
      <point x="255" y="494" type="line"/>
      <point x="326" y="353" type="line"/>
      <point x="415" y="422" type="line"/>
      <point x="300" y="528" type="line"/>
    </contour>
  </outline>
</glyph>
<glyph name="comma" format="1">
  <advance width="235"/>
  <unicode hex="002C"/>
  <outline>
    <contour>
      <point x="183" y="94"/>
      <point x="154" y="139"/>
      <point x="102" y="139" type="curve" smooth="yes"/>
      <point x="63" y="139"/>
      <point x="33" y="107"/>
      <point x="33" y="69" type="curve" smooth="yes"/>
      <point x="33" y="14"/>
      <point x="81" y="5"/>
      <point x="81" y="-20" type="curve" smooth="yes"/>
      <point x="81" y="-41"/>
      <point x="51" y="-78"/>
      <point x="35" y="-93" type="curve"/>
      <point x="47" y="-107"/>
      <point x="61" y="-121"/>
      <point x="74" y="-134" type="curve"/>
      <point x="132" y="-92"/>
      <point x="183" y="-29"/>
      <point x="183" y="46" type="curve" smooth="yes"/>
    </contour>
  </outline>
</glyph>
<glyph name="hyphen" format="1">
  <advance width="313"/>
  <unicode hex="002D"/>
  <outline>
    <contour>
      <point x="270" y="210" type="line"/>
      <point x="270" y="305" type="line"/>
      <point x="49" y="305" type="line"/>
      <point x="49" y="210" type="line"/>
    </contour>
  </outline>
</glyph>
<glyph name="period" format="1">
  <advance width="228"/>
  <unicode hex="002E"/>
  <outline>
    <contour>
      <point x="183" y="108"/>
      <point x="149" y="143"/>
      <point x="106" y="143" type="curve" smooth="yes"/>
      <point x="63" y="143"/>
      <point x="29" y="108"/>
      <point x="29" y="65" type="curve" smooth="yes"/>
      <point x="29" y="23"/>
      <point x="63" y="-12"/>
      <point x="106" y="-12" type="curve" smooth="yes"/>
      <point x="149" y="-12"/>
      <point x="183" y="23"/>
      <point x="183" y="65" type="curve" smooth="yes"/>
    </contour>
  </outline>
</glyph>
<glyph name="zero" format="1">
  <advance width="578"/>
  <unicode hex="0030"/>
  <outline>
    <contour>
      <point x="549" y="415"/>
      <point x="455" y="510"/>
      <point x="289" y="510" type="curve" smooth="yes"/>
      <point x="122" y="510"/>
      <point x="29" y="416"/>
      <point x="29" y="249" type="curve" smooth="yes"/>
      <point x="29" y="86"/>
      <point x="126" y="-12"/>
      <point x="289" y="-12" type="curve" smooth="yes"/>
      <point x="452" y="-12"/>
      <point x="549" y="86"/>
      <point x="549" y="249" type="curve" smooth="yes"/>
    </contour>
    <contour>
      <point x="417" y="158"/>
      <point x="401" y="69"/>
      <point x="289" y="69" type="curve" smooth="yes"/>
      <point x="178" y="69"/>
      <point x="160" y="158"/>
      <point x="160" y="249" type="curve" smooth="yes"/>
      <point x="160" y="336"/>
      <point x="184" y="429"/>
      <point x="289" y="429" type="curve" smooth="yes"/>
      <point x="396" y="429"/>
      <point x="417" y="337"/>
      <point x="417" y="249" type="curve" smooth="yes"/>
    </contour>
  </outline>
</glyph>
<glyph name="one" format="1">
  <advance width="382"/>
  <unicode hex="0031"/>
  <outline>
    <contour>
      <point x="370" y="0" type="line"/>
      <point x="370" y="99" type="line"/>
      <point x="266" y="99" type="line"/>
      <point x="266" y="498" type="line"/>
      <point x="188" y="498" type="line"/>
      <point x="15" y="413" type="line"/>
      <point x="36" y="349" type="line"/>
      <point x="145" y="378" type="line"/>
      <point x="145" y="99" type="line"/>
      <point x="36" y="99" type="line"/>
      <point x="36" y="0" type="line"/>
    </contour>
  </outline>
</glyph>
<glyph name="two" format="1">
  <advance width="464"/>
  <unicode hex="0032"/>
  <outline>
    <contour>
      <point x="463" y="99" type="line"/>
      <point x="202" y="99" type="line"/>
      <point x="258" y="151"/>
      <point x="316" y="202"/>
      <point x="368" y="256" type="curve" smooth="yes"/>
      <point x="400" y="289"/>
      <point x="423" y="329"/>
      <point x="423" y="375" type="curve" smooth="yes"/>
      <point x="423" y="469"/>
      <point x="336" y="512"/>
      <point x="253" y="512" type="curve" smooth="yes"/>
      <point x="166" y="512"/>
      <point x="97" y="477"/>
      <point x="33" y="419" type="curve"/>
      <point x="93" y="355" type="line"/>
      <point x="125" y="386"/>
      <point x="172" y="421"/>
      <point x="219" y="421" type="curve" smooth="yes"/>
      <point x="252" y="421"/>
      <point x="279" y="400"/>
      <point x="279" y="365" type="curve" smooth="yes"/>
      <point x="279" y="338"/>
      <point x="264" y="316"/>
      <point x="246" y="297" type="curve" smooth="yes"/>
      <point x="176" y="220"/>
      <point x="101" y="129"/>
      <point x="29" y="54" type="curve"/>
      <point x="29" y="0" type="line"/>
      <point x="442" y="0" type="line"/>
    </contour>
  </outline>
</glyph>
<glyph name="three" format="1">
  <advance width="410"/>
  <unicode hex="0033"/>
  <outline>
    <contour>
      <point x="385" y="182"/>
      <point x="317" y="225"/>
      <point x="229" y="225" type="curve" smooth="yes"/>
      <point x="219" y="225"/>
      <point x="208" y="224"/>
      <point x="198" y="223" type="curve"/>
      <point x="262" y="255"/>
      <point x="361" y="326"/>
      <point x="361" y="405" type="curve" smooth="yes"/>
      <point x="361" y="485"/>
      <point x="287" y="511"/>
      <point x="219" y="511" type="curve" smooth="yes"/>
      <point x="155" y="511"/>
      <point x="73" y="485"/>
      <point x="30" y="435" type="curve"/>
      <point x="86" y="379" type="line"/>
      <point x="110" y="402"/>
      <point x="151" y="428"/>
      <point x="185" y="428" type="curve" smooth="yes"/>
      <point x="210" y="428"/>
      <point x="222" y="410"/>
      <point x="222" y="386" type="curve" smooth="yes"/>
      <point x="222" y="308"/>
      <point x="131" y="235"/>
      <point x="68" y="206" type="curve"/>
      <point x="103" y="134" type="line"/>
      <point x="124" y="142"/>
      <point x="150" y="148"/>
      <point x="173" y="148" type="curve" smooth="yes"/>
      <point x="220" y="148"/>
      <point x="245" y="123"/>
      <point x="245" y="74" type="curve" smooth="yes"/>
      <point x="245" y="-87"/>
      <point x="48" y="-124"/>
      <point x="-77" y="-128" type="curve"/>
      <point x="-63" y="-198" type="line"/>
      <point x="-48" y="-198" type="line" smooth="yes"/>
      <point x="125" y="-198"/>
      <point x="385" y="-122"/>
      <point x="385" y="88" type="curve" smooth="yes"/>
    </contour>
  </outline>
</glyph>
<glyph name="four" format="1">
  <advance width="497"/>
  <unicode hex="0034"/>
  <outline>
    <contour>
      <point x="526" y="99" type="line"/>
      <point x="419" y="99" type="line"/>
      <point x="419" y="498" type="line"/>
      <point x="288" y="498" type="line"/>
      <point x="2" y="57" type="line"/>
      <point x="2" y="-1" type="line"/>
      <point x="294" y="-1" type="line"/>
      <point x="294" y="-184" type="line"/>
      <point x="419" y="-184" type="line"/>
      <point x="419" y="-1" type="line"/>
      <point x="498" y="-1" type="line"/>
    </contour>
    <contour>
      <point x="294" y="99" type="line"/>
      <point x="145" y="99" type="line"/>
      <point x="294" y="329" type="line"/>
    </contour>
  </outline>
</glyph>
<glyph name="five" format="1">
  <advance width="372"/>
  <unicode hex="0035"/>
  <outline>
    <contour>
      <point x="397" y="498" type="line"/>
      <point x="120" y="498" type="line"/>
      <point x="18" y="273" type="line"/>
      <point x="91" y="241"/>
      <point x="196" y="166"/>
      <point x="196" y="77" type="curve" smooth="yes"/>
      <point x="196" y="-48"/>
      <point x="77" y="-114"/>
      <point x="-28" y="-145" type="curve"/>
      <point x="-6" y="-207" type="line"/>
      <point x="146" y="-187"/>
      <point x="328" y="-92"/>
      <point x="328" y="82" type="curve" smooth="yes"/>
      <point x="328" y="194"/>
      <point x="244" y="276"/>
      <point x="152" y="327" type="curve"/>
      <point x="174" y="377" type="line"/>
      <point x="362" y="377" type="line"/>
    </contour>
  </outline>
</glyph>
<glyph name="six" format="1">
  <advance width="536"/>
  <unicode hex="0036"/>
  <outline>
    <contour>
      <point x="512" y="337"/>
      <point x="422" y="421"/>
      <point x="299" y="421" type="curve" smooth="yes"/>
      <point x="252" y="421"/>
      <point x="222" y="409"/>
      <point x="183" y="384" type="curve"/>
      <point x="241" y="507"/>
      <point x="368" y="621"/>
      <point x="497" y="665" type="curve"/>
      <point x="469" y="730" type="line"/>
      <point x="421" y="718"/>
      <point x="372" y="696"/>
      <point x="328" y="672" type="curve" smooth="yes"/>
      <point x="163" y="585"/>
      <point x="24" y="442"/>
      <point x="24" y="244" type="curve" smooth="yes"/>
      <point x="24" y="95"/>
      <point x="123" y="-12"/>
      <point x="274" y="-12" type="curve" smooth="yes"/>
      <point x="400" y="-12"/>
      <point x="512" y="81"/>
      <point x="512" y="212" type="curve" smooth="yes"/>
    </contour>
    <contour>
      <point x="377" y="142"/>
      <point x="346" y="71"/>
      <point x="272" y="71" type="curve" smooth="yes"/>
      <point x="189" y="71"/>
      <point x="159" y="163"/>
      <point x="159" y="232" type="curve" smooth="yes"/>
      <point x="159" y="249"/>
      <point x="159" y="264"/>
      <point x="163" y="282" type="curve"/>
      <point x="191" y="313"/>
      <point x="230" y="335"/>
      <point x="273" y="335" type="curve" smooth="yes"/>
      <point x="346" y="335"/>
      <point x="377" y="271"/>
      <point x="377" y="206" type="curve" smooth="yes"/>
    </contour>
  </outline>
</glyph>
<glyph name="seven" format="1">
  <advance width="425"/>
  <unicode hex="0037"/>
  <outline>
    <contour>
      <point x="428" y="434" type="line"/>
      <point x="428" y="497" type="line"/>
      <point x="21" y="497" type="line"/>
      <point x="-11" y="386" type="line"/>
      <point x="277" y="386" type="line"/>
      <point x="7" y="-189" type="line"/>
      <point x="143" y="-189" type="line"/>
    </contour>
  </outline>
</glyph>
<glyph name="eight" format="1">
  <advance width="461"/>
  <unicode hex="0038"/>
  <outline>
    <contour>
      <point x="464" y="265"/>
      <point x="409" y="315"/>
      <point x="346" y="373" type="curve" smooth="yes"/>
      <point x="330" y="388" type="line"/>
      <point x="387" y="442"/>
      <point x="440" y="476"/>
      <point x="440" y="565" type="curve" smooth="yes"/>
      <point x="440" y="676"/>
      <point x="354" y="732"/>
      <point x="250" y="732" type="curve" smooth="yes"/>
      <point x="152" y="732"/>
      <point x="50" y="674"/>
      <point x="50" y="565" type="curve" smooth="yes"/>
      <point x="50" y="476"/>
      <point x="90" y="439"/>
      <point x="149" y="385" type="curve" smooth="yes"/>
      <point x="161" y="374" type="line"/>
      <point x="91" y="314"/>
      <point x="28" y="273"/>
      <point x="28" y="170" type="curve" smooth="yes"/>
      <point x="28" y="50"/>
      <point x="133" y="-12"/>
      <point x="243" y="-12" type="curve" smooth="yes"/>
      <point x="355" y="-12"/>
      <point x="464" y="46"/>
      <point x="464" y="170" type="curve" smooth="yes"/>
    </contour>
    <contour>
      <point x="328" y="514"/>
      <point x="296" y="488"/>
      <point x="262" y="460" type="curve" smooth="yes"/>
      <point x="258" y="456" type="line"/>
      <point x="225" y="487"/>
      <point x="185" y="517"/>
      <point x="185" y="567" type="curve" smooth="yes"/>
      <point x="185" y="611"/>
      <point x="208" y="653"/>
      <point x="256" y="653" type="curve" smooth="yes"/>
      <point x="307" y="653"/>
      <point x="328" y="609"/>
      <point x="328" y="564" type="curve" smooth="yes"/>
    </contour>
    <contour>
      <point x="329" y="114"/>
      <point x="297" y="69"/>
      <point x="237" y="69" type="curve" smooth="yes"/>
      <point x="176" y="69"/>
      <point x="139" y="114"/>
      <point x="139" y="173" type="curve" smooth="yes"/>
      <point x="139" y="237"/>
      <point x="189" y="269"/>
      <point x="232" y="306" type="curve"/>
      <point x="269" y="271"/>
      <point x="329" y="227"/>
      <point x="329" y="171" type="curve" smooth="yes"/>
    </contour>
  </outline>
</glyph>
<glyph name="nine" format="1">
  <advance width="536"/>
  <unicode hex="0039"/>
  <outline>
    <contour>
      <point x="512" y="404"/>
      <point x="413" y="511"/>
      <point x="263" y="511" type="curve" smooth="yes"/>
      <point x="136" y="511"/>
      <point x="25" y="418"/>
      <point x="25" y="287" type="curve" smooth="yes"/>
      <point x="25" y="162"/>
      <point x="114" y="78"/>
      <point x="237" y="78" type="curve" smooth="yes"/>
      <point x="284" y="78"/>
      <point x="314" y="90"/>
      <point x="353" y="115" type="curve"/>
      <point x="292" y="-9"/>
      <point x="164" y="-105"/>
      <point x="35" y="-149" type="curve"/>
      <point x="62" y="-214" type="line"/>
      <point x="281" y="-160"/>
      <point x="512" y="11"/>
      <point x="512" y="255" type="curve" smooth="yes"/>
    </contour>
    <contour>
      <point x="377" y="250"/>
      <point x="376" y="234"/>
      <point x="374" y="217" type="curve"/>
      <point x="346" y="186"/>
      <point x="307" y="164"/>
      <point x="264" y="164" type="curve" smooth="yes"/>
      <point x="191" y="164"/>
      <point x="159" y="228"/>
      <point x="159" y="293" type="curve" smooth="yes"/>
      <point x="159" y="357"/>
      <point x="190" y="428"/>
      <point x="264" y="428" type="curve" smooth="yes"/>
      <point x="348" y="428"/>
      <point x="377" y="336"/>
      <point x="377" y="267" type="curve" smooth="yes"/>
    </contour>
  </outline>
</glyph>
<glyph name="colon" format="1">
  <advance width="331"/>
  <unicode hex="003A"/>
  <outline>
    <contour>
      <point x="243" y="396"/>
      <point x="208" y="431"/>
      <point x="165" y="431" type="curve" smooth="yes"/>
      <point x="123" y="431"/>
      <point x="88" y="396"/>
      <point x="88" y="354" type="curve" smooth="yes"/>
      <point x="88" y="311"/>
      <point x="123" y="276"/>
      <point x="166" y="276" type="curve" smooth="yes"/>
      <point x="208" y="276"/>
      <point x="243" y="311"/>
      <point x="243" y="354" type="curve" smooth="yes"/>
    </contour>
    <contour>
      <point x="243" y="108"/>
      <point x="208" y="143"/>
      <point x="165" y="143" type="curve" smooth="yes"/>
      <point x="123" y="143"/>
      <point x="88" y="108"/>
      <point x="88" y="65" type="curve" smooth="yes"/>
      <point x="88" y="23"/>
      <point x="123" y="-12"/>
      <point x="166" y="-12" type="curve" smooth="yes"/>
      <point x="208" y="-12"/>
      <point x="243" y="23"/>
      <point x="243" y="65" type="curve" smooth="yes"/>
    </contour>
  </outline>
</glyph>
<glyph name="equal" format="1">
  <advance width="630"/>
  <unicode hex="003D"/>
  <outline>
    <contour>
      <point x="565" y="302" type="line"/>
      <point x="565" y="390" type="line"/>
      <point x="67" y="390" type="line"/>
      <point x="67" y="302" type="line"/>
    </contour>
    <contour>
      <point x="565" y="109" type="line"/>
      <point x="565" y="197" type="line"/>
      <point x="67" y="197" type="line"/>
      <point x="67" y="109" type="line"/>
    </contour>
  </outline>
</glyph>
<glyph name="question" format="1">
  <advance width="438"/>
  <unicode hex="003F"/>
  <outline>
    <contour>
      <point x="403" y="665"/>
      <point x="290" y="722"/>
      <point x="183" y="722" type="curve" smooth="yes"/>
      <point x="126" y="722"/>
      <point x="68" y="709"/>
      <point x="20" y="678" type="curve"/>
      <point x="66" y="590" type="line"/>
      <point x="97" y="611"/>
      <point x="132" y="625"/>
      <point x="170" y="625" type="curve" smooth="yes"/>
      <point x="222" y="625"/>
      <point x="274" y="594"/>
      <point x="274" y="537" type="curve" smooth="yes"/>
      <point x="274" y="465"/>
      <point x="192" y="427"/>
      <point x="131" y="422" type="curve"/>
      <point x="131" y="217" type="line"/>
      <point x="238" y="217" type="line"/>
      <point x="238" y="336" type="line" smooth="yes"/>
      <point x="238" y="348"/>
      <point x="240" y="352"/>
      <point x="251" y="357" type="curve" smooth="yes"/>
      <point x="332" y="391"/>
      <point x="403" y="442"/>
      <point x="403" y="544" type="curve" smooth="yes"/>
    </contour>
    <contour>
      <point x="261" y="108"/>
      <point x="227" y="143"/>
      <point x="184" y="143" type="curve" smooth="yes"/>
      <point x="141" y="143"/>
      <point x="107" y="108"/>
      <point x="107" y="65" type="curve" smooth="yes"/>
      <point x="107" y="23"/>
      <point x="141" y="-12"/>
      <point x="184" y="-12" type="curve" smooth="yes"/>
      <point x="227" y="-12"/>
      <point x="261" y="23"/>
      <point x="261" y="65" type="curve" smooth="yes"/>
    </contour>
  </outline>
</glyph>
<glyph name="A" format="1">
  <advance width="631"/>
  <unicode hex="0041"/>
  <outline>
    <contour>
      <point x="629" y="0" type="line"/>
      <point x="370" y="732" type="line"/>
      <point x="261" y="732" type="line"/>
      <point x="2" y="0" type="line"/>
      <point x="118" y="0" type="line"/>
      <point x="193" y="210" type="line"/>
      <point x="409" y="210" type="line"/>
      <point x="481" y="0" type="line"/>
    </contour>
    <contour>
      <point x="227" y="308" type="line"/>
      <point x="253" y="391"/>
      <point x="277" y="473"/>
      <point x="300" y="558" type="curve"/>
      <point x="323" y="474"/>
      <point x="349" y="391"/>
      <point x="376" y="308" type="curve"/>
    </contour>
  </outline>
</glyph>
<glyph name="C" format="1">
  <advance width="624"/>
  <unicode hex="0043"/>
  <outline>
    <contour>
      <point x="549" y="157" type="line"/>
      <point x="500" y="110"/>
      <point x="448" y="82"/>
      <point x="378" y="82" type="curve" smooth="yes"/>
      <point x="232" y="82"/>
      <point x="169" y="252"/>
      <point x="169" y="374" type="curve" smooth="yes"/>
      <point x="169" y="509"/>
      <point x="220" y="649"/>
      <point x="376" y="649" type="curve" smooth="yes"/>
      <point x="431" y="649"/>
      <point x="499" y="625"/>
      <point x="536" y="583" type="curve"/>
      <point x="608" y="675" type="line"/>
      <point x="552" y="725"/>
      <point x="443" y="746"/>
      <point x="371" y="746" type="curve" smooth="yes"/>
      <point x="152" y="746"/>
      <point x="20" y="583"/>
      <point x="20" y="371" type="curve" smooth="yes"/>
      <point x="20" y="151"/>
      <point x="138" y="-12"/>
      <point x="370" y="-12" type="curve" smooth="yes"/>
      <point x="467" y="-12"/>
      <point x="532" y="12"/>
      <point x="612" y="62" type="curve"/>
    </contour>
  </outline>
</glyph>
<glyph name="E" format="1">
  <advance width="549"/>
  <unicode hex="0045"/>
  <outline>
    <contour>
      <point x="512" y="0" type="line"/>
      <point x="512" y="99" type="line"/>
      <point x="204" y="99" type="line"/>
      <point x="204" y="327" type="line"/>
      <point x="440" y="327" type="line"/>
      <point x="440" y="426" type="line"/>
      <point x="204" y="426" type="line"/>
      <point x="204" y="633" type="line"/>
      <point x="512" y="633" type="line"/>
      <point x="512" y="732" type="line"/>
      <point x="52" y="732" type="line"/>
      <point x="67" y="671" type="line"/>
      <point x="67" y="0" type="line"/>
    </contour>
  </outline>
</glyph>
<glyph name="F" format="1">
  <advance width="510"/>
  <unicode hex="0046"/>
  <outline>
    <contour>
      <point x="482" y="633" type="line"/>
      <point x="482" y="732" type="line"/>
      <point x="53" y="732" type="line"/>
      <point x="54" y="727"/>
      <point x="67" y="673"/>
      <point x="67" y="671" type="curve" smooth="yes"/>
      <point x="67" y="0" type="line"/>
      <point x="206" y="0" type="line"/>
      <point x="206" y="327" type="line"/>
      <point x="419" y="327" type="line"/>
      <point x="419" y="426" type="line"/>
      <point x="206" y="426" type="line"/>
      <point x="206" y="633" type="line"/>
    </contour>
  </outline>
</glyph>
<glyph name="G" format="1">
  <advance width="707"/>
  <unicode hex="0047"/>
  <outline>
    <contour>
      <point x="668" y="-1" type="line"/>
      <point x="664" y="68"/>
      <point x="663" y="137"/>
      <point x="663" y="206" type="curve" smooth="yes"/>
      <point x="663" y="268"/>
      <point x="664" y="329"/>
      <point x="665" y="390" type="curve"/>
      <point x="387" y="390" type="line"/>
      <point x="374" y="302" type="line"/>
      <point x="526" y="302" type="line"/>
      <point x="526" y="240" type="line" smooth="yes"/>
      <point x="526" y="144"/>
      <point x="462" y="85"/>
      <point x="368" y="85" type="curve" smooth="yes"/>
      <point x="221" y="85"/>
      <point x="166" y="245"/>
      <point x="166" y="368" type="curve" smooth="yes"/>
      <point x="166" y="513"/>
      <point x="221" y="650"/>
      <point x="387" y="650" type="curve" smooth="yes"/>
      <point x="472" y="650"/>
      <point x="507" y="630"/>
      <point x="571" y="583" type="curve"/>
      <point x="644" y="665" type="line"/>
      <point x="584" y="722"/>
      <point x="465" y="744"/>
      <point x="387" y="744" type="curve" smooth="yes"/>
      <point x="154" y="744"/>
      <point x="21" y="588"/>
      <point x="21" y="359" type="curve" smooth="yes"/>
      <point x="21" y="155"/>
      <point x="128" y="-11"/>
      <point x="345" y="-11" type="curve" smooth="yes"/>
      <point x="437" y="-11"/>
      <point x="497" y="14"/>
      <point x="563" y="75" type="curve"/>
      <point x="597" y="-1" type="line"/>
    </contour>
  </outline>
</glyph>
<glyph name="I" format="1">
  <advance width="268"/>
  <unicode hex="0049"/>
  <outline>
    <contour>
      <point x="204" y="0" type="line"/>
      <point x="204" y="732" type="line"/>
      <point x="52" y="732" type="line"/>
      <point x="53" y="727"/>
      <point x="66" y="673"/>
      <point x="66" y="671" type="curve" smooth="yes"/>
      <point x="66" y="0" type="line"/>
    </contour>
  </outline>
</glyph>
<glyph name="J" format="1">
  <advance width="268"/>
  <unicode hex="004A"/>
  <outline>
    <contour>
      <point x="205" y="732" type="line"/>
      <point x="53" y="732" type="line"/>
      <point x="54" y="727"/>
      <point x="67" y="673"/>
      <point x="67" y="671" type="curve" smooth="yes"/>
      <point x="67" y="47" type="line" smooth="yes"/>
      <point x="67" y="-34"/>
      <point x="59" y="-119"/>
      <point x="-38" y="-131" type="curve"/>
      <point x="-18" y="-209" type="line"/>
      <point x="179" y="-200"/>
      <point x="205" y="-70"/>
      <point x="205" y="98" type="curve"/>
    </contour>
  </outline>
</glyph>
<glyph name="K" format="1">
  <advance width="583"/>
  <unicode hex="004B"/>
  <outline>
    <contour>
      <point x="597" y="0" type="line"/>
      <point x="338" y="412" type="line"/>
      <point x="576" y="732" type="line"/>
      <point x="448" y="732" type="line"/>
      <point x="204" y="405" type="line"/>
      <point x="204" y="732" type="line"/>
      <point x="52" y="732" type="line"/>
      <point x="53" y="727"/>
      <point x="66" y="673"/>
      <point x="66" y="671" type="curve" smooth="yes"/>
      <point x="66" y="0" type="line"/>
      <point x="204" y="0" type="line"/>
      <point x="204" y="371" type="line"/>
      <point x="437" y="0" type="line"/>
    </contour>
  </outline>
</glyph>
<glyph name="L" format="1">
  <advance width="514"/>
  <unicode hex="004C"/>
  <outline>
    <contour>
      <point x="492" y="0" type="line"/>
      <point x="492" y="99" type="line"/>
      <point x="205" y="99" type="line"/>
      <point x="205" y="732" type="line"/>
      <point x="53" y="732" type="line"/>
      <point x="54" y="727"/>
      <point x="66" y="673"/>
      <point x="66" y="671" type="curve" smooth="yes"/>
      <point x="66" y="0" type="line"/>
    </contour>
  </outline>
</glyph>
<glyph name="M" format="1">
  <advance width="838"/>
  <unicode hex="004D"/>
  <outline>
    <contour>
      <point x="786" y="1" type="line"/>
      <point x="786" y="732" type="line"/>
      <point x="610" y="732" type="line"/>
      <point x="457" y="308" type="line" smooth="yes"/>
      <point x="443" y="269"/>
      <point x="440" y="233"/>
      <point x="430" y="191" type="curve"/>
      <point x="422" y="232"/>
      <point x="416" y="272"/>
      <point x="401" y="312" type="curve" smooth="yes"/>
      <point x="245" y="732" type="line"/>
      <point x="53" y="732" type="line"/>
      <point x="54" y="727"/>
      <point x="67" y="673"/>
      <point x="67" y="671" type="curve" smooth="yes"/>
      <point x="67" y="1" type="line"/>
      <point x="176" y="1" type="line"/>
      <point x="176" y="497" type="line" smooth="yes"/>
      <point x="176" y="521"/>
      <point x="172" y="546"/>
      <point x="171" y="569" type="curve"/>
      <point x="179" y="545"/>
      <point x="186" y="521"/>
      <point x="195" y="497" type="curve" smooth="yes"/>
      <point x="379" y="0" type="line"/>
      <point x="453" y="0" type="line"/>
      <point x="632" y="497" type="line" smooth="yes"/>
      <point x="641" y="521"/>
      <point x="648" y="545"/>
      <point x="656" y="569" type="curve"/>
      <point x="654" y="546"/>
      <point x="651" y="521"/>
      <point x="651" y="497" type="curve" smooth="yes"/>
      <point x="651" y="1" type="line"/>
    </contour>
  </outline>
</glyph>
<glyph name="N" format="1">
  <advance width="714"/>
  <unicode hex="004E"/>
  <outline>
    <contour>
      <point x="650" y="-5" type="line"/>
      <point x="650" y="731" type="line"/>
      <point x="539" y="731" type="line"/>
      <point x="539" y="304" type="line" smooth="yes"/>
      <point x="539" y="279"/>
      <point x="543" y="252"/>
      <point x="545" y="227" type="curve"/>
      <point x="532" y="249"/>
      <point x="519" y="271"/>
      <point x="504" y="293" type="curve" smooth="yes"/>
      <point x="216" y="731" type="line"/>
      <point x="52" y="731" type="line"/>
      <point x="53" y="726"/>
      <point x="66" y="672"/>
      <point x="66" y="670" type="curve" smooth="yes"/>
      <point x="66" y="0" type="line"/>
      <point x="177" y="0" type="line"/>
      <point x="177" y="497" type="line" smooth="yes"/>
      <point x="177" y="519"/>
      <point x="173" y="542"/>
      <point x="171" y="564" type="curve"/>
      <point x="184" y="542"/>
      <point x="199" y="519"/>
      <point x="213" y="497" type="curve" smooth="yes"/>
      <point x="542" y="-5" type="line"/>
    </contour>
  </outline>
</glyph>
<glyph name="O" format="1">
  <advance width="737"/>
  <unicode hex="004F"/>
  <outline>
    <contour>
      <point x="718" y="584"/>
      <point x="594" y="743"/>
      <point x="366" y="743" type="curve" smooth="yes"/>
      <point x="142" y="743"/>
      <point x="19" y="581"/>
      <point x="19" y="367" type="curve" smooth="yes"/>
      <point x="19" y="155"/>
      <point x="141" y="-11"/>
      <point x="365" y="-11" type="curve" smooth="yes"/>
      <point x="587" y="-11"/>
      <point x="718" y="150"/>
      <point x="718" y="365" type="curve" smooth="yes"/>
    </contour>
    <contour>
      <point x="570" y="231"/>
      <point x="523" y="84"/>
      <point x="369" y="84" type="curve" smooth="yes"/>
      <point x="212" y="84"/>
      <point x="166" y="240"/>
      <point x="166" y="371" type="curve" smooth="yes"/>
      <point x="166" y="500"/>
      <point x="213" y="648"/>
      <point x="367" y="648" type="curve" smooth="yes"/>
      <point x="525" y="648"/>
      <point x="570" y="491"/>
      <point x="570" y="361" type="curve" smooth="yes"/>
    </contour>
  </outline>
</glyph>
<glyph name="Q" format="1">
  <advance width="737"/>
  <unicode hex="0051"/>
  <outline>
    <contour>
      <point x="1161" y="-87" type="line"/>
      <point x="1094" y="-107"/>
      <point x="1015" y="-122"/>
      <point x="976" y="-122" type="curve" smooth="yes"/>
      <point x="842" y="-122"/>
      <point x="657" y="-32"/>
      <point x="548" y="21" type="curve" smooth="yes"/>
      <point x="536" y="27" type="line"/>
      <point x="669" y="99"/>
      <point x="718" y="236"/>
      <point x="718" y="364" type="curve" smooth="yes"/>
      <point x="718" y="560"/>
      <point x="606" y="744"/>
      <point x="369" y="744" type="curve" smooth="yes"/>
      <point x="132" y="744"/>
      <point x="19" y="561"/>
      <point x="19" y="364" type="curve" smooth="yes"/>
      <point x="19" y="189"/>
      <point x="97" y="35"/>
      <point x="301" y="-8" type="curve" smooth="yes"/>
      <point x="344" y="-17"/>
      <point x="389" y="-24"/>
      <point x="429" y="-42" type="curve" smooth="yes"/>
      <point x="567" y="-103"/>
      <point x="785" y="-216"/>
      <point x="935" y="-216" type="curve" smooth="yes"/>
      <point x="1032" y="-216"/>
      <point x="1065" y="-204"/>
      <point x="1184" y="-163" type="curve"/>
    </contour>
    <contour>
      <point x="571" y="226"/>
      <point x="516" y="85"/>
      <point x="369" y="85" type="curve" smooth="yes"/>
      <point x="223" y="85"/>
      <point x="167" y="226"/>
      <point x="167" y="363" type="curve" smooth="yes"/>
      <point x="167" y="501"/>
      <point x="223" y="648"/>
      <point x="369" y="648" type="curve" smooth="yes"/>
      <point x="516" y="648"/>
      <point x="571" y="502"/>
      <point x="571" y="364" type="curve" smooth="yes"/>
    </contour>
  </outline>
</glyph>
<glyph name="T" format="1">
  <advance width="578"/>
  <unicode hex="0054"/>
  <outline>
    <contour>
      <point x="565" y="633" type="line"/>
      <point x="565" y="732" type="line"/>
      <point x="13" y="732" type="line"/>
      <point x="13" y="633" type="line"/>
      <point x="216" y="633" type="line"/>
      <point x="216" y="0" type="line"/>
      <point x="359" y="0" type="line"/>
      <point x="359" y="633" type="line"/>
    </contour>
  </outline>
</glyph>
<glyph name="U" format="1">
  <advance width="707"/>
  <unicode hex="0055"/>
  <outline>
    <contour>
      <point x="644" y="732" type="line"/>
      <point x="531" y="732" type="line"/>
      <point x="531" y="245" type="line" smooth="yes"/>
      <point x="531" y="145"/>
      <point x="469" y="84"/>
      <point x="370" y="84" type="curve" smooth="yes"/>
      <point x="273" y="84"/>
      <point x="209" y="147"/>
      <point x="209" y="245" type="curve" smooth="yes"/>
      <point x="209" y="732" type="line"/>
      <point x="52" y="732" type="line"/>
      <point x="68" y="672" type="line"/>
      <point x="68" y="278" type="line" smooth="yes"/>
      <point x="68" y="92"/>
      <point x="170" y="-11"/>
      <point x="356" y="-11" type="curve" smooth="yes"/>
      <point x="519" y="-11"/>
      <point x="644" y="68"/>
      <point x="644" y="278" type="curve"/>
    </contour>
  </outline>
</glyph>
<glyph name="V" format="1">
  <advance width="603"/>
  <unicode hex="0056"/>
  <outline>
    <contour>
      <point x="603" y="731" type="line"/>
      <point x="492" y="731" type="line"/>
      <point x="357" y="336" type="line" smooth="yes"/>
      <point x="341" y="291"/>
      <point x="328" y="246"/>
      <point x="318" y="199" type="curve"/>
      <point x="310" y="237"/>
      <point x="301" y="276"/>
      <point x="289" y="313" type="curve" smooth="yes"/>
      <point x="243" y="453"/>
      <point x="194" y="591"/>
      <point x="146" y="731" type="curve"/>
      <point x="0" y="731" type="line"/>
      <point x="252" y="-2" type="line"/>
      <point x="350" y="-2" type="line"/>
    </contour>
  </outline>
</glyph>
<glyph name="W" format="1">
  <advance width="894"/>
  <unicode hex="0057"/>
  <outline>
    <contour>
      <point x="908" y="732" type="line"/>
      <point x="797" y="732" type="line"/>
      <point x="691" y="346" type="line" smooth="yes"/>
      <point x="676" y="292"/>
      <point x="665" y="238"/>
      <point x="657" y="182" type="curve"/>
      <point x="652" y="224"/>
      <point x="646" y="266"/>
      <point x="636" y="307" type="curve" smooth="yes"/>
      <point x="601" y="449"/>
      <point x="558" y="591"/>
      <point x="519" y="732" type="curve"/>
      <point x="403" y="732" type="line"/>
      <point x="298" y="346" type="line" smooth="yes"/>
      <point x="284" y="292"/>
      <point x="271" y="238"/>
      <point x="263" y="182" type="curve"/>
      <point x="257" y="225"/>
      <point x="250" y="267"/>
      <point x="240" y="309" type="curve" smooth="yes"/>
      <point x="204" y="451"/>
      <point x="163" y="591"/>
      <point x="124" y="732" type="curve"/>
      <point x="-14" y="732" type="line"/>
      <point x="187" y="-2" type="line"/>
      <point x="315" y="-2" type="line"/>
      <point x="414" y="361" type="line" smooth="yes"/>
      <point x="429" y="415"/>
      <point x="440" y="470"/>
      <point x="448" y="526" type="curve"/>
      <point x="452" y="488"/>
      <point x="459" y="451"/>
      <point x="468" y="414" type="curve" smooth="yes"/>
      <point x="501" y="275"/>
      <point x="543" y="136"/>
      <point x="581" y="-2" type="curve"/>
      <point x="705" y="-2" type="line"/>
    </contour>
  </outline>
</glyph>
<glyph name="X" format="1">
  <advance width="585"/>
  <unicode hex="0058"/>
  <outline>
    <contour>
      <point x="597" y="0" type="line"/>
      <point x="362" y="394" type="line"/>
      <point x="569" y="732" type="line"/>
      <point x="440" y="732" type="line"/>
      <point x="298" y="503" type="line"/>
      <point x="161" y="732" type="line"/>
      <point x="2" y="732" type="line"/>
      <point x="217" y="371" type="line"/>
      <point x="-12" y="0" type="line"/>
      <point x="117" y="0" type="line"/>
      <point x="282" y="266" type="line"/>
      <point x="437" y="0" type="line"/>
    </contour>
  </outline>
</glyph>
<glyph name="bracketleft" format="1">
  <advance width="351"/>
  <unicode hex="005B"/>
  <outline>
    <contour>
      <point x="311" y="-132" type="line"/>
      <point x="311" y="-73" type="line"/>
      <point x="212" y="-73" type="line"/>
      <point x="212" y="673" type="line"/>
      <point x="311" y="673" type="line"/>
      <point x="311" y="732" type="line"/>
      <point x="93" y="732" type="line"/>
      <point x="93" y="-132" type="line"/>
    </contour>
  </outline>
</glyph>
<glyph name="backslash" format="1">
  <advance width="326"/>
  <unicode hex="005C"/>
  <outline>
    <contour>
      <point x="345" y="0" type="line"/>
      <point x="75" y="732" type="line"/>
      <point x="-18" y="732" type="line"/>
      <point x="251" y="0" type="line"/>
    </contour>
  </outline>
</glyph>
<glyph name="bracketright" format="1">
  <advance width="350"/>
  <unicode hex="005D"/>
  <outline>
    <contour>
      <point x="258" y="-132" type="line"/>
      <point x="258" y="732" type="line"/>
      <point x="40" y="732" type="line"/>
      <point x="40" y="673" type="line"/>
      <point x="139" y="673" type="line"/>
      <point x="139" y="-73" type="line"/>
      <point x="40" y="-73" type="line"/>
      <point x="40" y="-132" type="line"/>
    </contour>
  </outline>
</glyph>
<glyph name="asciicircum" format="1">
  <advance width="618"/>
  <unicode hex="005E"/>
  <outline>
    <contour>
      <point x="591" y="0" type="line"/>
      <point x="356" y="498" type="line"/>
      <point x="304" y="498" type="line"/>
      <point x="69" y="0" type="line"/>
      <point x="157" y="0" type="line"/>
      <point x="330" y="368" type="line"/>
      <point x="500" y="0" type="line"/>
    </contour>
  </outline>
</glyph>
<glyph name="underscore" format="1">
  <advance width="499"/>
  <unicode hex="005F"/>
  <outline>
    <contour>
      <point x="504" y="-143" type="line"/>
      <point x="504" y="-47" type="line"/>
      <point x="-4" y="-47" type="line"/>
      <point x="-4" y="-143" type="line"/>
    </contour>
  </outline>
</glyph>
<glyph name="grave" format="1">
  <advance width="281"/>
  <unicode hex="0060"/>
  <outline>
    <contour>
      <point x="258" y="590" type="line"/>
      <point x="149" y="755" type="line"/>
      <point x="4" y="755" type="line"/>
      <point x="155" y="590" type="line"/>
    </contour>
  </outline>
</glyph>
<glyph name="e" format="1">
  <advance width="494"/>
  <unicode hex="0065"/>
  <outline>
    <contour>
      <point x="466" y="424"/>
      <point x="392" y="511"/>
      <point x="259" y="511" type="curve" smooth="yes"/>
      <point x="109" y="511"/>
      <point x="26" y="385"/>
      <point x="26" y="245" type="curve" smooth="yes"/>
      <point x="26" y="91"/>
      <point x="120" y="-11"/>
      <point x="276" y="-11" type="curve" smooth="yes"/>
      <point x="331" y="-11"/>
      <point x="409" y="5"/>
      <point x="454" y="42" type="curve"/>
      <point x="403" y="122" type="line"/>
      <point x="373" y="92"/>
      <point x="324" y="69"/>
      <point x="282" y="69" type="curve" smooth="yes"/>
      <point x="194" y="69"/>
      <point x="153" y="158"/>
      <point x="153" y="234" type="curve"/>
      <point x="415" y="234" type="line" smooth="yes"/>
      <point x="455" y="234"/>
      <point x="466" y="259"/>
      <point x="466" y="294" type="curve" smooth="yes"/>
    </contour>
    <contour>
      <point x="341" y="322"/>
      <point x="339" y="313"/>
      <point x="324" y="313" type="curve" smooth="yes"/>
      <point x="156" y="313" type="line"/>
      <point x="159" y="365"/>
      <point x="204" y="429"/>
      <point x="260" y="429" type="curve" smooth="yes"/>
      <point x="315" y="429"/>
      <point x="341" y="386"/>
      <point x="341" y="335" type="curve" smooth="yes"/>
    </contour>
  </outline>
</glyph>
<glyph name="f" format="1">
  <advance width="288"/>
  <unicode hex="0066"/>
  <outline>
    <contour>
      <point x="408" y="753" type="line"/>
      <point x="382" y="769"/>
      <point x="339" y="776"/>
      <point x="309" y="776" type="curve" smooth="yes"/>
      <point x="262" y="776"/>
      <point x="208" y="762"/>
      <point x="172" y="730" type="curve" smooth="yes"/>
      <point x="103" y="666"/>
      <point x="105" y="616"/>
      <point x="87" y="532" type="curve" smooth="yes"/>
      <point x="78" y="490"/>
      <point x="31" y="488"/>
      <point x="3" y="488" type="curve"/>
      <point x="3" y="417" type="line"/>
      <point x="85" y="417" type="line"/>
      <point x="85" y="-1" type="line"/>
      <point x="205" y="-1" type="line"/>
      <point x="205" y="417" type="line"/>
      <point x="304" y="417" type="line"/>
      <point x="327" y="497" type="line"/>
      <point x="205" y="497" type="line"/>
      <point x="205" y="511" type="line" smooth="yes"/>
      <point x="205" y="587"/>
      <point x="212" y="694"/>
      <point x="314" y="694" type="curve" smooth="yes"/>
      <point x="334" y="694"/>
      <point x="359" y="684"/>
      <point x="376" y="672" type="curve"/>
    </contour>
  </outline>
</glyph>
<glyph name="g" format="1">
  <advance width="477"/>
  <unicode hex="0067"/>
  <outline>
    <contour>
      <point x="248" y="91" type="line" smooth="yes"/>
      <point x="210" y="91"/>
      <point x="166" y="94"/>
      <point x="166" y="123" type="curve" smooth="yes"/>
      <point x="166" y="149"/>
      <point x="189" y="168"/>
      <point x="213" y="168" type="curve" smooth="yes"/>
      <point x="315" y="168"/>
      <point x="405" y="236"/>
      <point x="405" y="341" type="curve" smooth="yes"/>
      <point x="405" y="375"/>
      <point x="394" y="403"/>
      <point x="373" y="430" type="curve"/>
      <point x="380" y="428"/>
      <point x="389" y="425"/>
      <point x="396" y="425" type="curve" smooth="yes"/>
      <point x="481" y="425" type="line"/>
      <point x="503" y="508" type="line"/>
      <point x="445" y="503"/>
      <point x="384" y="497"/>
      <point x="325" y="497" type="curve" smooth="yes"/>
      <point x="289" y="497"/>
      <point x="260" y="512"/>
      <point x="218" y="512" type="curve" smooth="yes"/>
      <point x="117" y="512"/>
      <point x="29" y="444"/>
      <point x="29" y="340" type="curve" smooth="yes"/>
      <point x="29" y="275"/>
      <point x="63" y="224"/>
      <point x="118" y="193" type="curve"/>
      <point x="80" y="129"/>
      <point x="42" y="114"/>
      <point x="42" y="95" type="curve" smooth="yes"/>
      <point x="42" y="64"/>
      <point x="65" y="33"/>
      <point x="88" y="27" type="curve"/>
      <point x="88" y="23" type="line"/>
      <point x="41" y="2"/>
      <point x="0" y="-46"/>
      <point x="0" y="-105" type="curve" smooth="yes"/>
      <point x="0" y="-208"/>
      <point x="120" y="-230"/>
      <point x="200" y="-230" type="curve" smooth="yes"/>
      <point x="324" y="-230"/>
      <point x="473" y="-167"/>
      <point x="473" y="-23" type="curve" smooth="yes"/>
      <point x="473" y="84"/>
      <point x="377" y="91"/>
      <point x="294" y="91" type="curve" smooth="yes"/>
    </contour>
    <contour>
      <point x="262" y="0" type="line" smooth="yes"/>
      <point x="298" y="0"/>
      <point x="359" y="-2"/>
      <point x="359" y="-50" type="curve" smooth="yes"/>
      <point x="359" y="-128"/>
      <point x="277" y="-144"/>
      <point x="215" y="-144" type="curve" smooth="yes"/>
      <point x="177" y="-144"/>
      <point x="122" y="-129"/>
      <point x="122" y="-82" type="curve" smooth="yes"/>
      <point x="122" y="-50"/>
      <point x="144" y="-15"/>
      <point x="171" y="0" type="curve"/>
    </contour>
    <contour>
      <point x="177" y="238"/>
      <point x="154" y="282"/>
      <point x="154" y="337" type="curve" smooth="yes"/>
      <point x="154" y="392"/>
      <point x="177" y="437"/>
      <point x="217" y="437" type="curve" smooth="yes"/>
      <point x="257" y="437"/>
      <point x="281" y="392"/>
      <point x="281" y="337" type="curve" smooth="yes"/>
      <point x="281" y="282"/>
      <point x="257" y="238"/>
      <point x="217" y="238" type="curve" smooth="yes"/>
    </contour>
  </outline>
</glyph>
<glyph name="h" format="1">
  <advance width="547"/>
  <unicode hex="0068"/>
  <outline>
    <contour>
      <point x="481" y="0" type="line"/>
      <point x="481" y="336" type="line" smooth="yes"/>
      <point x="481" y="440"/>
      <point x="448" y="511"/>
      <point x="333" y="511" type="curve" smooth="yes"/>
      <point x="281" y="511"/>
      <point x="228" y="482"/>
      <point x="189" y="450" type="curve"/>
      <point x="189" y="769" type="line"/>
      <point x="58" y="769" type="line"/>
      <point x="70" y="715" type="line"/>
      <point x="70" y="0" type="line"/>
      <point x="189" y="0" type="line"/>
      <point x="189" y="361" type="line"/>
      <point x="210" y="384"/>
      <point x="267" y="416"/>
      <point x="297" y="416" type="curve" smooth="yes"/>
      <point x="355" y="416"/>
      <point x="360" y="370"/>
      <point x="360" y="324" type="curve" smooth="yes"/>
      <point x="360" y="0" type="line"/>
    </contour>
  </outline>
</glyph>
<glyph name="i" format="1">
  <advance width="251"/>
  <unicode hex="0069"/>
  <outline>
    <contour>
      <point x="202" y="720"/>
      <point x="168" y="754"/>
      <point x="126" y="754" type="curve" smooth="yes"/>
      <point x="84" y="754"/>
      <point x="49" y="720"/>
      <point x="49" y="678" type="curve" smooth="yes"/>
      <point x="49" y="636"/>
      <point x="84" y="601"/>
      <point x="126" y="601" type="curve" smooth="yes"/>
      <point x="168" y="601"/>
      <point x="202" y="636"/>
      <point x="202" y="678" type="curve" smooth="yes"/>
    </contour>
    <contour>
      <point x="185" y="0" type="line"/>
      <point x="185" y="497" type="line"/>
      <point x="54" y="497" type="line"/>
      <point x="55" y="492"/>
      <point x="65" y="445"/>
      <point x="65" y="443" type="curve" smooth="yes"/>
      <point x="65" y="0" type="line"/>
    </contour>
  </outline>
</glyph>
<glyph name="j" format="1">
  <advance width="251"/>
  <unicode hex="006A"/>
  <outline>
    <contour>
      <point x="201" y="720"/>
      <point x="167" y="754"/>
      <point x="125" y="754" type="curve" smooth="yes"/>
      <point x="83" y="754"/>
      <point x="48" y="720"/>
      <point x="48" y="678" type="curve" smooth="yes"/>
      <point x="48" y="636"/>
      <point x="83" y="601"/>
      <point x="125" y="601" type="curve" smooth="yes"/>
      <point x="167" y="601"/>
      <point x="201" y="636"/>
      <point x="201" y="678" type="curve" smooth="yes"/>
    </contour>
    <contour>
      <point x="185" y="497" type="line"/>
      <point x="53" y="497" type="line"/>
      <point x="54" y="492"/>
      <point x="65" y="446"/>
      <point x="65" y="444" type="curve" smooth="yes"/>
      <point x="65" y="40" type="line" smooth="yes"/>
      <point x="65" y="-36"/>
      <point x="65" y="-128"/>
      <point x="-11" y="-169" type="curve"/>
      <point x="11" y="-224" type="line"/>
      <point x="166" y="-206"/>
      <point x="185" y="-63"/>
      <point x="185" y="66" type="curve"/>
    </contour>
  </outline>
</glyph>
<glyph name="k" format="1">
  <advance width="464"/>
  <unicode hex="006B"/>
  <outline>
    <contour>
      <point x="491" y="0" type="line"/>
      <point x="301" y="287" type="line"/>
      <point x="462" y="497" type="line"/>
      <point x="345" y="497" type="line"/>
      <point x="191" y="292" type="line"/>
      <point x="191" y="769" type="line"/>
      <point x="55" y="769" type="line"/>
      <point x="68" y="715" type="line"/>
      <point x="68" y="0" type="line"/>
      <point x="191" y="0" type="line"/>
      <point x="191" y="255" type="line"/>
      <point x="356" y="0" type="line"/>
    </contour>
  </outline>
</glyph>
<glyph name="l" format="1">
  <advance width="251"/>
  <unicode hex="006C"/>
  <outline>
    <contour>
      <point x="185" y="0" type="line"/>
      <point x="185" y="769" type="line"/>
      <point x="52" y="769" type="line"/>
      <point x="53" y="764"/>
      <point x="63" y="717"/>
      <point x="63" y="715" type="curve" smooth="yes"/>
      <point x="63" y="0" type="line"/>
    </contour>
  </outline>
</glyph>
<glyph name="o" format="1">
  <advance width="536"/>
  <unicode hex="006F"/>
  <outline>
    <contour>
      <point x="510" y="393"/>
      <point x="419" y="510"/>
      <point x="268" y="510" type="curve" smooth="yes"/>
      <point x="119" y="510"/>
      <point x="26" y="392"/>
      <point x="26" y="249" type="curve" smooth="yes"/>
      <point x="26" y="105"/>
      <point x="117" y="-12"/>
      <point x="268" y="-12" type="curve" smooth="yes"/>
      <point x="419" y="-12"/>
      <point x="510" y="105"/>
      <point x="510" y="249" type="curve" smooth="yes"/>
    </contour>
    <contour>
      <point x="378" y="175"/>
      <point x="362" y="68"/>
      <point x="268" y="68" type="curve" smooth="yes"/>
      <point x="177" y="68"/>
      <point x="158" y="178"/>
      <point x="158" y="248" type="curve" smooth="yes"/>
      <point x="158" y="318"/>
      <point x="177" y="428"/>
      <point x="268" y="428" type="curve" smooth="yes"/>
      <point x="362" y="428"/>
      <point x="378" y="321"/>
      <point x="378" y="248" type="curve" smooth="yes"/>
    </contour>
  </outline>
</glyph>
<glyph name="r" format="1">
  <advance width="349"/>
  <unicode hex="0072"/>
  <outline>
    <contour>
      <point x="352" y="507" type="line"/>
      <point x="285" y="507"/>
      <point x="220" y="458"/>
      <point x="187" y="402" type="curve"/>
      <point x="186" y="436"/>
      <point x="177" y="476"/>
      <point x="163" y="507" type="curve"/>
      <point x="36" y="497" type="line"/>
      <point x="60" y="465"/>
      <point x="68" y="401"/>
      <point x="68" y="363" type="curve" smooth="yes"/>
      <point x="68" y="0" type="line"/>
      <point x="188" y="0" type="line"/>
      <point x="188" y="296" type="line"/>
      <point x="223" y="345"/>
      <point x="264" y="388"/>
      <point x="328" y="388" type="curve"/>
      <point x="332" y="388" type="line"/>
    </contour>
  </outline>
</glyph>
<glyph name="s" format="1">
  <advance width="430"/>
  <unicode hex="0073"/>
  <outline>
    <contour>
      <point x="393" y="327"/>
      <point x="174" y="284"/>
      <point x="174" y="376" type="curve" smooth="yes"/>
      <point x="174" y="414"/>
      <point x="209" y="429"/>
      <point x="242" y="429" type="curve" smooth="yes"/>
      <point x="276" y="429"/>
      <point x="314" y="416"/>
      <point x="341" y="395" type="curve"/>
      <point x="383" y="479" type="line"/>
      <point x="341" y="500"/>
      <point x="282" y="510"/>
      <point x="236" y="510" type="curve" smooth="yes"/>
      <point x="142" y="510"/>
      <point x="44" y="460"/>
      <point x="44" y="354" type="curve" smooth="yes"/>
      <point x="44" y="190"/>
      <point x="263" y="236"/>
      <point x="263" y="135" type="curve" smooth="yes"/>
      <point x="263" y="91"/>
      <point x="228" y="71"/>
      <point x="188" y="71" type="curve" smooth="yes"/>
      <point x="147" y="71"/>
      <point x="109" y="91"/>
      <point x="75" y="111" type="curve"/>
      <point x="32" y="29" type="line"/>
      <point x="79" y="3"/>
      <point x="145" y="-14"/>
      <point x="198" y="-14" type="curve" smooth="yes"/>
      <point x="297" y="-14"/>
      <point x="393" y="48"/>
      <point x="393" y="155" type="curve" smooth="yes"/>
    </contour>
  </outline>
</glyph>
<glyph name="u" format="1">
  <advance width="553"/>
  <unicode hex="0075"/>
  <outline>
    <contour>
      <point x="553" y="92" type="line"/>
      <point x="538" y="88"/>
      <point x="521" y="80"/>
      <point x="506" y="80" type="curve" smooth="yes"/>
      <point x="481" y="80"/>
      <point x="481" y="115"/>
      <point x="481" y="132" type="curve" smooth="yes"/>
      <point x="481" y="497" type="line"/>
      <point x="347" y="497" type="line"/>
      <point x="348" y="492"/>
      <point x="359" y="445"/>
      <point x="359" y="443" type="curve" smooth="yes"/>
      <point x="359" y="179" type="line" smooth="yes"/>
      <point x="359" y="120"/>
      <point x="309" y="82"/>
      <point x="253" y="82" type="curve" smooth="yes"/>
      <point x="195" y="82"/>
      <point x="188" y="136"/>
      <point x="188" y="182" type="curve" smooth="yes"/>
      <point x="188" y="497" type="line"/>
      <point x="55" y="497" type="line"/>
      <point x="66" y="443" type="line"/>
      <point x="66" y="161" type="line" smooth="yes"/>
      <point x="66" y="57"/>
      <point x="100" y="-14"/>
      <point x="215" y="-14" type="curve" smooth="yes"/>
      <point x="277" y="-14"/>
      <point x="336" y="15"/>
      <point x="379" y="59" type="curve"/>
      <point x="387" y="20"/>
      <point x="416" y="-8"/>
      <point x="457" y="-8" type="curve" smooth="yes"/>
      <point x="495" y="-8"/>
      <point x="537" y="9"/>
      <point x="574" y="19" type="curve"/>
    </contour>
  </outline>
</glyph>
<glyph name="x" format="1">
  <advance width="446"/>
  <unicode hex="0078"/>
  <outline>
    <contour>
      <point x="460" y="0" type="line"/>
      <point x="286" y="274" type="line"/>
      <point x="435" y="497" type="line"/>
      <point x="316" y="497" type="line"/>
      <point x="229" y="364" type="line"/>
      <point x="143" y="497" type="line"/>
      <point x="8" y="497" type="line"/>
      <point x="160" y="261" type="line"/>
      <point x="-14" y="0" type="line"/>
      <point x="104" y="0" type="line"/>
      <point x="217" y="170" type="line"/>
      <point x="326" y="0" type="line"/>
    </contour>
  </outline>
</glyph>
<glyph name="z" format="1">
  <advance width="445"/>
  <unicode hex="007A"/>
  <outline>
    <contour>
      <point x="428" y="83" type="line"/>
      <point x="177" y="83" type="line"/>
      <point x="414" y="435" type="line"/>
      <point x="414" y="497" type="line"/>
      <point x="42" y="497" type="line"/>
      <point x="42" y="414" type="line"/>
      <point x="251" y="414" type="line"/>
      <point x="17" y="61" type="line"/>
      <point x="17" y="0" type="line"/>
      <point x="414" y="0" type="line"/>
    </contour>
  </outline>
</glyph>
<glyph name="braceleft" format="1">
  <advance width="349"/>
  <unicode hex="007B"/>
  <outline>
    <contour>
      <point x="322" y="-147" type="line"/>
      <point x="322" y="-84" type="line"/>
      <point x="249" y="-84"/>
      <point x="233" y="-74"/>
      <point x="233" y="0" type="curve" smooth="yes"/>
      <point x="233" y="166" type="line" smooth="yes"/>
      <point x="233" y="214"/>
      <point x="226" y="271"/>
      <point x="179" y="296" type="curve"/>
      <point x="226" y="321"/>
      <point x="234" y="379"/>
      <point x="234" y="427" type="curve" smooth="yes"/>
      <point x="234" y="593" type="line" smooth="yes"/>
      <point x="234" y="661"/>
      <point x="253" y="677"/>
      <point x="322" y="677" type="curve"/>
      <point x="322" y="739" type="line"/>
      <point x="309" y="739"/>
      <point x="276" y="739"/>
      <point x="263" y="739" type="curve" smooth="yes"/>
      <point x="157" y="739"/>
      <point x="116" y="666"/>
      <point x="116" y="569" type="curve" smooth="yes"/>
      <point x="116" y="416" type="line" smooth="yes"/>
      <point x="116" y="375"/>
      <point x="103" y="327"/>
      <point x="52" y="327" type="curve"/>
      <point x="52" y="266" type="line"/>
      <point x="98" y="266"/>
      <point x="117" y="222"/>
      <point x="117" y="183" type="curve" smooth="yes"/>
      <point x="117" y="24" type="line" smooth="yes"/>
      <point x="117" y="-81"/>
      <point x="163" y="-147"/>
      <point x="276" y="-147" type="curve" smooth="yes"/>
    </contour>
  </outline>
</glyph>
<glyph name="braceright" format="1">
  <advance width="349"/>
  <unicode hex="007D"/>
  <outline>
    <contour>
      <point x="297" y="328" type="line"/>
      <point x="248" y="328"/>
      <point x="232" y="375"/>
      <point x="232" y="416" type="curve" smooth="yes"/>
      <point x="232" y="569" type="line" smooth="yes"/>
      <point x="232" y="666"/>
      <point x="192" y="739"/>
      <point x="86" y="739" type="curve"/>
      <point x="27" y="739" type="line"/>
      <point x="27" y="676" type="line"/>
      <point x="95" y="676"/>
      <point x="116" y="661"/>
      <point x="116" y="593" type="curve" smooth="yes"/>
      <point x="116" y="427" type="line" smooth="yes"/>
      <point x="116" y="379"/>
      <point x="123" y="321"/>
      <point x="170" y="296" type="curve"/>
      <point x="123" y="271"/>
      <point x="115" y="214"/>
      <point x="115" y="166" type="curve" smooth="yes"/>
      <point x="115" y="0" type="line" smooth="yes"/>
      <point x="115" y="-74"/>
      <point x="104" y="-85"/>
      <point x="27" y="-85" type="curve"/>
      <point x="27" y="-147" type="line"/>
      <point x="73" y="-147" type="line" smooth="yes"/>
      <point x="186" y="-147"/>
      <point x="233" y="-85"/>
      <point x="233" y="24" type="curve" smooth="yes"/>
      <point x="233" y="183" type="line" smooth="yes"/>
      <point x="233" y="223"/>
      <point x="251" y="267"/>
      <point x="297" y="267" type="curve"/>
    </contour>
  </outline>
</glyph>
<glyph name="asciitilde" format="1">
  <advance width="663"/>
  <unicode hex="007E"/>
  <outline>
    <contour>
      <point x="528" y="357" type="line"/>
      <point x="510" y="325"/>
      <point x="479" y="284"/>
      <point x="439" y="284" type="curve" smooth="yes"/>
      <point x="384" y="284"/>
      <point x="312" y="354"/>
      <point x="223" y="354" type="curve" smooth="yes"/>
      <point x="159" y="354"/>
      <point x="102" y="299"/>
      <point x="77" y="244" type="curve"/>
      <point x="142" y="189" type="line"/>
      <point x="157" y="220"/>
      <point x="185" y="264"/>
      <point x="223" y="264" type="curve" smooth="yes"/>
      <point x="297" y="264"/>
      <point x="358" y="194"/>
      <point x="439" y="194" type="curve" smooth="yes"/>
      <point x="499" y="194"/>
      <point x="560" y="252"/>
      <point x="591" y="299" type="curve"/>
    </contour>
  </outline>
</glyph>
<glyph name="exclamdown" format="1">
  <advance width="329"/>
  <unicode hex="00A1"/>
  <outline>
    <contour>
      <point x="237" y="579"/>
      <point x="203" y="613"/>
      <point x="163" y="613" type="curve" smooth="yes"/>
      <point x="122" y="613"/>
      <point x="88" y="580"/>
      <point x="88" y="539" type="curve" smooth="yes"/>
      <point x="88" y="498"/>
      <point x="122" y="465"/>
      <point x="163" y="465" type="curve" smooth="yes"/>
      <point x="203" y="465"/>
      <point x="237" y="498"/>
      <point x="237" y="539" type="curve" smooth="yes"/>
    </contour>
    <contour>
      <point x="207" y="382" type="line"/>
      <point x="118" y="382" type="line"/>
      <point x="89" y="-89" type="line" smooth="yes"/>
      <point x="89" y="-114"/>
      <point x="108" y="-124"/>
      <point x="128" y="-124" type="curve" smooth="yes"/>
      <point x="199" y="-124" type="line" smooth="yes"/>
      <point x="220" y="-124"/>
      <point x="237" y="-115"/>
      <point x="237" y="-92" type="curve"/>
    </contour>
  </outline>
</glyph>
<glyph name="cent" format="1">
  <advance width="450"/>
  <unicode hex="00A2"/>
  <outline>
    <contour>
      <point x="391" y="121" type="line"/>
      <point x="360" y="95"/>
      <point x="330" y="72"/>
      <point x="287" y="72" type="curve" smooth="yes"/>
      <point x="190" y="72"/>
      <point x="158" y="169"/>
      <point x="158" y="251" type="curve" smooth="yes"/>
      <point x="158" y="320"/>
      <point x="186" y="425"/>
      <point x="272" y="425" type="curve" smooth="yes"/>
      <point x="314" y="425"/>
      <point x="342" y="410"/>
      <point x="374" y="386" type="curve"/>
      <point x="434" y="462" type="line"/>
      <point x="400" y="486"/>
      <point x="351" y="504"/>
      <point x="310" y="508" type="curve"/>
      <point x="338" y="622" type="line"/>
      <point x="264" y="622" type="line"/>
      <point x="255" y="509" type="line"/>
      <point x="111" y="496"/>
      <point x="26" y="392"/>
      <point x="26" y="249" type="curve" smooth="yes"/>
      <point x="26" y="127"/>
      <point x="79" y="23"/>
      <point x="205" y="-5" type="curve"/>
      <point x="173" y="-128" type="line"/>
      <point x="245" y="-128" type="line"/>
      <point x="256" y="-12" type="line"/>
      <point x="322" y="-12"/>
      <point x="371" y="-3"/>
      <point x="442" y="35" type="curve"/>
    </contour>
  </outline>
</glyph>
<glyph name="sterling" format="1">
  <advance width="581"/>
  <unicode hex="00A3"/>
  <outline>
    <contour>
      <point x="555" y="0" type="line"/>
      <point x="555" y="100" type="line"/>
      <point x="262" y="100" type="line"/>
      <point x="262" y="342" type="line"/>
      <point x="392" y="342" type="line"/>
      <point x="392" y="441" type="line"/>
      <point x="262" y="441" type="line"/>
      <point x="262" y="552" type="line" smooth="yes"/>
      <point x="262" y="606"/>
      <point x="290" y="648"/>
      <point x="347" y="648" type="curve" smooth="yes"/>
      <point x="393" y="648"/>
      <point x="426" y="613"/>
      <point x="446" y="575" type="curve"/>
      <point x="544" y="629" type="line"/>
      <point x="497" y="703"/>
      <point x="437" y="744"/>
      <point x="348" y="744" type="curve" smooth="yes"/>
      <point x="221" y="744"/>
      <point x="127" y="671"/>
      <point x="127" y="538" type="curve" smooth="yes"/>
      <point x="127" y="441" type="line"/>
      <point x="50" y="441" type="line"/>
      <point x="50" y="342" type="line"/>
      <point x="127" y="342" type="line"/>
      <point x="127" y="100" type="line"/>
      <point x="34" y="100" type="line"/>
      <point x="34" y="0" type="line"/>
    </contour>
  </outline>
</glyph>
<glyph name="yen" format="1">
  <advance width="502"/>
  <unicode hex="00A5"/>
  <outline>
    <contour>
      <point x="478" y="497" type="line"/>
      <point x="355" y="497" type="line"/>
      <point x="264" y="332" type="line"/>
      <point x="170" y="497" type="line"/>
      <point x="24" y="497" type="line"/>
      <point x="131" y="320" type="line"/>
      <point x="25" y="320" type="line"/>
      <point x="25" y="271" type="line"/>
      <point x="160" y="271" type="line"/>
      <point x="194" y="216" type="line"/>
      <point x="194" y="211" type="line"/>
      <point x="25" y="211" type="line"/>
      <point x="25" y="162" type="line"/>
      <point x="194" y="162" type="line"/>
      <point x="194" y="0" type="line"/>
      <point x="315" y="0" type="line"/>
      <point x="315" y="162" type="line"/>
      <point x="476" y="162" type="line"/>
      <point x="476" y="211" type="line"/>
      <point x="315" y="211" type="line"/>
      <point x="315" y="216" type="line"/>
      <point x="347" y="271" type="line"/>
      <point x="476" y="271" type="line"/>
      <point x="476" y="320" type="line"/>
      <point x="376" y="320" type="line"/>
    </contour>
  </outline>
</glyph>
<glyph name="section" format="1">
  <advance width="503"/>
  <unicode hex="00A7"/>
  <outline>
    <contour>
      <point x="39" y="-21" type="line"/>
      <point x="63" y="-41"/>
      <point x="134" y="-68"/>
      <point x="203" y="-68" type="curve" smooth="yes"/>
      <point x="318" y="-68"/>
      <point x="423" y="-26"/>
      <point x="423" y="93" type="curve" smooth="yes"/>
      <point x="423" y="131"/>
      <point x="412" y="160"/>
      <point x="394" y="183" type="curve"/>
      <point x="436" y="209"/>
      <point x="474" y="251"/>
      <point x="474" y="317" type="curve" smooth="yes"/>
      <point x="474" y="519"/>
      <point x="204" y="490"/>
      <point x="204" y="590" type="curve" smooth="yes"/>
      <point x="204" y="627"/>
      <point x="245" y="646"/>
      <point x="294" y="646" type="curve" smooth="yes"/>
      <point x="343" y="646"/>
      <point x="388" y="622"/>
      <point x="406" y="608" type="curve"/>
      <point x="464" y="695" type="line"/>
      <point x="440" y="715"/>
      <point x="369" y="742"/>
      <point x="300" y="742" type="curve" smooth="yes"/>
      <point x="185" y="742"/>
      <point x="80" y="700"/>
      <point x="80" y="581" type="curve" smooth="yes"/>
      <point x="80" y="542"/>
      <point x="91" y="513"/>
      <point x="108" y="491" type="curve"/>
      <point x="67" y="465"/>
      <point x="29" y="423"/>
      <point x="29" y="357" type="curve" smooth="yes"/>
      <point x="29" y="155"/>
      <point x="299" y="184"/>
      <point x="299" y="84" type="curve" smooth="yes"/>
      <point x="299" y="47"/>
      <point x="258" y="28"/>
      <point x="209" y="28" type="curve" smooth="yes"/>
      <point x="160" y="28"/>
      <point x="115" y="52"/>
      <point x="97" y="66" type="curve"/>
    </contour>
    <contour>
      <point x="262" y="395"/>
      <point x="351" y="377"/>
      <point x="351" y="298" type="curve" smooth="yes"/>
      <point x="351" y="280"/>
      <point x="341" y="256"/>
      <point x="316" y="241" type="curve"/>
      <point x="240" y="278"/>
      <point x="152" y="297"/>
      <point x="152" y="376" type="curve" smooth="yes"/>
      <point x="152" y="393"/>
      <point x="161" y="417"/>
      <point x="186" y="433" type="curve"/>
    </contour>
  </outline>
</glyph>
<glyph name="copyright" format="1">
  <advance width="635"/>
  <unicode hex="00A9"/>
  <outline>
    <contour>
      <point x="593" y="402"/>
      <point x="468" y="527"/>
      <point x="316" y="527" type="curve" smooth="yes"/>
      <point x="163" y="527"/>
      <point x="39" y="403"/>
      <point x="39" y="250" type="curve" smooth="yes"/>
      <point x="39" y="97"/>
      <point x="163" y="-27"/>
      <point x="316" y="-27" type="curve" smooth="yes"/>
      <point x="468" y="-27"/>
      <point x="593" y="98"/>
      <point x="593" y="250" type="curve" smooth="yes"/>
    </contour>
    <contour>
      <point x="553" y="119"/>
      <point x="447" y="13"/>
      <point x="316" y="13" type="curve" smooth="yes"/>
      <point x="185" y="13"/>
      <point x="79" y="119"/>
      <point x="79" y="250" type="curve" smooth="yes"/>
      <point x="79" y="381"/>
      <point x="185" y="487"/>
      <point x="316" y="487" type="curve" smooth="yes"/>
      <point x="447" y="487"/>
      <point x="553" y="381"/>
      <point x="553" y="250" type="curve" smooth="yes"/>
    </contour>
    <contour>
      <point x="397" y="176" type="line"/>
      <point x="379" y="157"/>
      <point x="358" y="143"/>
      <point x="331" y="143" type="curve" smooth="yes"/>
      <point x="272" y="143"/>
      <point x="254" y="203"/>
      <point x="254" y="251" type="curve" smooth="yes"/>
      <point x="254" y="292"/>
      <point x="270" y="357"/>
      <point x="321" y="357" type="curve" smooth="yes"/>
      <point x="348" y="357"/>
      <point x="366" y="346"/>
      <point x="386" y="330" type="curve"/>
      <point x="430" y="386" type="line"/>
      <point x="403" y="406"/>
      <point x="361" y="421"/>
      <point x="328" y="421" type="curve" smooth="yes"/>
      <point x="227" y="421"/>
      <point x="161" y="351"/>
      <point x="161" y="250" type="curve" smooth="yes"/>
      <point x="161" y="151"/>
      <point x="216" y="80"/>
      <point x="319" y="80" type="curve" smooth="yes"/>
      <point x="367" y="80"/>
      <point x="394" y="91"/>
      <point x="435" y="112" type="curve"/>
    </contour>
  </outline>
</glyph>
<glyph name="ordfeminine" format="1">
  <advance width="315"/>
  <unicode hex="00AA"/>
  <outline>
    <contour>
      <point x="269" y="272" type="line"/>
      <point x="269" y="330" type="line"/>
      <point x="30" y="330" type="line"/>
      <point x="30" y="272" type="line"/>
    </contour>
    <contour>
      <point x="312" y="454" type="line"/>
      <point x="304" y="450"/>
      <point x="293" y="446"/>
      <point x="283" y="446" type="curve" smooth="yes"/>
      <point x="263" y="446"/>
      <point x="262" y="469"/>
      <point x="262" y="480" type="curve" smooth="yes"/>
      <point x="262" y="622" type="line" smooth="yes"/>
      <point x="262" y="699"/>
      <point x="215" y="729"/>
      <point x="144" y="729" type="curve" smooth="yes"/>
      <point x="97" y="729"/>
      <point x="51" y="715"/>
      <point x="11" y="688" type="curve"/>
      <point x="44" y="636" type="line"/>
      <point x="67" y="654"/>
      <point x="102" y="674"/>
      <point x="132" y="674" type="curve" smooth="yes"/>
      <point x="165" y="674"/>
      <point x="185" y="663"/>
      <point x="185" y="628" type="curve" smooth="yes"/>
      <point x="185" y="591" type="line"/>
      <point x="102" y="591"/>
      <point x="-3" y="571"/>
      <point x="-3" y="476" type="curve" smooth="yes"/>
      <point x="-3" y="422"/>
      <point x="38" y="386"/>
      <point x="96" y="386" type="curve" smooth="yes"/>
      <point x="136" y="386"/>
      <point x="168" y="401"/>
      <point x="198" y="432" type="curve"/>
      <point x="204" y="407"/>
      <point x="224" y="388"/>
      <point x="255" y="388" type="curve" smooth="yes"/>
      <point x="280" y="388"/>
      <point x="302" y="395"/>
      <point x="326" y="406" type="curve"/>
    </contour>
    <contour>
      <point x="185" y="516" type="line"/>
      <point x="185" y="478"/>
      <point x="154" y="447"/>
      <point x="117" y="447" type="curve" smooth="yes"/>
      <point x="92" y="447"/>
      <point x="79" y="463"/>
      <point x="79" y="484" type="curve" smooth="yes"/>
      <point x="79" y="533"/>
      <point x="148" y="537"/>
      <point x="185" y="537" type="curve"/>
    </contour>
  </outline>
</glyph>
<glyph name="guillemotleft" format="1">
  <advance width="466"/>
  <unicode hex="00AB"/>
  <outline>
    <contour>
      <point x="437" y="173" type="line"/>
      <point x="314" y="332" type="line"/>
      <point x="434" y="490" type="line"/>
      <point x="356" y="504" type="line"/>
      <point x="204" y="332" type="line"/>
      <point x="360" y="162" type="line"/>
    </contour>
    <contour>
      <point x="268" y="173" type="line"/>
      <point x="146" y="332" type="line"/>
      <point x="265" y="490" type="line"/>
      <point x="188" y="504" type="line"/>
      <point x="36" y="332" type="line"/>
      <point x="192" y="162" type="line"/>
    </contour>
  </outline>
</glyph>
<glyph name="registered" format="1">
  <advance width="459"/>
  <unicode hex="00AE"/>
  <outline>
    <contour>
      <point x="442" y="726"/>
      <point x="347" y="821"/>
      <point x="231" y="821" type="curve" smooth="yes"/>
      <point x="115" y="821"/>
      <point x="21" y="726"/>
      <point x="21" y="610" type="curve" smooth="yes"/>
      <point x="21" y="494"/>
      <point x="115" y="399"/>
      <point x="231" y="399" type="curve" smooth="yes"/>
      <point x="347" y="399"/>
      <point x="442" y="494"/>
      <point x="442" y="610" type="curve" smooth="yes"/>
    </contour>
    <contour>
      <point x="407" y="513"/>
      <point x="328" y="435"/>
      <point x="231" y="435" type="curve" smooth="yes"/>
      <point x="135" y="435"/>
      <point x="56" y="513"/>
      <point x="56" y="610" type="curve" smooth="yes"/>
      <point x="56" y="707"/>
      <point x="135" y="785"/>
      <point x="231" y="785" type="curve" smooth="yes"/>
      <point x="328" y="785"/>
      <point x="407" y="706"/>
      <point x="407" y="610" type="curve" smooth="yes"/>
    </contour>
    <contour>
      <point x="353" y="497" type="line"/>
      <point x="279" y="604" type="line"/>
      <point x="302" y="614"/>
      <point x="322" y="635"/>
      <point x="322" y="663" type="curve" smooth="yes"/>
      <point x="322" y="718"/>
      <point x="282" y="732"/>
      <point x="239" y="732" type="curve" smooth="yes"/>
      <point x="146" y="732" type="line"/>
      <point x="146" y="497" type="line"/>
      <point x="206" y="497" type="line"/>
      <point x="206" y="593" type="line"/>
      <point x="216" y="593" type="line"/>
      <point x="282" y="497" type="line"/>
    </contour>
    <contour>
      <point x="262" y="647"/>
      <point x="249" y="640"/>
      <point x="225" y="640" type="curve" smooth="yes"/>
      <point x="206" y="640" type="line"/>
      <point x="206" y="685" type="line"/>
      <point x="232" y="685" type="line" smooth="yes"/>
      <point x="251" y="685"/>
      <point x="262" y="678"/>
      <point x="262" y="665" type="curve" smooth="yes"/>
    </contour>
  </outline>
</glyph>
<glyph name="macron" format="1">
  <advance width="274"/>
  <unicode hex="00AF"/>
  <outline>
    <contour>
      <point x="284" y="581" type="line"/>
      <point x="284" y="655" type="line"/>
      <point x="-11" y="655" type="line"/>
      <point x="-11" y="581" type="line"/>
    </contour>
  </outline>
</glyph>
<glyph name="degree" format="1">
  <advance width="388"/>
  <unicode hex="00B0"/>
  <outline>
    <contour>
      <point x="340" y="674"/>
      <point x="274" y="738"/>
      <point x="194" y="738" type="curve" smooth="yes"/>
      <point x="114" y="738"/>
      <point x="49" y="673"/>
      <point x="49" y="593" type="curve" smooth="yes"/>
      <point x="49" y="513"/>
      <point x="114" y="448"/>
      <point x="194" y="448" type="curve" smooth="yes"/>
      <point x="275" y="448"/>
      <point x="340" y="512"/>
      <point x="340" y="593" type="curve" smooth="yes"/>
    </contour>
    <contour>
      <point x="273" y="549"/>
      <point x="239" y="512"/>
      <point x="194" y="512" type="curve" smooth="yes"/>
      <point x="149" y="512"/>
      <point x="116" y="549"/>
      <point x="116" y="593" type="curve" smooth="yes"/>
      <point x="116" y="637"/>
      <point x="150" y="674"/>
      <point x="194" y="674" type="curve" smooth="yes"/>
      <point x="238" y="674"/>
      <point x="273" y="637"/>
      <point x="273" y="593" type="curve" smooth="yes"/>
    </contour>
  </outline>
</glyph>
<glyph name="uni00B2" format="1">
  <advance width="455"/>
  <unicode hex="00B2"/>
  <outline>
    <contour>
      <point x="392" y="438" type="line"/>
      <point x="419" y="533" type="line"/>
      <point x="203" y="533" type="line"/>
      <point x="203" y="533"/>
      <point x="402" y="658"/>
      <point x="402" y="804" type="curve" smooth="yes"/>
      <point x="402" y="874"/>
      <point x="352" y="935"/>
      <point x="243" y="935" type="curve" smooth="yes"/>
      <point x="128" y="935"/>
      <point x="53" y="864"/>
      <point x="53" y="864" type="curve"/>
      <point x="97" y="798" type="line"/>
      <point x="97" y="798"/>
      <point x="161" y="856"/>
      <point x="221" y="856" type="curve" smooth="yes"/>
      <point x="258" y="856"/>
      <point x="284" y="832"/>
      <point x="284" y="794" type="curve" smooth="yes"/>
      <point x="284" y="679"/>
      <point x="43" y="489"/>
      <point x="43" y="489" type="curve"/>
      <point x="43" y="438" type="line"/>
    </contour>
  </outline>
</glyph>
<glyph name="uni00B3" format="1">
  <advance width="455"/>
  <unicode hex="00B3"/>
  <outline>
    <contour>
      <point x="63" y="425" type="line"/>
      <point x="354" y="436"/>
      <point x="406" y="556"/>
      <point x="406" y="622" type="curve" smooth="yes"/>
      <point x="406" y="691"/>
      <point x="362" y="727"/>
      <point x="299" y="738" type="curve"/>
      <point x="350" y="756"/>
      <point x="384" y="790"/>
      <point x="384" y="841" type="curve" smooth="yes"/>
      <point x="384" y="915"/>
      <point x="309" y="935"/>
      <point x="242" y="935" type="curve" smooth="yes"/>
      <point x="178" y="935"/>
      <point x="101" y="905"/>
      <point x="53" y="867" type="curve"/>
      <point x="96" y="806" type="line"/>
      <point x="128" y="832"/>
      <point x="181" y="856"/>
      <point x="226" y="856" type="curve" smooth="yes"/>
      <point x="252" y="856"/>
      <point x="275" y="843"/>
      <point x="275" y="821" type="curve" smooth="yes"/>
      <point x="275" y="760"/>
      <point x="197" y="739"/>
      <point x="143" y="728" type="curve"/>
      <point x="154" y="670" type="line"/>
      <point x="154" y="670"/>
      <point x="169" y="672"/>
      <point x="189" y="672" type="curve" smooth="yes"/>
      <point x="229" y="672"/>
      <point x="292" y="668"/>
      <point x="292" y="613" type="curve" smooth="yes"/>
      <point x="292" y="548"/>
      <point x="207" y="502"/>
      <point x="48" y="494" type="curve"/>
    </contour>
  </outline>
</glyph>
<glyph name="acute" format="1">
  <advance width="281"/>
  <unicode hex="00B4"/>
  <outline>
    <contour>
      <point x="287" y="755" type="line"/>
      <point x="142" y="755" type="line"/>
      <point x="33" y="590" type="line"/>
      <point x="136" y="590" type="line"/>
    </contour>
  </outline>
</glyph>
<glyph name="cedilla" format="1">
  <advance width="280"/>
  <unicode hex="00B8"/>
  <outline>
    <contour>
      <point x="175" y="-220"/>
      <point x="252" y="-205"/>
      <point x="252" y="-126" type="curve" smooth="yes"/>
      <point x="252" y="-65"/>
      <point x="194" y="-48"/>
      <point x="142" y="-48" type="curve" smooth="yes"/>
      <point x="138" y="-48" type="line"/>
      <point x="170" y="9" type="line"/>
      <point x="111" y="9" type="line"/>
      <point x="63" y="-73" type="line" smooth="yes"/>
      <point x="61" y="-76"/>
      <point x="60" y="-79"/>
      <point x="60" y="-83" type="curve" smooth="yes"/>
      <point x="60" y="-91"/>
      <point x="65" y="-100"/>
      <point x="79" y="-100" type="curve" smooth="yes"/>
      <point x="126" y="-100" type="line" smooth="yes"/>
      <point x="146" y="-100"/>
      <point x="159" y="-111"/>
      <point x="159" y="-129" type="curve" smooth="yes"/>
      <point x="159" y="-148"/>
      <point x="141" y="-162"/>
      <point x="120" y="-162" type="curve" smooth="yes"/>
      <point x="104" y="-162"/>
      <point x="79" y="-154"/>
      <point x="53" y="-140" type="curve"/>
      <point x="25" y="-190" type="line"/>
      <point x="57" y="-209"/>
      <point x="89" y="-220"/>
      <point x="117" y="-220" type="curve" smooth="yes"/>
    </contour>
  </outline>
</glyph>
<glyph name="uni00B9" format="1">
  <advance width="455"/>
  <unicode hex="00B9"/>
  <outline>
    <contour>
      <point x="416" y="438" type="line"/>
      <point x="416" y="517" type="line"/>
      <point x="309" y="517" type="line"/>
      <point x="309" y="924" type="line"/>
      <point x="224" y="924" type="line"/>
      <point x="137" y="883"/>
      <point x="45" y="855"/>
      <point x="45" y="855" type="curve"/>
      <point x="70" y="785" type="line"/>
      <point x="195" y="820" type="line"/>
      <point x="195" y="517" type="line"/>
      <point x="62" y="517" type="line"/>
      <point x="62" y="438" type="line"/>
    </contour>
  </outline>
</glyph>
<glyph name="ordmasculine" format="1">
  <advance width="332"/>
  <unicode hex="00BA"/>
  <outline>
    <contour>
      <point x="333" y="660"/>
      <point x="273" y="735"/>
      <point x="169" y="735" type="curve" smooth="yes"/>
      <point x="65" y="735"/>
      <point x="4" y="660"/>
      <point x="4" y="560" type="curve" smooth="yes"/>
      <point x="4" y="460"/>
      <point x="64" y="386"/>
      <point x="168" y="386" type="curve" smooth="yes"/>
      <point x="272" y="386"/>
      <point x="333" y="460"/>
      <point x="333" y="560" type="curve" smooth="yes"/>
    </contour>
    <contour>
      <point x="287" y="272" type="line"/>
      <point x="287" y="330" type="line"/>
      <point x="48" y="330" type="line"/>
      <point x="48" y="272" type="line"/>
    </contour>
    <contour>
      <point x="244" y="511"/>
      <point x="232" y="441"/>
      <point x="169" y="441" type="curve" smooth="yes"/>
      <point x="106" y="441"/>
      <point x="93" y="510"/>
      <point x="93" y="560" type="curve" smooth="yes"/>
      <point x="93" y="609"/>
      <point x="105" y="680"/>
      <point x="168" y="680" type="curve" smooth="yes"/>
      <point x="231" y="680"/>
      <point x="244" y="609"/>
      <point x="244" y="560" type="curve" smooth="yes"/>
    </contour>
  </outline>
</glyph>
<glyph name="guillemotright" format="1">
  <advance width="466"/>
  <unicode hex="00BB"/>
  <outline>
    <contour>
      <point x="437" y="332" type="line"/>
      <point x="285" y="504" type="line"/>
      <point x="208" y="490" type="line"/>
      <point x="327" y="332" type="line"/>
      <point x="205" y="173" type="line"/>
      <point x="281" y="162" type="line"/>
    </contour>
    <contour>
      <point x="269" y="332" type="line"/>
      <point x="117" y="504" type="line"/>
      <point x="39" y="490" type="line"/>
      <point x="159" y="332" type="line"/>
      <point x="36" y="173" type="line"/>
      <point x="113" y="162" type="line"/>
    </contour>
  </outline>
</glyph>
<glyph name="onequarter" format="1">
  <advance width="1049"/>
  <unicode hex="00BC"/>
  <outline>
    <contour>
      <point x="447" y="-27" type="line"/>
      <point x="759" y="753" type="line"/>
      <point x="675" y="753" type="line"/>
      <point x="364" y="-27" type="line"/>
    </contour>
    <contour>
      <point x="416" y="246" type="line"/>
      <point x="416" y="325" type="line"/>
      <point x="309" y="325" type="line"/>
      <point x="309" y="732" type="line"/>
      <point x="224" y="732" type="line"/>
      <point x="137" y="691"/>
      <point x="45" y="663"/>
      <point x="45" y="663" type="curve"/>
      <point x="70" y="593" type="line"/>
      <point x="195" y="628" type="line"/>
      <point x="195" y="325" type="line"/>
      <point x="62" y="325" type="line"/>
      <point x="62" y="246" type="line"/>
    </contour>
    <contour>
      <point x="949" y="0" type="line"/>
      <point x="949" y="101" type="line"/>
      <point x="996" y="101" type="line"/>
      <point x="1021" y="180" type="line"/>
      <point x="949" y="180" type="line"/>
      <point x="949" y="486" type="line"/>
      <point x="836" y="486" type="line"/>
      <point x="610" y="153" type="line"/>
      <point x="610" y="101" type="line"/>
      <point x="835" y="101" type="line"/>
      <point x="835" y="0" type="line"/>
    </contour>
    <contour>
      <point x="835" y="180" type="line"/>
      <point x="725" y="180" type="line"/>
      <point x="793" y="283" type="line" smooth="yes"/>
      <point x="823" y="328"/>
      <point x="831" y="347"/>
      <point x="843" y="386" type="curve"/>
      <point x="843" y="386"/>
      <point x="835" y="317"/>
      <point x="835" y="297" type="curve" smooth="yes"/>
    </contour>
  </outline>
</glyph>
<glyph name="onehalf" format="1">
  <advance width="1097"/>
  <unicode hex="00BD"/>
  <outline>
    <contour>
      <point x="1033" y="0" type="line"/>
      <point x="1061" y="106" type="line"/>
      <point x="869" y="106" type="line"/>
      <point x="946" y="160"/>
      <point x="1052" y="262"/>
      <point x="1052" y="363" type="curve" smooth="yes"/>
      <point x="1052" y="460"/>
      <point x="974" y="497"/>
      <point x="889" y="497" type="curve" smooth="yes"/>
      <point x="815" y="497"/>
      <point x="752" y="469"/>
      <point x="696" y="426" type="curve"/>
      <point x="740" y="357" type="line"/>
      <point x="771" y="381"/>
      <point x="823" y="409"/>
      <point x="863" y="409" type="curve" smooth="yes"/>
      <point x="897" y="409"/>
      <point x="926" y="388"/>
      <point x="926" y="352" type="curve" smooth="yes"/>
      <point x="926" y="269"/>
      <point x="765" y="123"/>
      <point x="695" y="60" type="curve" smooth="yes"/>
      <point x="686" y="52" type="line"/>
      <point x="686" y="0" type="line"/>
    </contour>
    <contour>
      <point x="447" y="-27" type="line"/>
      <point x="759" y="753" type="line"/>
      <point x="675" y="753" type="line"/>
      <point x="364" y="-27" type="line"/>
    </contour>
    <contour>
      <point x="416" y="246" type="line"/>
      <point x="416" y="325" type="line"/>
      <point x="309" y="325" type="line"/>
      <point x="309" y="732" type="line"/>
      <point x="224" y="732" type="line"/>
      <point x="137" y="691"/>
      <point x="45" y="663"/>
      <point x="45" y="663" type="curve"/>
      <point x="70" y="593" type="line"/>
      <point x="195" y="628" type="line"/>
      <point x="195" y="325" type="line"/>
      <point x="62" y="325" type="line"/>
      <point x="62" y="246" type="line"/>
    </contour>
  </outline>
</glyph>
<glyph name="threequarters" format="1">
  <advance width="1004"/>
  <unicode hex="00BE"/>
  <outline>
    <contour>
      <point x="402" y="-27" type="line"/>
      <point x="714" y="753" type="line"/>
      <point x="630" y="753" type="line"/>
      <point x="319" y="-27" type="line"/>
    </contour>
    <contour>
      <point x="904" y="0" type="line"/>
      <point x="904" y="101" type="line"/>
      <point x="951" y="101" type="line"/>
      <point x="976" y="180" type="line"/>
      <point x="904" y="180" type="line"/>
      <point x="904" y="486" type="line"/>
      <point x="791" y="486" type="line"/>
      <point x="565" y="153" type="line"/>
      <point x="565" y="101" type="line"/>
      <point x="790" y="101" type="line"/>
      <point x="790" y="0" type="line"/>
    </contour>
    <contour>
      <point x="790" y="180" type="line"/>
      <point x="680" y="180" type="line"/>
      <point x="748" y="283" type="line" smooth="yes"/>
      <point x="778" y="328"/>
      <point x="786" y="347"/>
      <point x="798" y="386" type="curve"/>
      <point x="798" y="386"/>
      <point x="790" y="317"/>
      <point x="790" y="297" type="curve" smooth="yes"/>
    </contour>
    <contour>
      <point x="63" y="233" type="line"/>
      <point x="354" y="244"/>
      <point x="406" y="364"/>
      <point x="406" y="430" type="curve" smooth="yes"/>
      <point x="406" y="499"/>
      <point x="362" y="535"/>
      <point x="299" y="546" type="curve"/>
      <point x="350" y="564"/>
      <point x="384" y="598"/>
      <point x="384" y="649" type="curve" smooth="yes"/>
      <point x="384" y="723"/>
      <point x="309" y="743"/>
      <point x="242" y="743" type="curve" smooth="yes"/>
      <point x="178" y="743"/>
      <point x="101" y="713"/>
      <point x="53" y="675" type="curve"/>
      <point x="96" y="614" type="line"/>
      <point x="128" y="640"/>
      <point x="181" y="664"/>
      <point x="226" y="664" type="curve" smooth="yes"/>
      <point x="252" y="664"/>
      <point x="275" y="651"/>
      <point x="275" y="629" type="curve" smooth="yes"/>
      <point x="275" y="568"/>
      <point x="197" y="547"/>
      <point x="143" y="536" type="curve"/>
      <point x="154" y="478" type="line"/>
      <point x="154" y="478"/>
      <point x="169" y="480"/>
      <point x="189" y="480" type="curve" smooth="yes"/>
      <point x="229" y="480"/>
      <point x="292" y="476"/>
      <point x="292" y="421" type="curve" smooth="yes"/>
      <point x="292" y="356"/>
      <point x="207" y="310"/>
      <point x="48" y="302" type="curve"/>
    </contour>
  </outline>
</glyph>
<glyph name="questiondown" format="1">
  <advance width="431"/>
  <unicode hex="00BF"/>
  <outline>
    <contour>
      <point x="322" y="578"/>
      <point x="287" y="612"/>
      <point x="245" y="612" type="curve" smooth="yes"/>
      <point x="202" y="612"/>
      <point x="167" y="578"/>
      <point x="167" y="535" type="curve" smooth="yes"/>
      <point x="167" y="492"/>
      <point x="202" y="458"/>
      <point x="245" y="458" type="curve" smooth="yes"/>
      <point x="287" y="458"/>
      <point x="322" y="492"/>
      <point x="322" y="535" type="curve" smooth="yes"/>
    </contour>
    <contour>
      <point x="363" y="10" type="line"/>
      <point x="332" y="-11"/>
      <point x="296" y="-25"/>
      <point x="259" y="-25" type="curve" smooth="yes"/>
      <point x="206" y="-25"/>
      <point x="155" y="7"/>
      <point x="155" y="64" type="curve" smooth="yes"/>
      <point x="155" y="135"/>
      <point x="237" y="173"/>
      <point x="298" y="178" type="curve"/>
      <point x="298" y="383" type="line"/>
      <point x="191" y="383" type="line"/>
      <point x="191" y="264" type="line" smooth="yes"/>
      <point x="191" y="252"/>
      <point x="189" y="247"/>
      <point x="178" y="243" type="curve" smooth="yes"/>
      <point x="95" y="210"/>
      <point x="26" y="159"/>
      <point x="26" y="56" type="curve" smooth="yes"/>
      <point x="26" y="-65"/>
      <point x="138" y="-122"/>
      <point x="246" y="-122" type="curve" smooth="yes"/>
      <point x="303" y="-122"/>
      <point x="361" y="-109"/>
      <point x="409" y="-78" type="curve"/>
    </contour>
  </outline>
</glyph>
<glyph name="Agrave" format="1">
  <advance width="631"/>
  <unicode hex="00C0"/>
  <outline>
    <contour>
      <point x="629" y="0" type="line"/>
      <point x="370" y="680" type="line"/>
      <point x="259" y="680" type="line"/>
      <point x="2" y="0" type="line"/>
      <point x="118" y="0" type="line"/>
      <point x="190" y="190" type="line"/>
      <point x="414" y="190" type="line"/>
      <point x="485" y="0" type="line"/>
    </contour>
    <contour>
      <point x="227" y="288" type="line"/>
      <point x="254" y="372"/>
      <point x="279" y="454"/>
      <point x="302" y="539" type="curve"/>
      <point x="325" y="455"/>
      <point x="348" y="371"/>
      <point x="376" y="288" type="curve"/>
    </contour>
    <contour>
      <point x="383" y="717" type="line"/>
      <point x="274" y="882" type="line"/>
      <point x="128" y="882" type="line"/>
      <point x="279" y="717" type="line"/>
    </contour>
  </outline>
</glyph>
<glyph name="Aacute" format="1">
  <advance width="631"/>
  <unicode hex="00C1"/>
  <outline>
    <contour>
      <point x="629" y="0" type="line"/>
      <point x="370" y="680" type="line"/>
      <point x="259" y="680" type="line"/>
      <point x="2" y="0" type="line"/>
      <point x="118" y="0" type="line"/>
      <point x="190" y="190" type="line"/>
      <point x="414" y="190" type="line"/>
      <point x="485" y="0" type="line"/>
    </contour>
    <contour>
      <point x="227" y="288" type="line"/>
      <point x="254" y="372"/>
      <point x="279" y="454"/>
      <point x="302" y="539" type="curve"/>
      <point x="325" y="455"/>
      <point x="348" y="371"/>
      <point x="376" y="288" type="curve"/>
    </contour>
    <contour>
      <point x="499" y="881" type="line"/>
      <point x="353" y="881" type="line"/>
      <point x="244" y="717" type="line"/>
      <point x="348" y="717" type="line"/>
    </contour>
  </outline>
</glyph>
<glyph name="Acircumflex" format="1">
  <advance width="631"/>
  <unicode hex="00C2"/>
  <outline>
    <contour>
      <point x="629" y="0" type="line"/>
      <point x="370" y="680" type="line"/>
      <point x="259" y="680" type="line"/>
      <point x="2" y="0" type="line"/>
      <point x="118" y="0" type="line"/>
      <point x="190" y="190" type="line"/>
      <point x="414" y="190" type="line"/>
      <point x="485" y="0" type="line"/>
    </contour>
    <contour>
      <point x="227" y="288" type="line"/>
      <point x="254" y="372"/>
      <point x="279" y="454"/>
      <point x="302" y="539" type="curve"/>
      <point x="325" y="455"/>
      <point x="348" y="371"/>
      <point x="376" y="288" type="curve"/>
    </contour>
    <contour>
      <point x="460" y="713" type="line"/>
      <point x="361" y="858" type="line"/>
      <point x="263" y="858" type="line"/>
      <point x="167" y="714" type="line"/>
      <point x="243" y="714" type="line"/>
      <point x="312" y="787" type="line"/>
      <point x="382" y="713" type="line"/>
    </contour>
  </outline>
</glyph>
<glyph name="Atilde" format="1">
  <advance width="631"/>
  <unicode hex="00C3"/>
  <outline>
    <contour>
      <point x="629" y="0" type="line"/>
      <point x="370" y="680" type="line"/>
      <point x="259" y="680" type="line"/>
      <point x="2" y="0" type="line"/>
      <point x="118" y="0" type="line"/>
      <point x="190" y="190" type="line"/>
      <point x="414" y="190" type="line"/>
      <point x="485" y="0" type="line"/>
    </contour>
    <contour>
      <point x="227" y="288" type="line"/>
      <point x="254" y="372"/>
      <point x="279" y="454"/>
      <point x="302" y="539" type="curve"/>
      <point x="325" y="455"/>
      <point x="348" y="371"/>
      <point x="376" y="288" type="curve"/>
    </contour>
    <contour>
      <point x="424" y="830" type="line"/>
      <point x="424" y="810"/>
      <point x="401" y="800"/>
      <point x="383" y="800" type="curve" smooth="yes"/>
      <point x="346" y="800"/>
      <point x="309" y="840"/>
      <point x="253" y="840" type="curve" smooth="yes"/>
      <point x="185" y="840"/>
      <point x="147" y="787"/>
      <point x="147" y="723" type="curve"/>
      <point x="212" y="723" type="line"/>
      <point x="212" y="744"/>
      <point x="235" y="753"/>
      <point x="252" y="753" type="curve" smooth="yes"/>
      <point x="290" y="753"/>
      <point x="327" y="713"/>
      <point x="382" y="713" type="curve" smooth="yes"/>
      <point x="450" y="713"/>
      <point x="489" y="766"/>
      <point x="489" y="830" type="curve"/>
    </contour>
  </outline>
</glyph>
<glyph name="Adieresis" format="1">
  <advance width="631"/>
  <unicode hex="00C4"/>
  <outline>
    <contour>
      <point x="629" y="0" type="line"/>
      <point x="370" y="680" type="line"/>
      <point x="259" y="680" type="line"/>
      <point x="2" y="0" type="line"/>
      <point x="118" y="0" type="line"/>
      <point x="190" y="190" type="line"/>
      <point x="414" y="190" type="line"/>
      <point x="485" y="0" type="line"/>
    </contour>
    <contour>
      <point x="227" y="288" type="line"/>
      <point x="254" y="372"/>
      <point x="279" y="454"/>
      <point x="302" y="539" type="curve"/>
      <point x="325" y="455"/>
      <point x="348" y="371"/>
      <point x="376" y="288" type="curve"/>
    </contour>
    <contour>
      <point x="454" y="824"/>
      <point x="428" y="849"/>
      <point x="396" y="849" type="curve" smooth="yes"/>
      <point x="365" y="849"/>
      <point x="339" y="823"/>
      <point x="339" y="792" type="curve" smooth="yes"/>
      <point x="339" y="760"/>
      <point x="365" y="735"/>
      <point x="396" y="735" type="curve" smooth="yes"/>
      <point x="428" y="735"/>
      <point x="454" y="760"/>
      <point x="454" y="792" type="curve" smooth="yes"/>
    </contour>
    <contour>
      <point x="293" y="823"/>
      <point x="268" y="849"/>
      <point x="236" y="849" type="curve" smooth="yes"/>
      <point x="204" y="849"/>
      <point x="179" y="823"/>
      <point x="179" y="792" type="curve" smooth="yes"/>
      <point x="179" y="760"/>
      <point x="204" y="735"/>
      <point x="236" y="735" type="curve" smooth="yes"/>
      <point x="268" y="735"/>
      <point x="293" y="760"/>
      <point x="293" y="792" type="curve" smooth="yes"/>
    </contour>
  </outline>
</glyph>
<glyph name="Aring" format="1">
  <advance width="631"/>
  <unicode hex="00C5"/>
  <outline>
    <contour>
      <point x="629" y="0" type="line"/>
      <point x="376" y="665" type="line"/>
      <point x="404" y="685"/>
      <point x="421" y="717"/>
      <point x="421" y="752" type="curve" smooth="yes"/>
      <point x="421" y="811"/>
      <point x="372" y="855"/>
      <point x="313" y="855" type="curve" smooth="yes"/>
      <point x="255" y="855"/>
      <point x="207" y="811"/>
      <point x="207" y="751" type="curve" smooth="yes"/>
      <point x="207" y="717"/>
      <point x="224" y="684"/>
      <point x="253" y="664" type="curve"/>
      <point x="2" y="0" type="line"/>
      <point x="118" y="0" type="line"/>
      <point x="190" y="190" type="line"/>
      <point x="414" y="190" type="line"/>
      <point x="485" y="0" type="line"/>
    </contour>
    <contour>
      <point x="354" y="730"/>
      <point x="335" y="711"/>
      <point x="313" y="711" type="curve" smooth="yes"/>
      <point x="291" y="711"/>
      <point x="273" y="730"/>
      <point x="273" y="752" type="curve" smooth="yes"/>
      <point x="273" y="773"/>
      <point x="291" y="792"/>
      <point x="313" y="792" type="curve" smooth="yes"/>
      <point x="335" y="792"/>
      <point x="354" y="773"/>
      <point x="354" y="752" type="curve" smooth="yes"/>
    </contour>
    <contour>
      <point x="227" y="288" type="line"/>
      <point x="254" y="372"/>
      <point x="279" y="454"/>
      <point x="302" y="539" type="curve"/>
      <point x="325" y="455"/>
      <point x="348" y="371"/>
      <point x="376" y="288" type="curve"/>
    </contour>
  </outline>
</glyph>
<glyph name="Ccedilla" format="1">
  <advance width="624"/>
  <unicode hex="00C7"/>
  <outline>
    <contour>
      <point x="549" y="157" type="line"/>
      <point x="500" y="110"/>
      <point x="448" y="82"/>
      <point x="378" y="82" type="curve" smooth="yes"/>
      <point x="232" y="82"/>
      <point x="169" y="252"/>
      <point x="169" y="374" type="curve" smooth="yes"/>
      <point x="169" y="509"/>
      <point x="220" y="649"/>
      <point x="376" y="649" type="curve" smooth="yes"/>
      <point x="431" y="649"/>
      <point x="499" y="625"/>
      <point x="536" y="583" type="curve"/>
      <point x="608" y="675" type="line"/>
      <point x="552" y="725"/>
      <point x="443" y="746"/>
      <point x="371" y="746" type="curve" smooth="yes"/>
      <point x="152" y="746"/>
      <point x="20" y="583"/>
      <point x="20" y="371" type="curve" smooth="yes"/>
      <point x="20" y="171"/>
      <point x="118" y="17"/>
      <point x="311" y="-8" type="curve"/>
      <point x="273" y="-73" type="line" smooth="yes"/>
      <point x="271" y="-76"/>
      <point x="270" y="-79"/>
      <point x="270" y="-83" type="curve" smooth="yes"/>
      <point x="270" y="-91"/>
      <point x="275" y="-100"/>
      <point x="289" y="-100" type="curve" smooth="yes"/>
      <point x="336" y="-100" type="line" smooth="yes"/>
      <point x="356" y="-100"/>
      <point x="369" y="-111"/>
      <point x="369" y="-129" type="curve" smooth="yes"/>
      <point x="369" y="-148"/>
      <point x="351" y="-162"/>
      <point x="330" y="-162" type="curve" smooth="yes"/>
      <point x="314" y="-162"/>
      <point x="289" y="-154"/>
      <point x="263" y="-140" type="curve"/>
      <point x="235" y="-190" type="line"/>
      <point x="267" y="-209"/>
      <point x="299" y="-220"/>
      <point x="327" y="-220" type="curve" smooth="yes"/>
      <point x="385" y="-220"/>
      <point x="462" y="-205"/>
      <point x="462" y="-126" type="curve" smooth="yes"/>
      <point x="462" y="-65"/>
      <point x="400" y="-48"/>
      <point x="352" y="-48" type="curve" smooth="yes"/>
      <point x="348" y="-48" type="line"/>
      <point x="368" y="-12" type="line"/>
      <point x="468" y="-12"/>
      <point x="532" y="12"/>
      <point x="612" y="62" type="curve"/>
    </contour>
  </outline>
</glyph>
<glyph name="Eacute" format="1">
  <advance width="549"/>
  <unicode hex="00C9"/>
  <outline>
    <contour>
      <point x="513" y="0" type="line"/>
      <point x="513" y="99" type="line"/>
      <point x="206" y="99" type="line"/>
      <point x="206" y="292" type="line"/>
      <point x="441" y="292" type="line"/>
      <point x="441" y="391" type="line"/>
      <point x="206" y="391" type="line"/>
      <point x="206" y="575" type="line"/>
      <point x="513" y="575" type="line"/>
      <point x="513" y="674" type="line"/>
      <point x="54" y="674" type="line"/>
      <point x="55" y="669"/>
      <point x="68" y="615"/>
      <point x="68" y="613" type="curve" smooth="yes"/>
      <point x="68" y="0" type="line"/>
    </contour>
    <contour>
      <point x="472" y="881" type="line"/>
      <point x="326" y="881" type="line"/>
      <point x="217" y="717" type="line"/>
      <point x="321" y="717" type="line"/>
    </contour>
  </outline>
</glyph>
<glyph name="Ecircumflex" format="1">
  <advance width="549"/>
  <unicode hex="00CA"/>
  <outline>
    <contour>
      <point x="513" y="0" type="line"/>
      <point x="513" y="99" type="line"/>
      <point x="206" y="99" type="line"/>
      <point x="206" y="292" type="line"/>
      <point x="441" y="292" type="line"/>
      <point x="441" y="391" type="line"/>
      <point x="206" y="391" type="line"/>
      <point x="206" y="575" type="line"/>
      <point x="513" y="575" type="line"/>
      <point x="513" y="674" type="line"/>
      <point x="54" y="674" type="line"/>
      <point x="55" y="669"/>
      <point x="68" y="615"/>
      <point x="68" y="613" type="curve" smooth="yes"/>
      <point x="68" y="0" type="line"/>
    </contour>
    <contour>
      <point x="442" y="717" type="line"/>
      <point x="343" y="862" type="line"/>
      <point x="245" y="862" type="line"/>
      <point x="149" y="717" type="line"/>
      <point x="225" y="717" type="line"/>
      <point x="294" y="791" type="line"/>
      <point x="364" y="717" type="line"/>
    </contour>
  </outline>
</glyph>
<glyph name="Edieresis" format="1">
  <advance width="549"/>
  <unicode hex="00CB"/>
  <outline>
    <contour>
      <point x="513" y="0" type="line"/>
      <point x="513" y="99" type="line"/>
      <point x="206" y="99" type="line"/>
      <point x="206" y="292" type="line"/>
      <point x="441" y="292" type="line"/>
      <point x="441" y="391" type="line"/>
      <point x="206" y="391" type="line"/>
      <point x="206" y="575" type="line"/>
      <point x="513" y="575" type="line"/>
      <point x="513" y="674" type="line"/>
      <point x="54" y="674" type="line"/>
      <point x="55" y="669"/>
      <point x="68" y="615"/>
      <point x="68" y="613" type="curve" smooth="yes"/>
      <point x="68" y="0" type="line"/>
    </contour>
    <contour>
      <point x="436" y="824"/>
      <point x="410" y="849"/>
      <point x="378" y="849" type="curve" smooth="yes"/>
      <point x="346" y="849"/>
      <point x="321" y="823"/>
      <point x="321" y="792" type="curve" smooth="yes"/>
      <point x="321" y="760"/>
      <point x="346" y="735"/>
      <point x="378" y="735" type="curve" smooth="yes"/>
      <point x="410" y="735"/>
      <point x="436" y="760"/>
      <point x="436" y="792" type="curve" smooth="yes"/>
    </contour>
    <contour>
      <point x="275" y="823"/>
      <point x="250" y="849"/>
      <point x="218" y="849" type="curve" smooth="yes"/>
      <point x="186" y="849"/>
      <point x="161" y="823"/>
      <point x="161" y="792" type="curve" smooth="yes"/>
      <point x="161" y="760"/>
      <point x="186" y="735"/>
      <point x="218" y="735" type="curve" smooth="yes"/>
      <point x="250" y="735"/>
      <point x="275" y="760"/>
      <point x="275" y="792" type="curve" smooth="yes"/>
    </contour>
  </outline>
</glyph>
<glyph name="Igrave" format="1">
  <advance width="261"/>
  <unicode hex="00CC"/>
  <outline>
    <contour>
      <point x="205" y="0" type="line"/>
      <point x="205" y="674" type="line"/>
      <point x="53" y="674" type="line"/>
      <point x="54" y="669"/>
      <point x="67" y="615"/>
      <point x="67" y="613" type="curve" smooth="yes"/>
      <point x="67" y="0" type="line"/>
    </contour>
    <contour>
      <point x="204" y="717" type="line"/>
      <point x="95" y="881" type="line"/>
      <point x="-50" y="881" type="line"/>
      <point x="101" y="717" type="line"/>
    </contour>
  </outline>
</glyph>
<glyph name="Iacute" format="1">
  <advance width="261"/>
  <unicode hex="00CD"/>
  <outline>
    <contour>
      <point x="204" y="0" type="line"/>
      <point x="204" y="674" type="line"/>
      <point x="52" y="674" type="line"/>
      <point x="53" y="669"/>
      <point x="66" y="615"/>
      <point x="66" y="613" type="curve" smooth="yes"/>
      <point x="66" y="0" type="line"/>
    </contour>
    <contour>
      <point x="300" y="881" type="line"/>
      <point x="155" y="881" type="line"/>
      <point x="46" y="716" type="line"/>
      <point x="149" y="716" type="line"/>
    </contour>
  </outline>
</glyph>
<glyph name="Icircumflex" format="1">
  <advance width="261"/>
  <unicode hex="00CE"/>
  <outline>
    <contour>
      <point x="205" y="0" type="line"/>
      <point x="205" y="674" type="line"/>
      <point x="53" y="674" type="line"/>
      <point x="54" y="669"/>
      <point x="67" y="615"/>
      <point x="67" y="613" type="curve" smooth="yes"/>
      <point x="67" y="0" type="line"/>
    </contour>
    <contour>
      <point x="282" y="713" type="line"/>
      <point x="183" y="858" type="line"/>
      <point x="85" y="858" type="line"/>
      <point x="-11" y="714" type="line"/>
      <point x="65" y="714" type="line"/>
      <point x="134" y="787" type="line"/>
      <point x="204" y="713" type="line"/>
    </contour>
  </outline>
</glyph>
<glyph name="Idieresis" format="1">
  <advance width="261"/>
  <unicode hex="00CF"/>
  <outline>
    <contour>
      <point x="205" y="0" type="line"/>
      <point x="205" y="674" type="line"/>
      <point x="53" y="674" type="line"/>
      <point x="54" y="669"/>
      <point x="67" y="615"/>
      <point x="67" y="613" type="curve" smooth="yes"/>
      <point x="67" y="0" type="line"/>
    </contour>
    <contour>
      <point x="272" y="824"/>
      <point x="246" y="849"/>
      <point x="214" y="849" type="curve" smooth="yes"/>
      <point x="183" y="849"/>
      <point x="157" y="823"/>
      <point x="157" y="792" type="curve" smooth="yes"/>
      <point x="157" y="760"/>
      <point x="183" y="735"/>
      <point x="214" y="735" type="curve" smooth="yes"/>
      <point x="246" y="735"/>
      <point x="272" y="760"/>
      <point x="272" y="792" type="curve" smooth="yes"/>
    </contour>
    <contour>
      <point x="111" y="823"/>
      <point x="86" y="849"/>
      <point x="54" y="849" type="curve" smooth="yes"/>
      <point x="22" y="849"/>
      <point x="-3" y="823"/>
      <point x="-3" y="792" type="curve" smooth="yes"/>
      <point x="-3" y="760"/>
      <point x="22" y="735"/>
      <point x="54" y="735" type="curve" smooth="yes"/>
      <point x="86" y="735"/>
      <point x="111" y="760"/>
      <point x="111" y="792" type="curve" smooth="yes"/>
    </contour>
  </outline>
</glyph>
<glyph name="Eth" format="1">
  <advance width="715"/>
  <unicode hex="00D0"/>
  <outline>
    <contour>
      <point x="327" y="0" type="line"/>
      <point x="422" y="0"/>
      <point x="509" y="27"/>
      <point x="577" y="95" type="curve" smooth="yes"/>
      <point x="648" y="165"/>
      <point x="680" y="267"/>
      <point x="680" y="365" type="curve" smooth="yes"/>
      <point x="680" y="583"/>
      <point x="551" y="732"/>
      <point x="328" y="732" type="curve" smooth="yes"/>
      <point x="51" y="732" type="line"/>
      <point x="53" y="727"/>
      <point x="65" y="678"/>
      <point x="67" y="672" type="curve"/>
      <point x="67" y="412" type="line"/>
      <point x="-16" y="412" type="line"/>
      <point x="-16" y="324" type="line"/>
      <point x="67" y="324" type="line"/>
      <point x="67" y="0" type="line"/>
    </contour>
    <contour>
      <point x="205" y="99" type="line"/>
      <point x="205" y="324" type="line"/>
      <point x="355" y="324" type="line"/>
      <point x="355" y="412" type="line"/>
      <point x="205" y="412" type="line"/>
      <point x="205" y="633" type="line"/>
      <point x="319" y="633" type="line" smooth="yes"/>
      <point x="474" y="633"/>
      <point x="532" y="496"/>
      <point x="532" y="361" type="curve" smooth="yes"/>
      <point x="532" y="226"/>
      <point x="473" y="99"/>
      <point x="321" y="99" type="curve" smooth="yes"/>
    </contour>
  </outline>
</glyph>
<glyph name="Ntilde" format="1">
  <advance width="714"/>
  <unicode hex="00D1"/>
  <outline>
    <contour>
      <point x="669" y="-5" type="line"/>
      <point x="669" y="674" type="line"/>
      <point x="558" y="674" type="line"/>
      <point x="558" y="281" type="line" smooth="yes"/>
      <point x="558" y="256"/>
      <point x="562" y="229"/>
      <point x="564" y="204" type="curve"/>
      <point x="551" y="225"/>
      <point x="538" y="250"/>
      <point x="523" y="270" type="curve" smooth="yes"/>
      <point x="218" y="674" type="line"/>
      <point x="71" y="674" type="line"/>
      <point x="72" y="669"/>
      <point x="85" y="615"/>
      <point x="85" y="613" type="curve" smooth="yes"/>
      <point x="85" y="0" type="line"/>
      <point x="196" y="0" type="line"/>
      <point x="196" y="439" type="line" smooth="yes"/>
      <point x="196" y="461"/>
      <point x="192" y="484"/>
      <point x="190" y="506" type="curve"/>
      <point x="204" y="484"/>
      <point x="217" y="459"/>
      <point x="232" y="439" type="curve" smooth="yes"/>
      <point x="569" y="-5" type="line"/>
    </contour>
    <contour>
      <point x="494" y="830" type="line"/>
      <point x="494" y="810"/>
      <point x="471" y="800"/>
      <point x="454" y="800" type="curve" smooth="yes"/>
      <point x="416" y="800"/>
      <point x="379" y="840"/>
      <point x="324" y="840" type="curve" smooth="yes"/>
      <point x="256" y="840"/>
      <point x="218" y="787"/>
      <point x="218" y="723" type="curve"/>
      <point x="283" y="723" type="line"/>
      <point x="283" y="744"/>
      <point x="306" y="753"/>
      <point x="323" y="753" type="curve" smooth="yes"/>
      <point x="361" y="753"/>
      <point x="398" y="713"/>
      <point x="453" y="713" type="curve" smooth="yes"/>
      <point x="521" y="713"/>
      <point x="559" y="766"/>
      <point x="559" y="830" type="curve"/>
    </contour>
  </outline>
</glyph>
<glyph name="Oacute" format="1">
  <advance width="736"/>
  <unicode hex="00D3"/>
  <outline>
    <contour>
      <point x="570" y="879" type="line"/>
      <point x="425" y="879" type="line"/>
      <point x="316" y="715" type="line"/>
      <point x="419" y="715" type="line"/>
    </contour>
    <contour>
      <point x="718" y="546"/>
      <point x="578" y="684"/>
      <point x="368" y="684" type="curve" smooth="yes"/>
      <point x="158" y="684"/>
      <point x="19" y="545"/>
      <point x="19" y="336" type="curve" smooth="yes"/>
      <point x="19" y="126"/>
      <point x="159" y="-12"/>
      <point x="369" y="-12" type="curve" smooth="yes"/>
      <point x="579" y="-12"/>
      <point x="718" y="127"/>
      <point x="718" y="336" type="curve" smooth="yes"/>
    </contour>
    <contour>
      <point x="571" y="208"/>
      <point x="513" y="84"/>
      <point x="367" y="84" type="curve" smooth="yes"/>
      <point x="222" y="84"/>
      <point x="165" y="208"/>
      <point x="165" y="337" type="curve" smooth="yes"/>
      <point x="165" y="465"/>
      <point x="223" y="589"/>
      <point x="369" y="589" type="curve" smooth="yes"/>
      <point x="513" y="589"/>
      <point x="571" y="467"/>
      <point x="571" y="336" type="curve" smooth="yes"/>
    </contour>
  </outline>
</glyph>
<glyph name="Otilde" format="1">
  <advance width="736"/>
  <unicode hex="00D5"/>
  <outline>
    <contour>
      <point x="482" y="830" type="line"/>
      <point x="482" y="810"/>
      <point x="459" y="800"/>
      <point x="442" y="800" type="curve" smooth="yes"/>
      <point x="404" y="800"/>
      <point x="367" y="840"/>
      <point x="312" y="840" type="curve" smooth="yes"/>
      <point x="244" y="840"/>
      <point x="205" y="787"/>
      <point x="205" y="723" type="curve"/>
      <point x="270" y="723" type="line"/>
      <point x="270" y="744"/>
      <point x="293" y="753"/>
      <point x="311" y="753" type="curve" smooth="yes"/>
      <point x="348" y="753"/>
      <point x="385" y="713"/>
      <point x="441" y="713" type="curve" smooth="yes"/>
      <point x="509" y="713"/>
      <point x="547" y="766"/>
      <point x="547" y="830" type="curve"/>
    </contour>
    <contour>
      <point x="718" y="546"/>
      <point x="578" y="684"/>
      <point x="368" y="684" type="curve" smooth="yes"/>
      <point x="158" y="684"/>
      <point x="19" y="545"/>
      <point x="19" y="336" type="curve" smooth="yes"/>
      <point x="19" y="126"/>
      <point x="159" y="-12"/>
      <point x="369" y="-12" type="curve" smooth="yes"/>
      <point x="579" y="-12"/>
      <point x="718" y="127"/>
      <point x="718" y="336" type="curve" smooth="yes"/>
    </contour>
    <contour>
      <point x="571" y="208"/>
      <point x="513" y="84"/>
      <point x="367" y="84" type="curve" smooth="yes"/>
      <point x="222" y="84"/>
      <point x="165" y="208"/>
      <point x="165" y="337" type="curve" smooth="yes"/>
      <point x="165" y="465"/>
      <point x="223" y="589"/>
      <point x="369" y="589" type="curve" smooth="yes"/>
      <point x="513" y="589"/>
      <point x="571" y="467"/>
      <point x="571" y="336" type="curve" smooth="yes"/>
    </contour>
  </outline>
</glyph>
<glyph name="Odieresis" format="1">
  <advance width="736"/>
  <unicode hex="00D6"/>
  <outline>
    <contour>
      <point x="502" y="824"/>
      <point x="476" y="849"/>
      <point x="444" y="849" type="curve" smooth="yes"/>
      <point x="413" y="849"/>
      <point x="387" y="823"/>
      <point x="387" y="792" type="curve" smooth="yes"/>
      <point x="387" y="760"/>
      <point x="413" y="735"/>
      <point x="444" y="735" type="curve" smooth="yes"/>
      <point x="476" y="735"/>
      <point x="502" y="760"/>
      <point x="502" y="792" type="curve" smooth="yes"/>
    </contour>
    <contour>
      <point x="341" y="823"/>
      <point x="316" y="849"/>
      <point x="284" y="849" type="curve" smooth="yes"/>
      <point x="253" y="849"/>
      <point x="227" y="823"/>
      <point x="227" y="792" type="curve" smooth="yes"/>
      <point x="227" y="760"/>
      <point x="253" y="735"/>
      <point x="284" y="735" type="curve" smooth="yes"/>
      <point x="316" y="735"/>
      <point x="341" y="760"/>
      <point x="341" y="792" type="curve" smooth="yes"/>
    </contour>
    <contour>
      <point x="718" y="546"/>
      <point x="578" y="684"/>
      <point x="368" y="684" type="curve" smooth="yes"/>
      <point x="158" y="684"/>
      <point x="19" y="545"/>
      <point x="19" y="336" type="curve" smooth="yes"/>
      <point x="19" y="126"/>
      <point x="159" y="-12"/>
      <point x="369" y="-12" type="curve" smooth="yes"/>
      <point x="579" y="-12"/>
      <point x="718" y="127"/>
      <point x="718" y="336" type="curve" smooth="yes"/>
    </contour>
    <contour>
      <point x="571" y="208"/>
      <point x="513" y="84"/>
      <point x="367" y="84" type="curve" smooth="yes"/>
      <point x="222" y="84"/>
      <point x="165" y="208"/>
      <point x="165" y="337" type="curve" smooth="yes"/>
      <point x="165" y="465"/>
      <point x="223" y="589"/>
      <point x="369" y="589" type="curve" smooth="yes"/>
      <point x="513" y="589"/>
      <point x="571" y="467"/>
      <point x="571" y="336" type="curve" smooth="yes"/>
    </contour>
  </outline>
</glyph>
<glyph name="Oslash" format="1">
  <advance width="736"/>
  <unicode hex="00D8"/>
  <outline>
    <contour>
      <point x="717" y="477"/>
      <point x="684" y="593"/>
      <point x="595" y="667" type="curve"/>
      <point x="646" y="744" type="line"/>
      <point x="593" y="777" type="line"/>
      <point x="544" y="702" type="line"/>
      <point x="489" y="731"/>
      <point x="427" y="743"/>
      <point x="365" y="743" type="curve" smooth="yes"/>
      <point x="141" y="743"/>
      <point x="19" y="581"/>
      <point x="19" y="367" type="curve" smooth="yes"/>
      <point x="19" y="258"/>
      <point x="49" y="146"/>
      <point x="134" y="72" type="curve"/>
      <point x="71" y="-25" type="line"/>
      <point x="124" y="-56" type="line"/>
      <point x="183" y="35" type="line"/>
      <point x="238" y="3"/>
      <point x="301" y="-11"/>
      <point x="364" y="-11" type="curve" smooth="yes"/>
      <point x="586" y="-11"/>
      <point x="717" y="150"/>
      <point x="717" y="365" type="curve" smooth="yes"/>
    </contour>
    <contour>
      <point x="206" y="183" type="line"/>
      <point x="175" y="239"/>
      <point x="166" y="307"/>
      <point x="166" y="371" type="curve" smooth="yes"/>
      <point x="166" y="500"/>
      <point x="213" y="648"/>
      <point x="367" y="648" type="curve" smooth="yes"/>
      <point x="409" y="648"/>
      <point x="450" y="635"/>
      <point x="482" y="608" type="curve"/>
    </contour>
    <contour>
      <point x="569" y="231"/>
      <point x="522" y="84"/>
      <point x="368" y="84" type="curve" smooth="yes"/>
      <point x="323" y="84"/>
      <point x="279" y="99"/>
      <point x="245" y="131" type="curve"/>
      <point x="524" y="558" type="line"/>
      <point x="559" y="500"/>
      <point x="569" y="428"/>
      <point x="569" y="361" type="curve" smooth="yes"/>
    </contour>
  </outline>
</glyph>
<glyph name="Ugrave" format="1">
  <advance width="707"/>
  <unicode hex="00D9"/>
  <outline>
    <contour>
      <point x="644" y="674" type="line"/>
      <point x="531" y="674" type="line"/>
      <point x="531" y="245" type="line" smooth="yes"/>
      <point x="531" y="145"/>
      <point x="469" y="84"/>
      <point x="370" y="84" type="curve" smooth="yes"/>
      <point x="273" y="84"/>
      <point x="209" y="147"/>
      <point x="209" y="245" type="curve" smooth="yes"/>
      <point x="209" y="674" type="line"/>
      <point x="52" y="674" type="line"/>
      <point x="68" y="614" type="line"/>
      <point x="68" y="278" type="line" smooth="yes"/>
      <point x="68" y="92"/>
      <point x="170" y="-11"/>
      <point x="356" y="-11" type="curve" smooth="yes"/>
      <point x="522" y="-11"/>
      <point x="644" y="68"/>
      <point x="644" y="269" type="curve" smooth="yes"/>
    </contour>
    <contour>
      <point x="431" y="716" type="line"/>
      <point x="322" y="881" type="line"/>
      <point x="177" y="881" type="line"/>
      <point x="328" y="716" type="line"/>
    </contour>
  </outline>
</glyph>
<glyph name="Ucircumflex" format="1">
  <advance width="707"/>
  <unicode hex="00DB"/>
  <outline>
    <contour>
      <point x="517" y="718" type="line"/>
      <point x="418" y="863" type="line"/>
      <point x="320" y="863" type="line"/>
      <point x="224" y="718" type="line"/>
      <point x="300" y="718" type="line"/>
      <point x="369" y="792" type="line"/>
      <point x="439" y="718" type="line"/>
    </contour>
    <contour>
      <point x="644" y="674" type="line"/>
      <point x="531" y="674" type="line"/>
      <point x="531" y="245" type="line" smooth="yes"/>
      <point x="531" y="145"/>
      <point x="469" y="84"/>
      <point x="370" y="84" type="curve" smooth="yes"/>
      <point x="273" y="84"/>
      <point x="209" y="147"/>
      <point x="209" y="245" type="curve" smooth="yes"/>
      <point x="209" y="674" type="line"/>
      <point x="52" y="674" type="line"/>
      <point x="68" y="614" type="line"/>
      <point x="68" y="278" type="line" smooth="yes"/>
      <point x="68" y="92"/>
      <point x="170" y="-11"/>
      <point x="356" y="-11" type="curve" smooth="yes"/>
      <point x="522" y="-11"/>
      <point x="644" y="68"/>
      <point x="644" y="269" type="curve" smooth="yes"/>
    </contour>
  </outline>
</glyph>
<glyph name="Udieresis" format="1">
  <advance width="707"/>
  <unicode hex="00DC"/>
  <outline>
    <contour>
      <point x="508" y="824"/>
      <point x="482" y="849"/>
      <point x="450" y="849" type="curve" smooth="yes"/>
      <point x="419" y="849"/>
      <point x="393" y="823"/>
      <point x="393" y="792" type="curve" smooth="yes"/>
      <point x="393" y="760"/>
      <point x="419" y="735"/>
      <point x="450" y="735" type="curve" smooth="yes"/>
      <point x="482" y="735"/>
      <point x="508" y="760"/>
      <point x="508" y="792" type="curve" smooth="yes"/>
    </contour>
    <contour>
      <point x="347" y="823"/>
      <point x="322" y="849"/>
      <point x="290" y="849" type="curve" smooth="yes"/>
      <point x="258" y="849"/>
      <point x="233" y="823"/>
      <point x="233" y="792" type="curve" smooth="yes"/>
      <point x="233" y="760"/>
      <point x="258" y="735"/>
      <point x="290" y="735" type="curve" smooth="yes"/>
      <point x="322" y="735"/>
      <point x="347" y="760"/>
      <point x="347" y="792" type="curve" smooth="yes"/>
    </contour>
    <contour>
      <point x="644" y="674" type="line"/>
      <point x="531" y="674" type="line"/>
      <point x="531" y="245" type="line" smooth="yes"/>
      <point x="531" y="145"/>
      <point x="469" y="84"/>
      <point x="370" y="84" type="curve" smooth="yes"/>
      <point x="273" y="84"/>
      <point x="209" y="147"/>
      <point x="209" y="245" type="curve" smooth="yes"/>
      <point x="209" y="674" type="line"/>
      <point x="52" y="674" type="line"/>
      <point x="68" y="614" type="line"/>
      <point x="68" y="278" type="line" smooth="yes"/>
      <point x="68" y="92"/>
      <point x="170" y="-11"/>
      <point x="356" y="-11" type="curve" smooth="yes"/>
      <point x="522" y="-11"/>
      <point x="644" y="68"/>
      <point x="644" y="269" type="curve" smooth="yes"/>
    </contour>
  </outline>
</glyph>
<glyph name="Yacute" format="1">
  <advance width="584"/>
  <unicode hex="00DD"/>
  <outline>
    <contour>
      <point x="512" y="881" type="line"/>
      <point x="367" y="881" type="line"/>
      <point x="258" y="716" type="line"/>
      <point x="361" y="716" type="line"/>
    </contour>
    <contour>
      <point x="574" y="674" type="line"/>
      <point x="454" y="674" type="line"/>
      <point x="304" y="401" type="line"/>
      <point x="158" y="674" type="line"/>
      <point x="10" y="674" type="line"/>
      <point x="224" y="274" type="line"/>
      <point x="224" y="0" type="line"/>
      <point x="357" y="0" type="line"/>
      <point x="357" y="274" type="line"/>
    </contour>
  </outline>
</glyph>
<glyph name="Thorn" format="1">
  <advance width="575"/>
  <unicode hex="00DE"/>
  <outline>
    <contour>
      <point x="203" y="0" type="line"/>
      <point x="203" y="179" type="line"/>
      <point x="285" y="179" type="line" smooth="yes"/>
      <point x="421" y="179"/>
      <point x="549" y="245"/>
      <point x="549" y="398" type="curve" smooth="yes"/>
      <point x="549" y="563"/>
      <point x="428" y="617"/>
      <point x="283" y="617" type="curve" smooth="yes"/>
      <point x="205" y="617" type="line"/>
      <point x="205" y="732" type="line"/>
      <point x="53" y="732" type="line"/>
      <point x="54" y="727"/>
      <point x="66" y="673"/>
      <point x="66" y="671" type="curve" smooth="yes"/>
      <point x="66" y="0" type="line"/>
    </contour>
    <contour>
      <point x="204" y="276" type="line"/>
      <point x="204" y="518" type="line"/>
      <point x="289" y="518" type="line" smooth="yes"/>
      <point x="365" y="518"/>
      <point x="403" y="471"/>
      <point x="403" y="398" type="curve" smooth="yes"/>
      <point x="403" y="327"/>
      <point x="362" y="276"/>
      <point x="288" y="276" type="curve" smooth="yes"/>
    </contour>
  </outline>
</glyph>
<glyph name="germandbls" format="1">
  <advance width="590"/>
  <unicode hex="00DF"/>
  <outline>
    <contour>
      <point x="572" y="370"/>
      <point x="375" y="362"/>
      <point x="375" y="406" type="curve" smooth="yes"/>
      <point x="375" y="451"/>
      <point x="511" y="443"/>
      <point x="511" y="575" type="curve" smooth="yes"/>
      <point x="511" y="694"/>
      <point x="413" y="745"/>
      <point x="306" y="745" type="curve" smooth="yes"/>
      <point x="170" y="745"/>
      <point x="110" y="660"/>
      <point x="82" y="539" type="curve" smooth="yes"/>
      <point x="74" y="505"/>
      <point x="26" y="502"/>
      <point x="0" y="502" type="curve"/>
      <point x="0" y="416" type="line"/>
      <point x="75" y="416" type="line"/>
      <point x="75" y="0" type="line"/>
      <point x="198" y="0" type="line"/>
      <point x="198" y="465" type="line" smooth="yes"/>
      <point x="198" y="537"/>
      <point x="212" y="648"/>
      <point x="307" y="648" type="curve" smooth="yes"/>
      <point x="343" y="648"/>
      <point x="377" y="617"/>
      <point x="377" y="580" type="curve" smooth="yes"/>
      <point x="377" y="468"/>
      <point x="237" y="486"/>
      <point x="237" y="384" type="curve" smooth="yes"/>
      <point x="237" y="324"/>
      <point x="341" y="294"/>
      <point x="385" y="270" type="curve" smooth="yes"/>
      <point x="427" y="246"/>
      <point x="438" y="217"/>
      <point x="438" y="170" type="curve" smooth="yes"/>
      <point x="438" y="122"/>
      <point x="390" y="79"/>
      <point x="343" y="79" type="curve" smooth="yes"/>
      <point x="316" y="79"/>
      <point x="289" y="87"/>
      <point x="264" y="96" type="curve"/>
      <point x="225" y="19" type="line"/>
      <point x="266" y="0"/>
      <point x="310" y="-11"/>
      <point x="355" y="-11" type="curve" smooth="yes"/>
      <point x="475" y="-11"/>
      <point x="572" y="64"/>
      <point x="572" y="189" type="curve" smooth="yes"/>
    </contour>
  </outline>
</glyph>
<glyph name="ae" format="1">
  <advance width="750"/>
  <unicode hex="00E6"/>
  <outline>
    <contour>
      <point x="735" y="415"/>
      <point x="667" y="511"/>
      <point x="528" y="511" type="curve" smooth="yes"/>
      <point x="479" y="511"/>
      <point x="419" y="493"/>
      <point x="385" y="456" type="curve"/>
      <point x="353" y="498"/>
      <point x="302" y="509"/>
      <point x="252" y="509" type="curve" smooth="yes"/>
      <point x="180" y="509"/>
      <point x="110" y="488"/>
      <point x="50" y="447" type="curve"/>
      <point x="99" y="368" type="line"/>
      <point x="134" y="395"/>
      <point x="181" y="426"/>
      <point x="227" y="426" type="curve" smooth="yes"/>
      <point x="277" y="426"/>
      <point x="299" y="409"/>
      <point x="299" y="356" type="curve" smooth="yes"/>
      <point x="299" y="302" type="line"/>
      <point x="182" y="302"/>
      <point x="28" y="270"/>
      <point x="28" y="124" type="curve" smooth="yes"/>
      <point x="28" y="44"/>
      <point x="91" y="-11"/>
      <point x="169" y="-11" type="curve" smooth="yes"/>
      <point x="243" y="-11"/>
      <point x="306" y="9"/>
      <point x="350" y="73" type="curve"/>
      <point x="396" y="11"/>
      <point x="471" y="-11"/>
      <point x="545" y="-11" type="curve" smooth="yes"/>
      <point x="600" y="-11"/>
      <point x="679" y="6"/>
      <point x="723" y="42" type="curve"/>
      <point x="672" y="122" type="line"/>
      <point x="642" y="92"/>
      <point x="593" y="69"/>
      <point x="551" y="69" type="curve" smooth="yes"/>
      <point x="469" y="69"/>
      <point x="422" y="148"/>
      <point x="422" y="223" type="curve"/>
      <point x="684" y="223" type="line" smooth="yes"/>
      <point x="724" y="223"/>
      <point x="735" y="247"/>
      <point x="735" y="283" type="curve" smooth="yes"/>
    </contour>
    <contour>
      <point x="609" y="311"/>
      <point x="608" y="302"/>
      <point x="593" y="302" type="curve" smooth="yes"/>
      <point x="425" y="302" type="line"/>
      <point x="425" y="359"/>
      <point x="467" y="428"/>
      <point x="530" y="428" type="curve" smooth="yes"/>
      <point x="593" y="428"/>
      <point x="609" y="378"/>
      <point x="609" y="324" type="curve" smooth="yes"/>
    </contour>
    <contour>
      <point x="299" y="164"/>
      <point x="291" y="81"/>
      <point x="212" y="81" type="curve" smooth="yes"/>
      <point x="178" y="81"/>
      <point x="153" y="98"/>
      <point x="153" y="134" type="curve" smooth="yes"/>
      <point x="153" y="208"/>
      <point x="242" y="223"/>
      <point x="299" y="223" type="curve"/>
    </contour>
  </outline>
</glyph>
<glyph name="ccedilla" format="1">
  <advance width="450"/>
  <unicode hex="00E7"/>
  <outline>
    <contour>
      <point x="391" y="121" type="line"/>
      <point x="360" y="95"/>
      <point x="330" y="72"/>
      <point x="287" y="72" type="curve" smooth="yes"/>
      <point x="190" y="72"/>
      <point x="158" y="169"/>
      <point x="158" y="251" type="curve" smooth="yes"/>
      <point x="158" y="320"/>
      <point x="186" y="425"/>
      <point x="272" y="425" type="curve" smooth="yes"/>
      <point x="314" y="425"/>
      <point x="342" y="410"/>
      <point x="374" y="386" type="curve"/>
      <point x="434" y="462" type="line"/>
      <point x="394" y="491"/>
      <point x="332" y="510"/>
      <point x="283" y="510" type="curve" smooth="yes"/>
      <point x="127" y="510"/>
      <point x="26" y="404"/>
      <point x="26" y="249" type="curve" smooth="yes"/>
      <point x="26" y="115"/>
      <point x="90" y="16"/>
      <point x="212" y="-7" type="curve"/>
      <point x="173" y="-73" type="line" smooth="yes"/>
      <point x="171" y="-76"/>
      <point x="170" y="-79"/>
      <point x="170" y="-83" type="curve" smooth="yes"/>
      <point x="170" y="-91"/>
      <point x="175" y="-100"/>
      <point x="189" y="-100" type="curve" smooth="yes"/>
      <point x="236" y="-100" type="line" smooth="yes"/>
      <point x="256" y="-100"/>
      <point x="269" y="-111"/>
      <point x="269" y="-129" type="curve" smooth="yes"/>
      <point x="269" y="-148"/>
      <point x="251" y="-162"/>
      <point x="230" y="-162" type="curve" smooth="yes"/>
      <point x="214" y="-162"/>
      <point x="189" y="-154"/>
      <point x="163" y="-140" type="curve"/>
      <point x="135" y="-190" type="line"/>
      <point x="167" y="-209"/>
      <point x="199" y="-220"/>
      <point x="227" y="-220" type="curve" smooth="yes"/>
      <point x="285" y="-220"/>
      <point x="362" y="-205"/>
      <point x="362" y="-126" type="curve" smooth="yes"/>
      <point x="362" y="-65"/>
      <point x="300" y="-48"/>
      <point x="252" y="-48" type="curve" smooth="yes"/>
      <point x="248" y="-48" type="line"/>
      <point x="268" y="-12" type="line"/>
      <point x="339" y="-12"/>
      <point x="381" y="4"/>
      <point x="442" y="35" type="curve"/>
    </contour>
  </outline>
</glyph>
<glyph name="edieresis" format="1">
  <advance width="494"/>
  <unicode hex="00EB"/>
  <outline>
    <contour>
      <point x="466" y="424"/>
      <point x="392" y="511"/>
      <point x="259" y="511" type="curve" smooth="yes"/>
      <point x="109" y="511"/>
      <point x="26" y="385"/>
      <point x="26" y="245" type="curve" smooth="yes"/>
      <point x="26" y="91"/>
      <point x="120" y="-11"/>
      <point x="276" y="-11" type="curve" smooth="yes"/>
      <point x="331" y="-11"/>
      <point x="409" y="5"/>
      <point x="454" y="42" type="curve"/>
      <point x="403" y="122" type="line"/>
      <point x="373" y="92"/>
      <point x="324" y="69"/>
      <point x="282" y="69" type="curve" smooth="yes"/>
      <point x="194" y="69"/>
      <point x="153" y="158"/>
      <point x="153" y="234" type="curve"/>
      <point x="415" y="234" type="line" smooth="yes"/>
      <point x="455" y="234"/>
      <point x="466" y="259"/>
      <point x="466" y="294" type="curve" smooth="yes"/>
    </contour>
    <contour>
      <point x="341" y="322"/>
      <point x="339" y="313"/>
      <point x="324" y="313" type="curve" smooth="yes"/>
      <point x="156" y="313" type="line"/>
      <point x="159" y="365"/>
      <point x="204" y="429"/>
      <point x="260" y="429" type="curve" smooth="yes"/>
      <point x="315" y="429"/>
      <point x="341" y="386"/>
      <point x="341" y="335" type="curve" smooth="yes"/>
    </contour>
    <contour>
      <point x="403" y="661"/>
      <point x="377" y="686"/>
      <point x="345" y="686" type="curve" smooth="yes"/>
      <point x="314" y="686"/>
      <point x="288" y="660"/>
      <point x="288" y="629" type="curve" smooth="yes"/>
      <point x="288" y="598"/>
      <point x="314" y="572"/>
      <point x="345" y="572" type="curve" smooth="yes"/>
      <point x="377" y="572"/>
      <point x="403" y="597"/>
      <point x="403" y="629" type="curve" smooth="yes"/>
    </contour>
    <contour>
      <point x="242" y="661"/>
      <point x="217" y="686"/>
      <point x="185" y="686" type="curve" smooth="yes"/>
      <point x="154" y="686"/>
      <point x="128" y="661"/>
      <point x="128" y="629" type="curve" smooth="yes"/>
      <point x="128" y="597"/>
      <point x="154" y="572"/>
      <point x="185" y="572" type="curve" smooth="yes"/>
      <point x="217" y="572"/>
      <point x="242" y="597"/>
      <point x="242" y="629" type="curve" smooth="yes"/>
    </contour>
  </outline>
</glyph>
<glyph name="igrave" format="1">
  <advance width="251"/>
  <unicode hex="00EC"/>
  <outline>
    <contour>
      <point x="186" y="0" type="line"/>
      <point x="186" y="497" type="line"/>
      <point x="55" y="497" type="line"/>
      <point x="56" y="492"/>
      <point x="66" y="445"/>
      <point x="66" y="443" type="curve" smooth="yes"/>
      <point x="66" y="0" type="line"/>
    </contour>
    <contour>
      <point x="186" y="590" type="line"/>
      <point x="77" y="755" type="line"/>
      <point x="-68" y="755" type="line"/>
      <point x="83" y="590" type="line"/>
    </contour>
  </outline>
</glyph>
<glyph name="otilde" format="1">
  <advance width="536"/>
  <unicode hex="00F5"/>
  <outline>
    <contour>
      <point x="510" y="393"/>
      <point x="419" y="510"/>
      <point x="268" y="510" type="curve" smooth="yes"/>
      <point x="119" y="510"/>
      <point x="26" y="392"/>
      <point x="26" y="249" type="curve" smooth="yes"/>
      <point x="26" y="105"/>
      <point x="117" y="-12"/>
      <point x="268" y="-12" type="curve" smooth="yes"/>
      <point x="419" y="-12"/>
      <point x="510" y="105"/>
      <point x="510" y="249" type="curve" smooth="yes"/>
    </contour>
    <contour>
      <point x="378" y="175"/>
      <point x="362" y="68"/>
      <point x="268" y="68" type="curve" smooth="yes"/>
      <point x="177" y="68"/>
      <point x="158" y="178"/>
      <point x="158" y="248" type="curve" smooth="yes"/>
      <point x="158" y="318"/>
      <point x="177" y="428"/>
      <point x="268" y="428" type="curve" smooth="yes"/>
      <point x="362" y="428"/>
      <point x="378" y="321"/>
      <point x="378" y="248" type="curve" smooth="yes"/>
    </contour>
    <contour>
      <point x="383" y="682" type="line"/>
      <point x="382" y="662"/>
      <point x="359" y="652"/>
      <point x="342" y="652" type="curve" smooth="yes"/>
      <point x="304" y="652"/>
      <point x="267" y="692"/>
      <point x="212" y="692" type="curve" smooth="yes"/>
      <point x="144" y="692"/>
      <point x="106" y="639"/>
      <point x="106" y="575" type="curve"/>
      <point x="171" y="575" type="line"/>
      <point x="171" y="595"/>
      <point x="194" y="605"/>
      <point x="211" y="605" type="curve" smooth="yes"/>
      <point x="249" y="605"/>
      <point x="286" y="565"/>
      <point x="341" y="565" type="curve" smooth="yes"/>
      <point x="409" y="565"/>
      <point x="447" y="618"/>
      <point x="447" y="682" type="curve"/>
    </contour>
  </outline>
</glyph>
<glyph name="odieresis" format="1">
  <advance width="536"/>
  <unicode hex="00F6"/>
  <outline>
    <contour>
      <point x="510" y="393"/>
      <point x="419" y="510"/>
      <point x="268" y="510" type="curve" smooth="yes"/>
      <point x="119" y="510"/>
      <point x="26" y="392"/>
      <point x="26" y="249" type="curve" smooth="yes"/>
      <point x="26" y="105"/>
      <point x="117" y="-12"/>
      <point x="268" y="-12" type="curve" smooth="yes"/>
      <point x="419" y="-12"/>
      <point x="510" y="105"/>
      <point x="510" y="249" type="curve" smooth="yes"/>
    </contour>
    <contour>
      <point x="378" y="175"/>
      <point x="362" y="68"/>
      <point x="268" y="68" type="curve" smooth="yes"/>
      <point x="177" y="68"/>
      <point x="158" y="178"/>
      <point x="158" y="248" type="curve" smooth="yes"/>
      <point x="158" y="318"/>
      <point x="177" y="428"/>
      <point x="268" y="428" type="curve" smooth="yes"/>
      <point x="362" y="428"/>
      <point x="378" y="321"/>
      <point x="378" y="248" type="curve" smooth="yes"/>
    </contour>
    <contour>
      <point x="404" y="661"/>
      <point x="378" y="686"/>
      <point x="346" y="686" type="curve" smooth="yes"/>
      <point x="315" y="686"/>
      <point x="289" y="660"/>
      <point x="289" y="629" type="curve" smooth="yes"/>
      <point x="289" y="598"/>
      <point x="315" y="572"/>
      <point x="346" y="572" type="curve" smooth="yes"/>
      <point x="378" y="572"/>
      <point x="404" y="597"/>
      <point x="404" y="629" type="curve" smooth="yes"/>
    </contour>
    <contour>
      <point x="243" y="661"/>
      <point x="218" y="686"/>
      <point x="186" y="686" type="curve" smooth="yes"/>
      <point x="154" y="686"/>
      <point x="129" y="661"/>
      <point x="129" y="629" type="curve" smooth="yes"/>
      <point x="129" y="597"/>
      <point x="154" y="572"/>
      <point x="186" y="572" type="curve" smooth="yes"/>
      <point x="218" y="572"/>
      <point x="243" y="597"/>
      <point x="243" y="629" type="curve" smooth="yes"/>
    </contour>
  </outline>
</glyph>
<glyph name="divide" format="1">
  <advance width="630"/>
  <unicode hex="00F7"/>
  <outline>
    <contour>
      <point x="392" y="474"/>
      <point x="358" y="509"/>
      <point x="315" y="509" type="curve" smooth="yes"/>
      <point x="272" y="509"/>
      <point x="238" y="474"/>
      <point x="238" y="431" type="curve" smooth="yes"/>
      <point x="238" y="389"/>
      <point x="272" y="354"/>
      <point x="315" y="354" type="curve" smooth="yes"/>
      <point x="358" y="354"/>
      <point x="392" y="389"/>
      <point x="392" y="431" type="curve" smooth="yes"/>
    </contour>
    <contour>
      <point x="564" y="204" type="line"/>
      <point x="564" y="292" type="line"/>
      <point x="66" y="292" type="line"/>
      <point x="66" y="204" type="line"/>
    </contour>
    <contour>
      <point x="393" y="108"/>
      <point x="358" y="143"/>
      <point x="316" y="143" type="curve" smooth="yes"/>
      <point x="273" y="143"/>
      <point x="238" y="108"/>
      <point x="238" y="66" type="curve" smooth="yes"/>
      <point x="238" y="23"/>
      <point x="273" y="-12"/>
      <point x="316" y="-12" type="curve" smooth="yes"/>
      <point x="358" y="-12"/>
      <point x="393" y="23"/>
      <point x="393" y="66" type="curve" smooth="yes"/>
    </contour>
  </outline>
</glyph>
<glyph name="oslash" format="1">
  <advance width="537"/>
  <unicode hex="00F8"/>
  <outline>
    <contour>
      <point x="511" y="325"/>
      <point x="484" y="403"/>
      <point x="426" y="454" type="curve"/>
      <point x="483" y="545" type="line"/>
      <point x="434" y="571" type="line"/>
      <point x="380" y="485" type="line"/>
      <point x="346" y="502"/>
      <point x="307" y="510"/>
      <point x="269" y="510" type="curve" smooth="yes"/>
      <point x="119" y="510"/>
      <point x="26" y="392"/>
      <point x="26" y="249" type="curve" smooth="yes"/>
      <point x="26" y="174"/>
      <point x="52" y="98"/>
      <point x="108" y="47" type="curve"/>
      <point x="44" y="-57" type="line"/>
      <point x="89" y="-91" type="line"/>
      <point x="154" y="15" type="line"/>
      <point x="189" y="-4"/>
      <point x="229" y="-12"/>
      <point x="269" y="-12" type="curve" smooth="yes"/>
      <point x="419" y="-12"/>
      <point x="511" y="104"/>
      <point x="511" y="249" type="curve" smooth="yes"/>
    </contour>
    <contour>
      <point x="172" y="150" type="line"/>
      <point x="162" y="182"/>
      <point x="159" y="215"/>
      <point x="159" y="248" type="curve" smooth="yes"/>
      <point x="159" y="318"/>
      <point x="178" y="428"/>
      <point x="269" y="428" type="curve" smooth="yes"/>
      <point x="291" y="428"/>
      <point x="314" y="421"/>
      <point x="331" y="405" type="curve"/>
    </contour>
    <contour>
      <point x="378" y="175"/>
      <point x="362" y="68"/>
      <point x="269" y="68" type="curve" smooth="yes"/>
      <point x="244" y="68"/>
      <point x="221" y="78"/>
      <point x="204" y="95" type="curve"/>
      <point x="364" y="353" type="line"/>
      <point x="375" y="320"/>
      <point x="378" y="283"/>
      <point x="378" y="248" type="curve" smooth="yes"/>
    </contour>
  </outline>
</glyph>
<glyph name="thorn" format="1">
  <advance width="558"/>
  <unicode hex="00FE"/>
  <outline>
    <contour>
      <point x="188" y="768" type="line"/>
      <point x="57" y="768" type="line"/>
      <point x="58" y="763"/>
      <point x="67" y="721"/>
      <point x="68" y="715" type="curve"/>
      <point x="68" y="-217" type="line"/>
      <point x="188" y="-217" type="line"/>
      <point x="188" y="18" type="line"/>
      <point x="218" y="-2"/>
      <point x="254" y="-12"/>
      <point x="295" y="-12" type="curve" smooth="yes"/>
      <point x="445" y="-12"/>
      <point x="530" y="111"/>
      <point x="530" y="251" type="curve" smooth="yes"/>
      <point x="530" y="370"/>
      <point x="462" y="508"/>
      <point x="327" y="508" type="curve" smooth="yes"/>
      <point x="272" y="508"/>
      <point x="230" y="493"/>
      <point x="188" y="457" type="curve"/>
    </contour>
    <contour>
      <point x="188" y="368" type="line"/>
      <point x="212" y="395"/>
      <point x="249" y="416"/>
      <point x="286" y="416" type="curve" smooth="yes"/>
      <point x="370" y="416"/>
      <point x="399" y="312"/>
      <point x="399" y="245" type="curve" smooth="yes"/>
      <point x="399" y="179"/>
      <point x="378" y="70"/>
      <point x="292" y="70" type="curve" smooth="yes"/>
      <point x="214" y="70"/>
      <point x="188" y="138"/>
      <point x="188" y="205" type="curve" smooth="yes"/>
    </contour>
  </outline>
</glyph>
<glyph name="dotlessi" format="1">
  <advance width="251"/>
  <unicode hex="0131"/>
  <outline>
    <contour>
      <point x="185" y="0" type="line"/>
      <point x="185" y="497" type="line"/>
      <point x="54" y="497" type="line"/>
      <point x="55" y="492"/>
      <point x="65" y="445"/>
      <point x="65" y="443" type="curve" smooth="yes"/>
      <point x="65" y="0" type="line"/>
    </contour>
  </outline>
</glyph>
<glyph name="Lslash" format="1">
  <advance width="492"/>
  <unicode hex="0141"/>
  <outline>
    <contour>
      <point x="492" y="0" type="line"/>
      <point x="492" y="99" type="line"/>
      <point x="205" y="99" type="line"/>
      <point x="205" y="309" type="line"/>
      <point x="402" y="400" type="line"/>
      <point x="402" y="498" type="line"/>
      <point x="205" y="406" type="line"/>
      <point x="205" y="732" type="line"/>
      <point x="53" y="732" type="line"/>
      <point x="54" y="727"/>
      <point x="65" y="679"/>
      <point x="66" y="672" type="curve"/>
      <point x="66" y="342" type="line"/>
      <point x="1" y="312" type="line"/>
      <point x="1" y="215" type="line"/>
      <point x="66" y="245" type="line"/>
      <point x="66" y="0" type="line"/>
    </contour>
  </outline>
</glyph>
<glyph name="lslash" format="1">
  <advance width="251"/>
  <unicode hex="0142"/>
  <outline>
    <contour>
      <point x="185" y="0" type="line"/>
      <point x="185" y="330" type="line"/>
      <point x="249" y="360" type="line"/>
      <point x="249" y="458" type="line"/>
      <point x="185" y="428" type="line"/>
      <point x="185" y="768" type="line"/>
      <point x="52" y="768" type="line"/>
      <point x="53" y="763"/>
      <point x="62" y="721"/>
      <point x="63" y="715" type="curve"/>
      <point x="63" y="371" type="line"/>
      <point x="3" y="343" type="line"/>
      <point x="3" y="246" type="line"/>
      <point x="63" y="274" type="line"/>
      <point x="63" y="0" type="line"/>
    </contour>
  </outline>
</glyph>
<glyph name="OE" format="1">
  <advance width="1055"/>
  <unicode hex="0152"/>
  <outline>
    <contour>
      <point x="1030" y="0" type="line"/>
      <point x="1030" y="99" type="line"/>
      <point x="722" y="99" type="line"/>
      <point x="722" y="327" type="line"/>
      <point x="958" y="327" type="line"/>
      <point x="958" y="426" type="line"/>
      <point x="722" y="426" type="line"/>
      <point x="722" y="633" type="line"/>
      <point x="1030" y="633" type="line"/>
      <point x="1030" y="732" type="line"/>
      <point x="585" y="732" type="line"/>
      <point x="585" y="680" type="line"/>
      <point x="530" y="720"/>
      <point x="459" y="743"/>
      <point x="373" y="743" type="curve" smooth="yes"/>
      <point x="149" y="743"/>
      <point x="24" y="580"/>
      <point x="24" y="366" type="curve" smooth="yes"/>
      <point x="24" y="154"/>
      <point x="149" y="-11"/>
      <point x="373" y="-11" type="curve" smooth="yes"/>
      <point x="458" y="-11"/>
      <point x="529" y="13"/>
      <point x="585" y="54" type="curve"/>
      <point x="585" y="0" type="line"/>
    </contour>
    <contour>
      <point x="216" y="88"/>
      <point x="171" y="235"/>
      <point x="171" y="366" type="curve" smooth="yes"/>
      <point x="171" y="495"/>
      <point x="219" y="644"/>
      <point x="373" y="644" type="curve" smooth="yes"/>
      <point x="531" y="644"/>
      <point x="575" y="496"/>
      <point x="575" y="366" type="curve" smooth="yes"/>
      <point x="575" y="236"/>
      <point x="527" y="88"/>
      <point x="373" y="88" type="curve" smooth="yes"/>
    </contour>
  </outline>
</glyph>
<glyph name="oe" format="1">
  <advance width="848"/>
  <unicode hex="0153"/>
  <outline>
    <contour>
      <point x="756" y="125" type="line"/>
      <point x="726" y="95"/>
      <point x="677" y="72"/>
      <point x="635" y="72" type="curve" smooth="yes"/>
      <point x="547" y="72"/>
      <point x="506" y="158"/>
      <point x="506" y="234" type="curve"/>
      <point x="768" y="234" type="line" smooth="yes"/>
      <point x="808" y="234"/>
      <point x="819" y="259"/>
      <point x="819" y="294" type="curve" smooth="yes"/>
      <point x="819" y="424"/>
      <point x="745" y="511"/>
      <point x="612" y="511" type="curve" smooth="yes"/>
      <point x="540" y="511"/>
      <point x="483" y="482"/>
      <point x="444" y="436" type="curve"/>
      <point x="403" y="482"/>
      <point x="343" y="510"/>
      <point x="269" y="510" type="curve" smooth="yes"/>
      <point x="120" y="510"/>
      <point x="27" y="392"/>
      <point x="27" y="249" type="curve" smooth="yes"/>
      <point x="27" y="105"/>
      <point x="118" y="-11"/>
      <point x="269" y="-11" type="curve" smooth="yes"/>
      <point x="343" y="-11"/>
      <point x="402" y="16"/>
      <point x="443" y="62" type="curve"/>
      <point x="486" y="16"/>
      <point x="549" y="-11"/>
      <point x="629" y="-11" type="curve" smooth="yes"/>
      <point x="684" y="-11"/>
      <point x="762" y="5"/>
      <point x="807" y="42" type="curve"/>
    </contour>
    <contour>
      <point x="178" y="72"/>
      <point x="159" y="178"/>
      <point x="159" y="248" type="curve" smooth="yes"/>
      <point x="159" y="318"/>
      <point x="178" y="428"/>
      <point x="269" y="428" type="curve" smooth="yes"/>
      <point x="363" y="428"/>
      <point x="379" y="321"/>
      <point x="379" y="248" type="curve" smooth="yes"/>
      <point x="379" y="175"/>
      <point x="363" y="72"/>
      <point x="269" y="72" type="curve" smooth="yes"/>
    </contour>
    <contour>
      <point x="509" y="313" type="line"/>
      <point x="512" y="365"/>
      <point x="557" y="429"/>
      <point x="613" y="429" type="curve" smooth="yes"/>
      <point x="668" y="429"/>
      <point x="694" y="386"/>
      <point x="694" y="335" type="curve" smooth="yes"/>
      <point x="694" y="322"/>
      <point x="692" y="313"/>
      <point x="677" y="313" type="curve" smooth="yes"/>
    </contour>
  </outline>
</glyph>
<glyph name="Scaron" format="1">
  <advance width="516"/>
  <unicode hex="0160"/>
  <outline>
    <contour>
      <point x="497" y="415"/>
      <point x="174" y="385"/>
      <point x="174" y="517" type="curve" smooth="yes"/>
      <point x="174" y="563"/>
      <point x="225" y="587"/>
      <point x="278" y="587" type="curve" smooth="yes"/>
      <point x="325" y="587"/>
      <point x="380" y="570"/>
      <point x="416" y="541" type="curve"/>
      <point x="485" y="628" type="line"/>
      <point x="440" y="661"/>
      <point x="350" y="683"/>
      <point x="291" y="683" type="curve" smooth="yes"/>
      <point x="137" y="683"/>
      <point x="28" y="621"/>
      <point x="28" y="491" type="curve" smooth="yes"/>
      <point x="28" y="281"/>
      <point x="351" y="311"/>
      <point x="351" y="174" type="curve" smooth="yes"/>
      <point x="351" y="116"/>
      <point x="290" y="84"/>
      <point x="226" y="84" type="curve" smooth="yes"/>
      <point x="162" y="84"/>
      <point x="97" y="112"/>
      <point x="51" y="151" type="curve"/>
      <point x="4" y="41" type="line"/>
      <point x="75" y="3"/>
      <point x="157" y="-12"/>
      <point x="239" y="-12" type="curve" smooth="yes"/>
      <point x="376" y="-12"/>
      <point x="497" y="62"/>
      <point x="497" y="197" type="curve" smooth="yes"/>
    </contour>
    <contour>
      <point x="404" y="861" type="line"/>
      <point x="328" y="861" type="line"/>
      <point x="259" y="787" type="line"/>
      <point x="189" y="861" type="line"/>
      <point x="111" y="861" type="line"/>
      <point x="210" y="716" type="line"/>
      <point x="308" y="716" type="line"/>
    </contour>
  </outline>
</glyph>
<glyph name="Ydieresis" format="1">
  <advance width="584"/>
  <unicode hex="0178"/>
  <outline>
    <contour>
      <point x="574" y="674" type="line"/>
      <point x="454" y="674" type="line"/>
      <point x="304" y="401" type="line"/>
      <point x="158" y="674" type="line"/>
      <point x="10" y="674" type="line"/>
      <point x="224" y="274" type="line"/>
      <point x="224" y="0" type="line"/>
      <point x="357" y="0" type="line"/>
      <point x="357" y="274" type="line"/>
    </contour>
    <contour>
      <point x="444" y="824"/>
      <point x="417" y="849"/>
      <point x="386" y="849" type="curve" smooth="yes"/>
      <point x="354" y="849"/>
      <point x="329" y="823"/>
      <point x="329" y="792" type="curve" smooth="yes"/>
      <point x="329" y="760"/>
      <point x="354" y="735"/>
      <point x="386" y="735" type="curve" smooth="yes"/>
      <point x="417" y="735"/>
      <point x="444" y="760"/>
      <point x="444" y="792" type="curve" smooth="yes"/>
    </contour>
    <contour>
      <point x="283" y="823"/>
      <point x="258" y="849"/>
      <point x="226" y="849" type="curve" smooth="yes"/>
      <point x="194" y="849"/>
      <point x="169" y="823"/>
      <point x="169" y="792" type="curve" smooth="yes"/>
      <point x="169" y="760"/>
      <point x="194" y="735"/>
      <point x="226" y="735" type="curve" smooth="yes"/>
      <point x="258" y="735"/>
      <point x="283" y="760"/>
      <point x="283" y="792" type="curve" smooth="yes"/>
    </contour>
  </outline>
</glyph>
<glyph name="Zcaron" format="1">
  <advance width="571"/>
  <unicode hex="017D"/>
  <outline>
    <contour>
      <point x="558" y="99" type="line"/>
      <point x="182" y="99" type="line"/>
      <point x="540" y="601" type="line"/>
      <point x="540" y="674" type="line"/>
      <point x="37" y="674" type="line"/>
      <point x="37" y="576" type="line"/>
      <point x="364" y="576" type="line"/>
      <point x="13" y="82" type="line"/>
      <point x="13" y="0" type="line"/>
      <point x="546" y="0" type="line"/>
    </contour>
    <contour>
      <point x="447" y="861" type="line"/>
      <point x="371" y="861" type="line"/>
      <point x="302" y="787" type="line"/>
      <point x="232" y="861" type="line"/>
      <point x="154" y="861" type="line"/>
      <point x="253" y="716" type="line"/>
      <point x="351" y="716" type="line"/>
    </contour>
  </outline>
</glyph>
<glyph name="florin" format="1">
  <advance width="297"/>
  <unicode hex="0192"/>
  <outline>
    <contour>
      <point x="426" y="706" type="line"/>
      <point x="395" y="729"/>
      <point x="358" y="743"/>
      <point x="320" y="743" type="curve" smooth="yes"/>
      <point x="252" y="743"/>
      <point x="192" y="720"/>
      <point x="154" y="662" type="curve" smooth="yes"/>
      <point x="127" y="621"/>
      <point x="122" y="576"/>
      <point x="104" y="532" type="curve" smooth="yes"/>
      <point x="89" y="494"/>
      <point x="41" y="488"/>
      <point x="6" y="487" type="curve"/>
      <point x="6" y="417" type="line"/>
      <point x="81" y="417" type="line"/>
      <point x="-1" y="-39" type="line" smooth="yes"/>
      <point x="-9" y="-85"/>
      <point x="-42" y="-111"/>
      <point x="-82" y="-111" type="curve" smooth="yes"/>
      <point x="-91" y="-111" type="line"/>
      <point x="-114" y="-189" type="line"/>
      <point x="-98" y="-192"/>
      <point x="-82" y="-194"/>
      <point x="-65" y="-194" type="curve" smooth="yes"/>
      <point x="53" y="-194"/>
      <point x="109" y="-105"/>
      <point x="131" y="1" type="curve" smooth="yes"/>
      <point x="159" y="139"/>
      <point x="182" y="278"/>
      <point x="203" y="417" type="curve"/>
      <point x="334" y="417" type="line"/>
      <point x="359" y="497" type="line"/>
      <point x="215" y="497" type="line"/>
      <point x="224" y="549"/>
      <point x="246" y="661"/>
      <point x="316" y="661" type="curve" smooth="yes"/>
      <point x="350" y="661"/>
      <point x="365" y="653"/>
      <point x="392" y="636" type="curve"/>
    </contour>
  </outline>
</glyph>
<glyph name="circumflex" format="1">
  <advance width="275"/>
  <unicode hex="02C6"/>
  <outline>
    <contour>
      <point x="285" y="588" type="line"/>
      <point x="186" y="733" type="line"/>
      <point x="88" y="733" type="line"/>
      <point x="-8" y="588" type="line"/>
      <point x="68" y="588" type="line"/>
      <point x="137" y="662" type="line"/>
      <point x="207" y="588" type="line"/>
    </contour>
  </outline>
</glyph>
<glyph name="caron" format="1">
  <advance width="275"/>
  <unicode hex="02C7"/>
  <outline>
    <contour>
      <point x="285" y="733" type="line"/>
      <point x="209" y="733" type="line"/>
      <point x="140" y="659" type="line"/>
      <point x="70" y="733" type="line"/>
      <point x="-8" y="733" type="line"/>
      <point x="91" y="588" type="line"/>
      <point x="189" y="588" type="line"/>
    </contour>
  </outline>
</glyph>
<glyph name="breve" format="1">
  <advance width="276"/>
  <unicode hex="02D8"/>
  <outline>
    <contour>
      <point x="220" y="732" type="line"/>
      <point x="210" y="687"/>
      <point x="186" y="662"/>
      <point x="138" y="662" type="curve" smooth="yes"/>
      <point x="89" y="662"/>
      <point x="66" y="686"/>
      <point x="55" y="732" type="curve"/>
      <point x="-12" y="732" type="line"/>
      <point x="-4" y="641"/>
      <point x="40" y="572"/>
      <point x="138" y="572" type="curve" smooth="yes"/>
      <point x="242" y="572"/>
      <point x="277" y="639"/>
      <point x="289" y="732" type="curve"/>
    </contour>
  </outline>
</glyph>
<glyph name="dotaccent" format="1">
  <advance width="285"/>
  <unicode hex="02D9"/>
  <outline>
    <contour>
      <point x="205" y="659"/>
      <point x="178" y="686"/>
      <point x="144" y="686" type="curve" smooth="yes"/>
      <point x="110" y="686"/>
      <point x="83" y="659"/>
      <point x="83" y="625" type="curve" smooth="yes"/>
      <point x="83" y="591"/>
      <point x="110" y="564"/>
      <point x="144" y="564" type="curve" smooth="yes"/>
      <point x="178" y="564"/>
      <point x="205" y="591"/>
      <point x="205" y="625" type="curve" smooth="yes"/>
    </contour>
  </outline>
</glyph>
<glyph name="ogonek" format="1">
  <advance width="279"/>
  <unicode hex="02DB"/>
  <outline>
    <contour>
      <point x="251" y="-104" type="line"/>
      <point x="230" y="-117"/>
      <point x="193" y="-140"/>
      <point x="168" y="-140" type="curve" smooth="yes"/>
      <point x="143" y="-140"/>
      <point x="126" y="-128"/>
      <point x="126" y="-102" type="curve" smooth="yes"/>
      <point x="126" y="-49"/>
      <point x="218" y="-9"/>
      <point x="258" y="14" type="curve"/>
      <point x="223" y="33" type="line"/>
      <point x="155" y="22"/>
      <point x="28" y="-37"/>
      <point x="28" y="-118" type="curve" smooth="yes"/>
      <point x="28" y="-180"/>
      <point x="74" y="-211"/>
      <point x="132" y="-211" type="curve" smooth="yes"/>
      <point x="185" y="-211"/>
      <point x="234" y="-186"/>
      <point x="274" y="-154" type="curve"/>
    </contour>
  </outline>
</glyph>
<glyph name="tilde" format="1">
  <advance width="353"/>
  <unicode hex="02DC"/>
  <outline>
    <contour>
      <point x="285" y="682" type="line"/>
      <point x="284" y="662"/>
      <point x="261" y="652"/>
      <point x="244" y="652" type="curve" smooth="yes"/>
      <point x="206" y="652"/>
      <point x="169" y="692"/>
      <point x="114" y="692" type="curve" smooth="yes"/>
      <point x="46" y="692"/>
      <point x="8" y="639"/>
      <point x="8" y="575" type="curve"/>
      <point x="73" y="575" type="line"/>
      <point x="73" y="595"/>
      <point x="96" y="605"/>
      <point x="113" y="605" type="curve" smooth="yes"/>
      <point x="151" y="605"/>
      <point x="188" y="565"/>
      <point x="243" y="565" type="curve" smooth="yes"/>
      <point x="311" y="565"/>
      <point x="349" y="618"/>
      <point x="349" y="682" type="curve"/>
    </contour>
  </outline>
</glyph>
<glyph name="hungarumlaut" format="1">
  <advance width="405"/>
  <unicode hex="02DD"/>
  <outline>
    <contour>
      <point x="371" y="732" type="line"/>
      <point x="236" y="732" type="line"/>
      <point x="167" y="590" type="line"/>
      <point x="260" y="590" type="line"/>
    </contour>
    <contour>
      <point x="214" y="732" type="line"/>
      <point x="79" y="732" type="line"/>
      <point x="10" y="590" type="line"/>
      <point x="103" y="590" type="line"/>
    </contour>
  </outline>
</glyph>
<glyph name="pi" format="1">
  <advance width="669"/>
  <unicode hex="03C0"/>
  <outline>
    <contour>
      <point x="583" y="98" type="line"/>
      <point x="571" y="93"/>
      <point x="558" y="90"/>
      <point x="545" y="90" type="curve" smooth="yes"/>
      <point x="500" y="90"/>
      <point x="487" y="133"/>
      <point x="487" y="171" type="curve" smooth="yes"/>
      <point x="487" y="248"/>
      <point x="505" y="334"/>
      <point x="526" y="407" type="curve"/>
      <point x="574" y="412"/>
      <point x="624" y="420"/>
      <point x="654" y="462" type="curve"/>
      <point x="620" y="520" type="line"/>
      <point x="579" y="501"/>
      <point x="563" y="497"/>
      <point x="517" y="497" type="curve" smooth="yes"/>
      <point x="189" y="497" type="line" smooth="yes"/>
      <point x="91" y="497"/>
      <point x="24" y="442"/>
      <point x="15" y="344" type="curve"/>
      <point x="82" y="326" type="line"/>
      <point x="90" y="367"/>
      <point x="122" y="407"/>
      <point x="165" y="407" type="curve" smooth="yes"/>
      <point x="177" y="407" type="line"/>
      <point x="175" y="397"/>
      <point x="170" y="381"/>
      <point x="170" y="371" type="curve" smooth="yes"/>
      <point x="170" y="181" type="line" smooth="yes"/>
      <point x="170" y="117"/>
      <point x="133" y="59"/>
      <point x="80" y="25" type="curve"/>
      <point x="117" y="-30" type="line"/>
      <point x="292" y="36"/>
      <point x="293" y="219"/>
      <point x="293" y="380" type="curve" smooth="yes"/>
      <point x="293" y="407" type="line"/>
      <point x="424" y="407" type="line"/>
      <point x="385" y="354"/>
      <point x="371" y="249"/>
      <point x="371" y="170" type="curve" smooth="yes"/>
      <point x="371" y="84"/>
      <point x="407" y="-10"/>
      <point x="507" y="-10" type="curve" smooth="yes"/>
      <point x="544" y="-10"/>
      <point x="589" y="5"/>
      <point x="615" y="31" type="curve"/>
    </contour>
  </outline>
</glyph>
<glyph name="endash" format="1">
  <advance width="502"/>
  <unicode hex="2013"/>
  <outline>
    <contour>
      <point x="489" y="211" type="line"/>
      <point x="489" y="305" type="line"/>
      <point x="13" y="305" type="line"/>
      <point x="13" y="211" type="line"/>
    </contour>
  </outline>
</glyph>
<glyph name="quoteright" format="1">
  <advance width="286"/>
  <unicode hex="2019"/>
  <outline>
    <contour>
      <point x="228" y="700"/>
      <point x="199" y="745"/>
      <point x="147" y="745" type="curve" smooth="yes"/>
      <point x="107" y="745"/>
      <point x="78" y="714"/>
      <point x="78" y="675" type="curve" smooth="yes"/>
      <point x="78" y="620"/>
      <point x="126" y="612"/>
      <point x="126" y="586" type="curve" smooth="yes"/>
      <point x="126" y="565"/>
      <point x="95" y="528"/>
      <point x="80" y="513" type="curve"/>
      <point x="92" y="499"/>
      <point x="105" y="486"/>
      <point x="119" y="472" type="curve"/>
      <point x="176" y="514"/>
      <point x="228" y="577"/>
      <point x="228" y="652" type="curve" smooth="yes"/>
    </contour>
  </outline>
</glyph>
<glyph name="quotedblleft" format="1">
  <advance width="487"/>
  <unicode hex="201C"/>
  <outline>
    <contour>
      <point x="418" y="591"/>
      <point x="370" y="600"/>
      <point x="370" y="625" type="curve" smooth="yes"/>
      <point x="370" y="646"/>
      <point x="400" y="683"/>
      <point x="416" y="698" type="curve"/>
      <point x="404" y="712"/>
      <point x="390" y="726"/>
      <point x="377" y="739" type="curve"/>
      <point x="319" y="697"/>
      <point x="268" y="634"/>
      <point x="268" y="559" type="curve" smooth="yes"/>
      <point x="268" y="511"/>
      <point x="297" y="466"/>
      <point x="349" y="466" type="curve" smooth="yes"/>
      <point x="388" y="466"/>
      <point x="418" y="498"/>
      <point x="418" y="536" type="curve" smooth="yes"/>
    </contour>
    <contour>
      <point x="216" y="591"/>
      <point x="168" y="600"/>
      <point x="168" y="625" type="curve" smooth="yes"/>
      <point x="168" y="646"/>
      <point x="198" y="683"/>
      <point x="214" y="698" type="curve"/>
      <point x="202" y="712"/>
      <point x="188" y="726"/>
      <point x="175" y="739" type="curve"/>
      <point x="117" y="697"/>
      <point x="66" y="634"/>
      <point x="66" y="559" type="curve" smooth="yes"/>
      <point x="66" y="511"/>
      <point x="95" y="466"/>
      <point x="147" y="466" type="curve" smooth="yes"/>
      <point x="186" y="466"/>
      <point x="216" y="498"/>
      <point x="216" y="536" type="curve" smooth="yes"/>
    </contour>
  </outline>
</glyph>
<glyph name="quotedblright" format="1">
  <advance width="487"/>
  <unicode hex="201D"/>
  <outline>
    <contour>
      <point x="430" y="700"/>
      <point x="401" y="745"/>
      <point x="349" y="745" type="curve" smooth="yes"/>
      <point x="310" y="745"/>
      <point x="280" y="714"/>
      <point x="280" y="675" type="curve" smooth="yes"/>
      <point x="280" y="620"/>
      <point x="328" y="612"/>
      <point x="328" y="586" type="curve" smooth="yes"/>
      <point x="328" y="565"/>
      <point x="297" y="528"/>
      <point x="282" y="513" type="curve"/>
      <point x="294" y="499"/>
      <point x="307" y="486"/>
      <point x="321" y="472" type="curve"/>
      <point x="378" y="514"/>
      <point x="430" y="577"/>
      <point x="430" y="652" type="curve" smooth="yes"/>
    </contour>
    <contour>
      <point x="228" y="700"/>
      <point x="199" y="745"/>
      <point x="147" y="745" type="curve" smooth="yes"/>
      <point x="108" y="745"/>
      <point x="78" y="714"/>
      <point x="78" y="675" type="curve" smooth="yes"/>
      <point x="78" y="620"/>
      <point x="126" y="612"/>
      <point x="126" y="586" type="curve" smooth="yes"/>
      <point x="126" y="565"/>
      <point x="95" y="528"/>
      <point x="80" y="513" type="curve"/>
      <point x="92" y="499"/>
      <point x="105" y="486"/>
      <point x="119" y="472" type="curve"/>
      <point x="176" y="514"/>
      <point x="228" y="577"/>
      <point x="228" y="652" type="curve" smooth="yes"/>
    </contour>
  </outline>
</glyph>
<glyph name="quotedblbase" format="1">
  <advance width="477"/>
  <unicode hex="201E"/>
  <outline>
    <contour>
      <point x="415" y="94"/>
      <point x="386" y="139"/>
      <point x="334" y="139" type="curve" smooth="yes"/>
      <point x="295" y="139"/>
      <point x="265" y="107"/>
      <point x="265" y="69" type="curve" smooth="yes"/>
      <point x="265" y="14"/>
      <point x="313" y="5"/>
      <point x="313" y="-20" type="curve" smooth="yes"/>
      <point x="313" y="-41"/>
      <point x="283" y="-78"/>
      <point x="267" y="-93" type="curve"/>
      <point x="279" y="-107"/>
      <point x="293" y="-121"/>
      <point x="306" y="-134" type="curve"/>
      <point x="364" y="-92"/>
      <point x="415" y="-29"/>
      <point x="415" y="46" type="curve" smooth="yes"/>
    </contour>
    <contour>
      <point x="213" y="94"/>
      <point x="184" y="139"/>
      <point x="132" y="139" type="curve" smooth="yes"/>
      <point x="93" y="139"/>
      <point x="63" y="107"/>
      <point x="63" y="69" type="curve" smooth="yes"/>
      <point x="63" y="14"/>
      <point x="111" y="5"/>
      <point x="111" y="-20" type="curve" smooth="yes"/>
      <point x="111" y="-41"/>
      <point x="81" y="-78"/>
      <point x="65" y="-93" type="curve"/>
      <point x="77" y="-107"/>
      <point x="91" y="-121"/>
      <point x="104" y="-134" type="curve"/>
      <point x="162" y="-92"/>
      <point x="213" y="-29"/>
      <point x="213" y="46" type="curve" smooth="yes"/>
    </contour>
  </outline>
</glyph>
<glyph name="daggerdbl" format="1">
  <advance width="523"/>
  <unicode hex="2021"/>
  <outline>
    <contour>
      <point x="477" y="112" type="line"/>
      <point x="410" y="165" type="line"/>
      <point x="297" y="145" type="line"/>
      <point x="321" y="309" type="line"/>
      <point x="294" y="452" type="line"/>
      <point x="413" y="430" type="line"/>
      <point x="477" y="481" type="line"/>
      <point x="413" y="539" type="line"/>
      <point x="294" y="514" type="line"/>
      <point x="321" y="658" type="line"/>
      <point x="259" y="740" type="line"/>
      <point x="202" y="658" type="line"/>
      <point x="228" y="514" type="line"/>
      <point x="112" y="539" type="line"/>
      <point x="46" y="485" type="line"/>
      <point x="112" y="430" type="line"/>
      <point x="228" y="452" type="line"/>
      <point x="203" y="309" type="line"/>
      <point x="229" y="145" type="line"/>
      <point x="112" y="165" type="line"/>
      <point x="46" y="117" type="line"/>
      <point x="112" y="58" type="line"/>
      <point x="228" y="83" type="line"/>
      <point x="202" y="-61" type="line"/>
      <point x="265" y="-139" type="line"/>
      <point x="321" y="-61" type="line"/>
      <point x="298" y="83" type="line"/>
      <point x="410" y="58" type="line"/>
    </contour>
  </outline>
</glyph>
<glyph name="ellipsis" format="1">
  <advance width="825"/>
  <unicode hex="2026"/>
  <outline>
    <contour>
      <point x="739" y="108"/>
      <point x="704" y="143"/>
      <point x="662" y="143" type="curve" smooth="yes"/>
      <point x="619" y="143"/>
      <point x="584" y="108"/>
      <point x="584" y="65" type="curve" smooth="yes"/>
      <point x="584" y="23"/>
      <point x="619" y="-12"/>
      <point x="662" y="-12" type="curve" smooth="yes"/>
      <point x="704" y="-12"/>
      <point x="739" y="23"/>
      <point x="739" y="65" type="curve" smooth="yes"/>
    </contour>
    <contour>
      <point x="491" y="108"/>
      <point x="457" y="143"/>
      <point x="414" y="143" type="curve" smooth="yes"/>
      <point x="371" y="143"/>
      <point x="337" y="108"/>
      <point x="337" y="65" type="curve" smooth="yes"/>
      <point x="337" y="23"/>
      <point x="371" y="-12"/>
      <point x="414" y="-12" type="curve" smooth="yes"/>
      <point x="457" y="-12"/>
      <point x="491" y="23"/>
      <point x="491" y="65" type="curve" smooth="yes"/>
    </contour>
    <contour>
      <point x="244" y="108"/>
      <point x="209" y="143"/>
      <point x="166" y="143" type="curve" smooth="yes"/>
      <point x="124" y="143"/>
      <point x="89" y="108"/>
      <point x="89" y="65" type="curve" smooth="yes"/>
      <point x="89" y="23"/>
      <point x="124" y="-12"/>
      <point x="166" y="-12" type="curve" smooth="yes"/>
      <point x="209" y="-12"/>
      <point x="244" y="23"/>
      <point x="244" y="65" type="curve" smooth="yes"/>
    </contour>
  </outline>
</glyph>
<glyph name="perthousand" format="1">
  <advance width="1148"/>
  <unicode hex="2030"/>
  <outline>
    <contour>
      <point x="1171" y="314"/>
      <point x="1117" y="405"/>
      <point x="994" y="405" type="curve" smooth="yes"/>
      <point x="871" y="405"/>
      <point x="817" y="314"/>
      <point x="817" y="201" type="curve" smooth="yes"/>
      <point x="817" y="88"/>
      <point x="871" y="-4"/>
      <point x="994" y="-4" type="curve" smooth="yes"/>
      <point x="1117" y="-4"/>
      <point x="1171" y="88"/>
      <point x="1171" y="201" type="curve" smooth="yes"/>
    </contour>
    <contour>
      <point x="785" y="314"/>
      <point x="731" y="405"/>
      <point x="608" y="405" type="curve" smooth="yes"/>
      <point x="485" y="405"/>
      <point x="431" y="314"/>
      <point x="431" y="201" type="curve" smooth="yes"/>
      <point x="431" y="88"/>
      <point x="485" y="-4"/>
      <point x="608" y="-4" type="curve" smooth="yes"/>
      <point x="731" y="-4"/>
      <point x="785" y="88"/>
      <point x="785" y="201" type="curve" smooth="yes"/>
    </contour>
    <contour>
      <point x="611" y="699" type="line"/>
      <point x="284" y="699" type="line"/>
      <point x="261" y="709"/>
      <point x="235" y="713"/>
      <point x="210" y="713" type="curve" smooth="yes"/>
      <point x="87" y="713"/>
      <point x="33" y="622"/>
      <point x="33" y="509" type="curve" smooth="yes"/>
      <point x="33" y="396"/>
      <point x="87" y="304"/>
      <point x="210" y="304" type="curve" smooth="yes"/>
      <point x="332" y="304"/>
      <point x="387" y="396"/>
      <point x="387" y="509" type="curve" smooth="yes"/>
      <point x="387" y="556"/>
      <point x="377" y="605"/>
      <point x="350" y="645" type="curve"/>
      <point x="520" y="645" type="line"/>
      <point x="197" y="-13" type="line"/>
      <point x="264" y="-13" type="line"/>
    </contour>
    <contour>
      <point x="1062" y="156"/>
      <point x="1056" y="75"/>
      <point x="994" y="75" type="curve" smooth="yes"/>
      <point x="932" y="75"/>
      <point x="926" y="156"/>
      <point x="926" y="201" type="curve" smooth="yes"/>
      <point x="926" y="247"/>
      <point x="932" y="326"/>
      <point x="994" y="326" type="curve" smooth="yes"/>
      <point x="1056" y="326"/>
      <point x="1062" y="247"/>
      <point x="1062" y="201" type="curve" smooth="yes"/>
    </contour>
    <contour>
      <point x="676" y="156"/>
      <point x="670" y="75"/>
      <point x="608" y="75" type="curve" smooth="yes"/>
      <point x="546" y="75"/>
      <point x="540" y="156"/>
      <point x="540" y="201" type="curve" smooth="yes"/>
      <point x="540" y="247"/>
      <point x="546" y="326"/>
      <point x="608" y="326" type="curve" smooth="yes"/>
      <point x="670" y="326"/>
      <point x="676" y="247"/>
      <point x="676" y="201" type="curve" smooth="yes"/>
    </contour>
    <contour>
      <point x="278" y="464"/>
      <point x="271" y="383"/>
      <point x="210" y="383" type="curve" smooth="yes"/>
      <point x="148" y="383"/>
      <point x="142" y="464"/>
      <point x="142" y="509" type="curve" smooth="yes"/>
      <point x="142" y="554"/>
      <point x="148" y="634"/>
      <point x="210" y="634" type="curve" smooth="yes"/>
      <point x="271" y="634"/>
      <point x="278" y="554"/>
      <point x="278" y="509" type="curve" smooth="yes"/>
    </contour>
  </outline>
</glyph>
<glyph name="guilsinglright" format="1">
  <advance width="329"/>
  <unicode hex="203A"/>
  <outline>
    <contour>
      <point x="280" y="332" type="line"/>
      <point x="128" y="504" type="line"/>
      <point x="51" y="490" type="line"/>
      <point x="171" y="332" type="line"/>
      <point x="49" y="173" type="line"/>
      <point x="124" y="162" type="line"/>
    </contour>
  </outline>
</glyph>
<glyph name="fraction" format="1">
  <advance width="132"/>
  <unicode hex="2044"/>
  <outline>
    <contour>
      <point x="251" y="732" type="line"/>
      <point x="157" y="732" type="line"/>
      <point x="-112" y="0" type="line"/>
      <point x="-19" y="0" type="line"/>
    </contour>
  </outline>
</glyph>
<glyph name="Euro" format="1">
  <advance width="513"/>
  <unicode hex="20AC"/>
  <outline>
    <contour>
      <point x="452" y="106" type="line"/>
      <point x="423" y="85"/>
      <point x="391" y="74"/>
      <point x="351" y="74" type="curve" smooth="yes"/>
      <point x="282" y="74"/>
      <point x="245" y="123"/>
      <point x="229" y="182" type="curve"/>
      <point x="402" y="182" type="line"/>
      <point x="413" y="229" type="line"/>
      <point x="220" y="229" type="line"/>
      <point x="219" y="240"/>
      <point x="219" y="251"/>
      <point x="219" y="262" type="curve" smooth="yes"/>
      <point x="219" y="291" type="line"/>
      <point x="426" y="291" type="line"/>
      <point x="437" y="338" type="line"/>
      <point x="226" y="338" type="line"/>
      <point x="239" y="397"/>
      <point x="273" y="439"/>
      <point x="349" y="439" type="curve" smooth="yes"/>
      <point x="382" y="439"/>
      <point x="423" y="428"/>
      <point x="452" y="407" type="curve"/>
      <point x="473" y="500" type="line"/>
      <point x="433" y="516"/>
      <point x="382" y="523"/>
      <point x="346" y="523" type="curve" smooth="yes"/>
      <point x="214" y="523"/>
      <point x="126" y="448"/>
      <point x="98" y="338" type="curve"/>
      <point x="44" y="338" type="line"/>
      <point x="35" y="291" type="line"/>
      <point x="90" y="291" type="line"/>
      <point x="89" y="280"/>
      <point x="89" y="270"/>
      <point x="89" y="259" type="curve" smooth="yes"/>
      <point x="89" y="249"/>
      <point x="89" y="239"/>
      <point x="90" y="229" type="curve"/>
      <point x="21" y="229" type="line"/>
      <point x="10" y="182" type="line"/>
      <point x="97" y="182" type="line"/>
      <point x="121" y="67"/>
      <point x="204" y="-11"/>
      <point x="345" y="-11" type="curve" smooth="yes"/>
      <point x="400" y="-11"/>
      <point x="441" y="-1"/>
      <point x="483" y="20" type="curve"/>
    </contour>
  </outline>
</glyph>
<glyph name="trademark" format="1">
  <advance width="568"/>
  <unicode hex="2122"/>
  <outline>
    <contour>
      <point x="513" y="497" type="line"/>
      <point x="513" y="732" type="line"/>
      <point x="440" y="732" type="line"/>
      <point x="389" y="596" type="line"/>
      <point x="337" y="733" type="line"/>
      <point x="263" y="733" type="line"/>
      <point x="263" y="497" type="line"/>
      <point x="315" y="497" type="line"/>
      <point x="315" y="631" type="line"/>
      <point x="331" y="588"/>
      <point x="348" y="544"/>
      <point x="367" y="497" type="curve"/>
      <point x="403" y="497" type="line"/>
      <point x="454" y="625" type="line"/>
      <point x="454" y="497" type="line"/>
    </contour>
    <contour>
      <point x="251" y="686" type="line"/>
      <point x="251" y="733" type="line"/>
      <point x="48" y="733" type="line"/>
      <point x="48" y="686" type="line"/>
      <point x="119" y="686" type="line"/>
      <point x="119" y="497" type="line"/>
      <point x="179" y="497" type="line"/>
      <point x="179" y="686" type="line"/>
    </contour>
  </outline>
</glyph>
<glyph name="Omega" format="1">
  <advance width="781"/>
  <unicode hex="2126"/>
  <outline>
    <contour>
      <point x="751" y="0" type="line"/>
      <point x="751" y="99" type="line"/>
      <point x="684" y="99" type="line"/>
      <point x="612" y="93" type="line"/>
      <point x="687" y="138"/>
      <point x="737" y="257"/>
      <point x="737" y="367" type="curve" smooth="yes"/>
      <point x="737" y="581"/>
      <point x="614" y="743"/>
      <point x="391" y="743" type="curve" smooth="yes"/>
      <point x="167" y="743"/>
      <point x="44" y="581"/>
      <point x="44" y="367" type="curve" smooth="yes"/>
      <point x="44" y="257"/>
      <point x="94" y="138"/>
      <point x="169" y="93" type="curve"/>
      <point x="97" y="99" type="line"/>
      <point x="30" y="99" type="line"/>
      <point x="30" y="0" type="line"/>
      <point x="325" y="0" type="line"/>
      <point x="325" y="76" type="line"/>
      <point x="223" y="114"/>
      <point x="191" y="240"/>
      <point x="191" y="349" type="curve" smooth="yes"/>
      <point x="191" y="478"/>
      <point x="237" y="644"/>
      <point x="391" y="644" type="curve" smooth="yes"/>
      <point x="545" y="644"/>
      <point x="590" y="478"/>
      <point x="590" y="349" type="curve" smooth="yes"/>
      <point x="590" y="240"/>
      <point x="558" y="114"/>
      <point x="456" y="76" type="curve"/>
      <point x="456" y="0" type="line"/>
    </contour>
  </outline>
</glyph>
<glyph name="partialdiff" format="1">
  <advance width="555"/>
  <unicode hex="2202"/>
  <outline>
    <contour>
      <point x="359" y="392"/>
      <point x="327" y="423"/>
      <point x="255" y="423" type="curve" smooth="yes"/>
      <point x="184" y="423"/>
      <point x="32" y="377"/>
      <point x="32" y="206" type="curve" smooth="yes"/>
      <point x="32" y="32"/>
      <point x="169" y="-11"/>
      <point x="250" y="-11" type="curve" smooth="yes"/>
      <point x="340" y="-11"/>
      <point x="523" y="48"/>
      <point x="523" y="334" type="curve" smooth="yes"/>
      <point x="523" y="579"/>
      <point x="434" y="743"/>
      <point x="240" y="743" type="curve" smooth="yes"/>
      <point x="107" y="743"/>
      <point x="48" y="671"/>
      <point x="48" y="671" type="curve"/>
      <point x="49" y="671"/>
      <point x="98" y="596"/>
      <point x="98" y="596" type="curve"/>
      <point x="98" y="596"/>
      <point x="140" y="636"/>
      <point x="212" y="636" type="curve" smooth="yes"/>
      <point x="335" y="636"/>
      <point x="370" y="473"/>
      <point x="372" y="385" type="curve"/>
    </contour>
    <contour>
      <point x="370" y="264"/>
      <point x="353" y="88"/>
      <point x="253" y="88" type="curve" smooth="yes"/>
      <point x="165" y="88"/>
      <point x="165" y="180"/>
      <point x="165" y="196" type="curve" smooth="yes"/>
      <point x="165" y="220"/>
      <point x="183" y="325"/>
      <point x="280" y="325" type="curve" smooth="yes"/>
      <point x="332" y="325"/>
      <point x="356" y="307"/>
      <point x="370" y="293" type="curve"/>
    </contour>
  </outline>
</glyph>
<glyph name="Delta" format="1">
  <advance width="631"/>
  <unicode hex="2206"/>
  <outline>
    <contour>
      <point x="629" y="0" type="line"/>
      <point x="629" y="67" type="line"/>
      <point x="370" y="732" type="line"/>
      <point x="261" y="732" type="line"/>
      <point x="2" y="67" type="line"/>
      <point x="2" y="0" type="line"/>
    </contour>
    <contour>
      <point x="130" y="99" type="line"/>
      <point x="173" y="208"/>
      <point x="237" y="382"/>
      <point x="274" y="486" type="curve" smooth="yes"/>
      <point x="285" y="518"/>
      <point x="296" y="572"/>
      <point x="300" y="586" type="curve"/>
      <point x="304" y="572"/>
      <point x="313" y="519"/>
      <point x="324" y="487" type="curve" smooth="yes"/>
      <point x="360" y="384"/>
      <point x="426" y="208"/>
      <point x="468" y="99" type="curve"/>
    </contour>
  </outline>
</glyph>
<glyph name="summation" format="1">
  <advance width="726"/>
  <unicode hex="2211"/>
  <outline>
    <contour>
      <point x="686" y="-229" type="line"/>
      <point x="686" y="-92" type="line"/>
      <point x="159" y="-92" type="line"/>
      <point x="175" y="-76"/>
      <point x="194" y="-59"/>
      <point x="208" y="-41" type="curve" smooth="yes"/>
      <point x="474" y="310" type="line"/>
      <point x="255" y="580" type="line" smooth="yes"/>
      <point x="240" y="598"/>
      <point x="220" y="616"/>
      <point x="203" y="633" type="curve"/>
      <point x="676" y="633" type="line"/>
      <point x="676" y="732" type="line"/>
      <point x="40" y="732" type="line"/>
      <point x="40" y="633" type="line"/>
      <point x="326" y="277" type="line"/>
      <point x="40" y="-99" type="line"/>
      <point x="40" y="-229" type="line"/>
    </contour>
  </outline>
</glyph>
<glyph name="greaterequal" format="1">
  <advance width="630"/>
  <unicode hex="2265"/>
  <outline>
    <contour>
      <point x="565" y="283" type="line"/>
      <point x="565" y="335" type="line"/>
      <point x="66" y="511" type="line"/>
      <point x="66" y="421" type="line"/>
      <point x="324" y="330" type="line" smooth="yes"/>
      <point x="358" y="318"/>
      <point x="395" y="312"/>
      <point x="431" y="309" type="curve"/>
      <point x="396" y="308"/>
      <point x="359" y="301"/>
      <point x="326" y="290" type="curve" smooth="yes"/>
      <point x="66" y="198" type="line"/>
      <point x="66" y="106" type="line"/>
    </contour>
    <contour>
      <point x="563" y="1" type="line"/>
      <point x="563" y="86" type="line"/>
      <point x="66" y="86" type="line"/>
      <point x="66" y="1" type="line"/>
    </contour>
  </outline>
</glyph>
<glyph name="uniFB02" format="1">
  <advance width="566"/>
  <unicode hex="FB02"/>
  <outline>
    <contour>
      <point x="504" y="0" type="line"/>
      <point x="504" y="779" type="line"/>
      <point x="407" y="745" type="line"/>
      <point x="380" y="759"/>
      <point x="350" y="774"/>
      <point x="308" y="774" type="curve" smooth="yes"/>
      <point x="171" y="774"/>
      <point x="127" y="700"/>
      <point x="102" y="596" type="curve" smooth="yes"/>
      <point x="86" y="530"/>
      <point x="72" y="486"/>
      <point x="3" y="486" type="curve"/>
      <point x="3" y="417" type="line"/>
      <point x="85" y="417" type="line"/>
      <point x="85" y="0" type="line"/>
      <point x="205" y="0" type="line"/>
      <point x="205" y="417" type="line"/>
      <point x="304" y="417" type="line"/>
      <point x="327" y="497" type="line"/>
      <point x="205" y="497" type="line"/>
      <point x="205" y="503" type="line" smooth="yes"/>
      <point x="205" y="559"/>
      <point x="207" y="694"/>
      <point x="306" y="694" type="curve" smooth="yes"/>
      <point x="358" y="694"/>
      <point x="382" y="653"/>
      <point x="382" y="616" type="curve" smooth="yes"/>
      <point x="382" y="0" type="line"/>
    </contour>
  </outline>
</glyph>
